<svg width="1005" height="259" viewBox="0 0 1005 259" fill="none" xmlns="http://www.w3.org/2000/svg">
<path d="M18.1191 64.1828H47.6917V34.2131C47.6917 28.8577 47.4883 25.3303 47.0815 23.631C46.7686 22.3437 46.1114 21.2366 45.11 20.3097C43.7644 19.0738 42.3405 18.4559 40.8384 18.4559H38.5852V15.5979H65.8108V18.4559H63.5577C62.0556 18.4559 60.6317 19.048 59.2861 20.2324C58.2847 21.0563 57.5962 22.3179 57.2207 24.0172C56.8765 25.6651 56.7043 29.0637 56.7043 34.2131V101.799C56.7043 107.103 56.9078 110.605 57.3146 112.304C57.6275 113.591 58.269 114.699 59.2391 115.626C60.6161 116.861 62.0556 117.479 63.5577 117.479H65.8108V120.337H38.5852V117.479H40.8384C43.4358 117.479 45.3291 116.218 46.5182 113.694C47.3006 112.047 47.6917 108.082 47.6917 101.799V69.8986H18.1191V101.799C18.1191 107.103 18.3225 110.605 18.7293 112.304C19.0423 113.591 19.6994 114.699 20.7008 115.626C22.0465 116.861 23.4703 117.479 24.9724 117.479H27.2725V120.337H0V117.479H2.25315C4.88183 117.479 6.79075 116.218 7.97992 113.694C8.73097 112.047 9.10649 108.082 9.10649 101.799V34.2131C9.10649 28.8577 8.90308 25.3303 8.49626 23.631C8.18333 22.3437 7.5418 21.2366 6.5717 20.3097C5.19477 19.0738 3.75525 18.4559 2.25315 18.4559H0V15.5979H27.2725V18.4559H24.9724C23.4703 18.4559 22.0465 19.048 20.7008 20.2324C19.7307 21.0563 19.0579 22.3179 18.6824 24.0172C18.3069 25.6651 18.1191 29.0637 18.1191 34.2131V64.1828Z" fill="#B01616"/>
<path d="M91.8629 47.4986C98.372 47.4986 103.598 51.5667 107.541 59.7028C110.89 66.6545 112.564 74.6361 112.564 83.6476C112.564 89.9814 111.641 96.3924 109.794 102.881C107.948 109.369 105.397 114.261 102.143 117.557C98.9197 120.852 95.3209 122.5 91.3466 122.5C84.8688 122.5 79.7209 118.252 75.9031 109.755C72.6798 102.597 71.0682 94.5644 71.0682 85.6559C71.0682 79.1676 72.0383 72.7308 73.9785 66.3455C75.95 59.9087 78.5318 55.1713 81.7237 52.1331C84.9157 49.0434 88.2954 47.4986 91.8629 47.4986ZM90.4077 52.5193C88.7492 52.5193 87.075 53.3432 85.3851 54.991C83.7265 56.5874 82.3809 59.4195 81.3482 63.4876C80.3155 67.5556 79.7992 72.7823 79.7992 79.1676C79.7992 89.4664 81.0353 98.3492 83.5075 105.816C86.011 113.283 89.2968 117.016 93.365 117.016C96.4005 117.016 98.904 114.956 100.876 110.837C102.847 106.717 103.833 99.6365 103.833 89.5952C103.833 77.0306 102.19 67.1437 98.904 59.9345C96.6822 54.991 93.8501 52.5193 90.4077 52.5193Z" fill="#B01616"/>
<path d="M116.507 49.5841H134.532V52.4421C132.873 52.648 131.778 53.1372 131.246 53.9097C130.745 54.6821 130.495 55.7892 130.495 57.231C130.495 58.8274 130.761 60.7584 131.293 63.0241L140.493 103.73L149.741 70.5938L147.3 60.1662C146.549 57.0766 145.563 54.9395 144.343 53.7552C143.654 53.0343 142.371 52.5966 140.493 52.4421V49.5841H160.96V52.4421C158.706 52.5966 157.11 53.266 156.172 54.4503C155.546 55.2743 155.233 56.5874 155.233 58.3897C155.233 59.4195 155.358 60.4752 155.608 61.5566L165.372 102.186L174.432 63.0241C175.057 60.2434 175.37 58.0292 175.37 56.3814C175.37 55.403 175.057 54.5276 174.432 53.7552C173.837 52.9828 172.648 52.5451 170.864 52.4421V49.5841H184.43V52.4421C181.707 53.1115 179.705 56.1497 178.422 61.5566L164.058 122.5H162.133L151.384 77.3138L138.851 122.5H137.114L123.313 63.0241C122.406 59.2651 121.514 56.7418 120.638 55.4545C119.761 54.1156 118.384 53.1115 116.507 52.4421V49.5841Z" fill="#B01616"/>
<path d="M263.243 15.5979L263.947 40.1607H262.164C261.819 35.8352 261.35 32.7455 260.755 30.8917C259.785 27.9051 258.487 25.7166 256.859 24.3262C255.263 22.8844 253.151 22.1634 250.522 22.1634H241.557V102.186C241.557 108.622 241.979 112.639 242.824 114.235C244.013 116.398 245.844 117.479 248.316 117.479H250.522V120.337H223.532V117.479H225.785C228.476 117.479 230.385 116.14 231.511 113.463C232.2 111.815 232.544 108.056 232.544 102.186V22.1634H224.893C221.92 22.1634 219.808 22.5239 218.556 23.2448C216.929 24.2232 215.536 26.1028 214.378 28.8834C213.22 31.6641 212.532 35.4232 212.313 40.1607H210.529L211.28 15.5979H263.243Z" fill="#B01616"/>
<path d="M283.663 47.4986C290.172 47.4986 295.398 51.5667 299.341 59.7028C302.689 66.6545 304.363 74.6361 304.363 83.6476C304.363 89.9814 303.44 96.3924 301.594 102.881C299.748 109.369 297.197 114.261 293.943 117.557C290.719 120.852 287.12 122.5 283.146 122.5C276.668 122.5 271.521 118.252 267.703 109.755C264.479 102.597 262.868 94.5644 262.868 85.6559C262.868 79.1676 263.838 72.7308 265.778 66.3455C267.75 59.9087 270.331 55.1713 273.523 52.1331C276.715 49.0434 280.095 47.4986 283.663 47.4986ZM282.207 52.5193C280.549 52.5193 278.875 53.3432 277.185 54.991C275.526 56.5874 274.181 59.4195 273.148 63.4876C272.115 67.5556 271.599 72.7823 271.599 79.1676C271.599 89.4664 272.835 98.3492 275.307 105.816C277.811 113.283 281.096 117.016 285.165 117.016C288.2 117.016 290.704 114.956 292.675 110.837C294.647 106.717 295.632 99.6365 295.632 89.5952C295.632 77.0306 293.989 67.1437 290.704 59.9345C288.482 54.991 285.65 52.5193 282.207 52.5193Z" fill="#B01616"/>
<path d="M396.696 120.337H379.703L358.157 71.3662C356.561 71.4692 355.263 71.5207 354.261 71.5207C353.855 71.5207 353.416 71.5207 352.947 71.5207C352.478 71.4692 351.993 71.4177 351.492 71.3662V101.799C351.492 108.391 351.93 112.484 352.806 114.081C353.995 116.346 355.779 117.479 358.157 117.479H360.645V120.337H333.373V117.479H335.767C338.458 117.479 340.383 116.037 341.54 113.154C342.198 111.557 342.526 107.773 342.526 101.799V34.1359C342.526 27.5446 342.088 23.4508 341.212 21.8545C339.991 19.5887 338.176 18.4559 335.767 18.4559H333.373V15.5979H356.561C363.321 15.5979 368.297 16.4218 371.489 18.0697C374.712 19.666 377.434 22.6526 379.656 27.0297C381.909 31.3552 383.036 36.5303 383.036 42.5552C383.036 48.992 381.753 54.5791 379.187 59.3166C376.652 64.054 372.709 67.4012 367.358 69.3579L380.501 99.4048C383.505 106.305 386.087 110.888 388.246 113.154C390.406 115.42 393.222 116.861 396.696 117.479V120.337ZM351.492 66.5C352.086 66.5 352.603 66.5257 353.041 66.5772C353.479 66.5772 353.839 66.5772 354.12 66.5772C360.191 66.5772 364.76 64.4145 367.827 60.089C370.925 55.7634 372.474 50.2536 372.474 43.5593C372.474 37.0195 371.223 31.7156 368.719 27.6476C366.247 23.528 362.961 21.4683 358.862 21.4683C357.046 21.4683 354.59 21.9575 351.492 22.9359V66.5Z" fill="#B01616"/>
<path d="M436.548 49.5841V92.4531C436.548 100.641 436.658 105.661 436.877 107.515C437.127 109.317 437.503 110.579 438.003 111.3C438.535 112.021 439.146 112.381 439.834 112.381C440.804 112.381 441.9 111.944 443.12 111.068L443.777 113.772L430.915 122.5H428.803V107.515C425.11 114.106 422.294 118.252 420.354 119.951C418.414 121.65 416.364 122.5 414.205 122.5C411.795 122.5 409.698 121.367 407.914 119.101C406.162 116.784 404.942 113.823 404.253 110.219C403.565 106.614 403.22 101.516 403.22 94.9248V63.3331C403.22 59.986 403.001 57.6687 402.563 56.3814C402.125 55.094 401.468 54.1156 400.592 53.4462C399.747 52.7253 398.198 52.3906 395.945 52.4421V49.5841H411.013V96.9331C411.013 103.524 411.701 107.85 413.078 109.91C414.486 111.969 416.176 112.999 418.148 112.999C419.493 112.999 421.011 112.304 422.701 110.914C424.422 109.523 426.456 106.871 428.803 102.958V62.8697C428.803 58.8531 428.349 56.1497 427.442 54.7593C426.566 53.3175 424.719 52.5451 421.903 52.4421V49.5841H436.548Z" fill="#B01616"/>
<path d="M457.859 10.5C459.174 10.5 460.285 11.2724 461.192 12.8172C462.131 14.3106 462.6 16.1386 462.6 18.3014C462.6 20.4641 462.131 22.3179 461.192 23.8628C460.285 25.4076 459.174 26.18 457.859 26.18C456.545 26.18 455.418 25.4076 454.48 23.8628C453.541 22.3179 453.071 20.4641 453.071 18.3014C453.071 16.1386 453.525 14.3106 454.433 12.8172C455.372 11.2724 456.514 10.5 457.859 10.5ZM461.755 47.4986V104.348C461.755 108.777 461.943 111.738 462.319 113.231C462.726 114.673 463.305 115.754 464.056 116.475C464.838 117.196 466.246 117.557 468.28 117.557V120.337H447.392V117.557C449.488 117.557 450.897 117.222 451.616 116.552C452.336 115.883 452.899 114.776 453.306 113.231C453.744 111.686 453.963 108.725 453.963 104.348V77.0821C453.963 69.4094 453.823 64.4402 453.541 62.1745C453.322 60.5267 452.978 59.3938 452.508 58.7759C452.039 58.1064 451.397 57.7717 450.584 57.7717C449.707 57.7717 448.643 58.1579 447.392 58.9303L446.734 56.1497L459.69 47.4986H461.755Z" fill="#B01616"/>
<path d="M486.212 62.4834C491.25 52.4936 496.053 47.4986 500.622 47.4986C502.969 47.4986 504.988 48.477 506.678 50.4338C508.368 52.3391 509.713 55.506 510.715 59.9345C511.403 63.0241 511.747 67.7616 511.747 74.1469V104.348C511.747 108.828 511.966 111.866 512.404 113.463C512.749 114.75 513.296 115.754 514.047 116.475C514.83 117.196 516.254 117.557 518.319 117.557V120.337H497.055V117.557H497.947C499.95 117.557 501.342 117.067 502.124 116.089C502.938 115.059 503.501 113.566 503.814 111.609C503.94 110.837 504.002 108.416 504.002 104.348V75.3828C504.002 68.946 503.486 64.2857 502.453 61.4021C501.452 58.4669 499.746 56.9993 497.336 56.9993C493.613 56.9993 489.904 60.3464 486.212 67.0407V104.348C486.212 109.137 486.384 112.098 486.728 113.231C487.166 114.724 487.761 115.831 488.512 116.552C489.294 117.222 490.859 117.557 493.206 117.557V120.337H471.942V117.557H472.88C475.071 117.557 476.542 116.655 477.293 114.853C478.075 112.999 478.466 109.498 478.466 104.348V78.0862C478.466 69.5897 478.341 64.4145 478.091 62.5607C477.872 60.7069 477.512 59.4453 477.011 58.7759C476.542 58.1064 475.9 57.7717 475.087 57.7717C474.21 57.7717 473.162 58.1579 471.942 58.9303L471.237 56.1497L484.193 47.4986H486.212V62.4834Z" fill="#B01616"/>
<path d="M581.407 85.2697H556.763L552.445 101.799C551.381 105.867 550.849 108.906 550.849 110.914C550.849 112.51 551.303 113.926 552.21 115.162C553.149 116.346 555.152 117.119 558.219 117.479V120.337H538.175V117.479C540.835 116.707 542.556 115.703 543.338 114.467C544.934 111.995 546.702 106.974 548.643 99.4048L571.033 13.2034H572.676L594.832 100.332C596.616 107.335 598.228 111.892 599.667 114.003C601.138 116.063 603.172 117.222 605.769 117.479V120.337H580.656V117.479C583.191 117.273 584.897 116.578 585.773 115.394C586.68 114.209 587.134 112.768 587.134 111.068C587.134 108.803 586.508 105.224 585.256 100.332L581.407 85.2697ZM580.093 79.5538L569.297 37.2255L558.219 79.5538H580.093Z" fill="#B01616"/>
<path d="M645.247 21.3138V62.4834H656.841C659.501 62.4834 661.441 61.5308 662.662 59.6255C663.913 57.6687 664.743 53.8324 665.149 48.1166H666.886V83.5704H665.149C665.118 79.5023 664.79 76.5156 664.164 74.6103C663.569 72.7051 662.724 71.289 661.629 70.3621C660.565 69.3837 658.969 68.8945 656.841 68.8945H645.247V101.799C645.247 107.103 645.45 110.605 645.857 112.304C646.17 113.591 646.827 114.699 647.828 115.626C649.205 116.861 650.645 117.479 652.147 117.479H654.447V120.337H627.128V117.479H629.381C632.009 117.479 633.918 116.218 635.107 113.694C635.858 112.047 636.234 108.082 636.234 101.799V34.1359C636.234 28.832 636.031 25.3303 635.624 23.631C635.311 22.3437 634.669 21.2366 633.699 20.3097C632.354 19.0738 630.914 18.4559 629.381 18.4559H627.128V15.5979H674.491L675.101 38.6159H673.458C672.644 33.7239 671.69 30.1451 670.595 27.8793C669.531 25.5621 668.201 23.8885 666.605 22.8586C665.04 21.8287 662.599 21.3138 659.282 21.3138H645.247Z" fill="#B01616"/>
<path d="M693.032 10.5C694.347 10.5 695.457 11.2724 696.365 12.8172C697.304 14.3106 697.773 16.1386 697.773 18.3014C697.773 20.4641 697.304 22.3179 696.365 23.8628C695.457 25.4076 694.347 26.18 693.032 26.18C691.718 26.18 690.591 25.4076 689.653 23.8628C688.714 22.3179 688.244 20.4641 688.244 18.3014C688.244 16.1386 688.698 14.3106 689.606 12.8172C690.544 11.2724 691.687 10.5 693.032 10.5ZM696.928 47.4986V104.348C696.928 108.777 697.116 111.738 697.492 113.231C697.898 114.673 698.477 115.754 699.228 116.475C700.011 117.196 701.419 117.557 703.453 117.557V120.337H682.564V117.557C684.661 117.557 686.069 117.222 686.789 116.552C687.509 115.883 688.072 114.776 688.479 113.231C688.917 111.686 689.136 108.725 689.136 104.348V77.0821C689.136 69.4094 688.995 64.4402 688.714 62.1745C688.495 60.5267 688.15 59.3938 687.681 58.7759C687.212 58.1064 686.57 57.7717 685.756 57.7717C684.88 57.7717 683.816 58.1579 682.564 58.9303L681.907 56.1497L694.863 47.4986H696.928Z" fill="#B01616"/>
<path d="M721.431 47.4986V63.4103C725.03 52.8025 728.723 47.4986 732.509 47.4986C734.23 47.4986 735.654 48.374 736.781 50.1248C737.907 51.8241 738.471 53.8067 738.471 56.0724C738.471 58.0807 738.064 59.78 737.25 61.1703C736.437 62.5607 735.467 63.2559 734.34 63.2559C733.245 63.2559 732.009 62.3805 730.632 60.6297C729.286 58.8274 728.285 57.9262 727.628 57.9262C727.064 57.9262 726.454 58.4411 725.797 59.471C724.389 61.5823 722.933 65.0582 721.431 69.8986V103.808C721.431 107.721 721.729 110.682 722.323 112.69C722.73 114.081 723.45 115.239 724.482 116.166C725.515 117.093 727.002 117.557 728.942 117.557V120.337H706.927V117.557C709.117 117.557 710.744 116.99 711.808 115.857C712.591 115.033 713.138 113.72 713.451 111.918C713.608 111.043 713.686 108.545 713.686 104.426V77.0048C713.686 68.7657 713.577 63.8738 713.357 62.329C713.17 60.7326 712.794 59.574 712.231 58.8531C711.699 58.1322 711.026 57.7717 710.212 57.7717C709.242 57.7717 708.147 58.1579 706.927 58.9303L706.457 56.1497L719.46 47.4986H721.431Z" fill="#B01616"/>
<path d="M768.654 47.4986V71.5979H767.105C765.915 64.0283 764.382 58.8789 762.504 56.1497C760.658 53.4205 758.295 52.0559 755.416 52.0559C753.226 52.0559 751.458 53.0085 750.112 54.9138C748.766 56.8191 748.094 58.9303 748.094 61.2476C748.094 64.1313 748.594 66.603 749.596 68.6628C750.566 70.774 752.537 73.014 755.51 75.3828L762.364 80.8669C768.716 85.9648 771.893 92.6848 771.893 101.027C771.893 107.464 770.406 112.665 767.433 116.63C764.492 120.543 761.19 122.5 757.529 122.5C754.9 122.5 751.896 121.728 748.516 120.183C747.483 119.668 746.638 119.41 745.981 119.41C745.262 119.41 744.698 120.08 744.291 121.419H742.742V96.1607H744.291C745.168 103.37 746.842 108.803 749.314 112.459C751.786 116.115 754.556 117.943 757.623 117.943C759.782 117.943 761.534 116.913 762.88 114.853C764.257 112.742 764.945 110.219 764.945 107.283C764.945 103.73 764.179 100.744 762.645 98.3234C761.143 95.9032 758.123 92.8393 753.586 89.1317C749.048 85.4241 746.075 82.077 744.667 79.0903C743.259 76.1552 742.555 72.4476 742.555 67.9676C742.555 62.1487 743.759 57.2825 746.169 53.369C748.61 49.4554 751.755 47.4986 755.604 47.4986C757.294 47.4986 759.344 48.0908 761.753 49.2752C763.349 50.0476 764.413 50.4338 764.945 50.4338C765.446 50.4338 765.837 50.2536 766.119 49.8931C766.4 49.5326 766.729 48.7345 767.105 47.4986H768.654Z" fill="#B01616"/>
<path d="M790.81 26.3345V49.5841H800.855V54.991H790.81V100.872C790.81 105.455 791.201 108.545 791.983 110.141C792.797 111.738 793.829 112.536 795.081 112.536C796.114 112.536 797.115 112.021 798.085 110.991C799.055 109.91 799.807 108.339 800.339 106.279H802.169C801.074 111.326 799.525 115.136 797.522 117.711C795.519 120.234 793.454 121.496 791.326 121.496C789.886 121.496 788.478 120.852 787.101 119.565C785.724 118.226 784.707 116.346 784.05 113.926C783.393 111.454 783.064 107.67 783.064 102.572V54.991H776.258V52.4421C777.979 51.3092 779.732 49.4039 781.515 46.7262C783.33 43.997 784.942 40.7786 786.35 37.071C787.07 35.1143 788.071 31.5354 789.354 26.3345H790.81Z" fill="#B01616"/>
<path d="M827.752 120.337V117.479H830.146C832.837 117.479 834.746 116.063 835.873 113.231C836.561 111.532 836.905 107.721 836.905 101.799V34.1359C836.905 27.5961 836.467 23.5023 835.591 21.8545C834.371 19.5887 832.555 18.4559 830.146 18.4559H827.752V15.5979H853.663C863.177 15.5979 870.405 17.3745 875.35 20.9276C880.326 24.4807 884.315 30.4025 887.32 38.6931C890.355 46.9837 891.873 56.5616 891.873 67.4269C891.873 81.9998 889.182 94.1782 883.799 103.962C877.759 114.879 868.559 120.337 856.198 120.337H827.752ZM845.918 112.768C849.892 114.209 853.225 114.93 855.916 114.93C863.176 114.93 869.201 110.734 873.989 102.34C878.776 93.9464 881.17 82.5662 881.17 68.1993C881.17 53.7294 878.776 42.3235 873.989 33.9814C869.201 25.6393 863.051 21.4683 855.541 21.4683C852.724 21.4683 849.517 22.2149 845.918 23.7083V112.768Z" fill="#B01616"/>
<path d="M922.948 110.141C918.535 115.754 915.766 118.998 914.639 119.874C912.949 121.161 911.15 121.805 909.241 121.805C906.268 121.805 903.811 120.131 901.871 116.784C899.962 113.437 899.008 109.034 899.008 103.576C899.008 100.126 899.477 97.1391 900.416 94.6159C901.699 91.1143 903.921 87.8186 907.082 84.729C910.274 81.6393 915.562 77.8802 922.948 73.4517V70.671C922.948 63.6163 922.259 58.7759 920.882 56.1497C919.537 53.5235 917.565 52.2103 914.968 52.2103C912.996 52.2103 911.432 53.0857 910.274 54.8366C909.085 56.5874 908.49 58.5956 908.49 60.8614L908.584 65.3414C908.584 67.7101 908.208 69.5382 907.457 70.8255C906.737 72.1129 905.783 72.7566 904.594 72.7566C903.436 72.7566 902.482 72.0871 901.73 70.7483C901.011 69.4094 900.651 67.5814 900.651 65.2641C900.651 60.8356 902.028 56.7676 904.782 53.06C907.535 49.3524 911.4 47.4986 916.376 47.4986C920.194 47.4986 923.323 48.5543 925.764 50.6655C927.61 52.2618 928.972 54.7593 929.848 58.1579C930.411 60.3722 930.693 64.9037 930.693 71.7524V95.7745C930.693 102.52 930.771 106.666 930.928 108.21C931.084 109.704 931.334 110.708 931.679 111.223C932.054 111.738 932.477 111.995 932.946 111.995C933.447 111.995 933.885 111.815 934.26 111.454C934.917 110.785 936.185 108.906 938.063 105.816V110.141C934.558 117.866 931.209 121.728 928.017 121.728C926.484 121.728 925.263 120.852 924.356 119.101C923.448 117.351 922.979 114.364 922.948 110.141ZM922.948 105.121V78.1635C918.222 81.2531 915.171 83.4416 913.794 84.729C911.322 86.9947 909.554 89.3635 908.49 91.8352C907.426 94.3069 906.894 97.0103 906.894 99.9455C906.894 103.653 907.567 106.743 908.912 109.214C910.258 111.635 911.807 112.845 913.56 112.845C915.938 112.845 919.067 110.27 922.948 105.121Z" fill="#B01616"/>
<path d="M953.788 26.3345V49.5841H963.833V54.991H953.788V100.872C953.788 105.455 954.179 108.545 954.961 110.141C955.775 111.738 956.808 112.536 958.059 112.536C959.092 112.536 960.093 112.021 961.063 110.991C962.034 109.91 962.785 108.339 963.317 106.279H965.147C964.052 111.326 962.503 115.136 960.5 117.711C958.497 120.234 956.432 121.496 954.304 121.496C952.865 121.496 951.456 120.852 950.079 119.565C948.702 118.226 947.685 116.346 947.028 113.926C946.371 111.454 946.042 107.67 946.042 102.572V54.991H939.236V52.4421C940.957 51.3092 942.71 49.4039 944.493 46.7262C946.309 43.997 947.92 40.7786 949.328 37.071C950.048 35.1143 951.049 31.5354 952.333 26.3345H953.788Z" fill="#B01616"/>
<path d="M975.286 76.2324C975.255 86.7372 976.804 94.9763 979.934 100.95C983.063 106.923 986.74 109.91 990.965 109.91C993.781 109.91 996.222 108.648 998.287 106.125C1000.38 103.55 1002.14 99.1731 1003.54 92.9938L1005 94.5386C1004.34 101.593 1002.43 108.03 999.273 113.849C996.113 119.616 992.154 122.5 987.397 122.5C982.234 122.5 977.806 119.204 974.113 112.613C970.452 105.97 968.621 97.0618 968.621 85.8876C968.621 73.7864 970.499 64.363 974.254 57.6172C978.04 50.82 982.781 47.4214 988.477 47.4214C993.296 47.4214 997.255 50.0476 1000.35 55.3C1003.45 60.5009 1005 67.4784 1005 76.2324H975.286ZM975.286 71.7524H995.189C995.033 67.2209 994.704 64.0283 994.204 62.1745C993.421 59.2908 992.248 57.0251 990.683 55.3772C989.15 53.7294 987.538 52.9055 985.848 52.9055C983.251 52.9055 980.919 54.5791 978.854 57.9262C976.82 61.2218 975.631 65.8306 975.286 71.7524Z" fill="#B01616"/>
<path d="M335.385 175.664V176.314C334.764 176.314 334.26 176.426 333.873 176.648C333.486 176.871 333.117 177.287 332.766 177.896C332.531 178.307 332.162 179.285 331.658 180.832L325.014 200.045H324.311L318.879 184.805L313.482 200.045H312.85L305.766 180.252C305.238 178.775 304.904 177.902 304.764 177.633C304.529 177.188 304.207 176.859 303.797 176.648C303.398 176.426 302.854 176.314 302.162 176.314V175.664H310.986V176.314H310.564C309.943 176.314 309.469 176.455 309.141 176.736C308.812 177.018 308.648 177.357 308.648 177.756C308.648 178.166 308.906 179.109 309.422 180.586L314.115 193.963L318.07 182.59L317.367 180.586L316.805 178.986C316.559 178.4 316.283 177.885 315.979 177.439C315.826 177.217 315.639 177.029 315.416 176.877C315.123 176.666 314.83 176.514 314.537 176.42C314.314 176.35 313.963 176.314 313.482 176.314V175.664H322.764V176.314H322.131C321.475 176.314 320.994 176.455 320.689 176.736C320.385 177.018 320.232 177.398 320.232 177.879C320.232 178.477 320.496 179.52 321.023 181.008L325.594 193.963L330.129 180.832C330.645 179.379 330.902 178.371 330.902 177.809C330.902 177.539 330.814 177.287 330.639 177.053C330.475 176.818 330.264 176.654 330.006 176.561C329.561 176.396 328.98 176.314 328.266 176.314V175.664H335.385ZM340.078 182.924V186.545C341.426 184.131 342.809 182.924 344.227 182.924C344.871 182.924 345.404 183.123 345.826 183.521C346.248 183.908 346.459 184.359 346.459 184.875C346.459 185.332 346.307 185.719 346.002 186.035C345.697 186.352 345.334 186.51 344.912 186.51C344.502 186.51 344.039 186.311 343.523 185.912C343.02 185.502 342.645 185.297 342.398 185.297C342.188 185.297 341.959 185.414 341.713 185.648C341.186 186.129 340.641 186.92 340.078 188.021V195.738C340.078 196.629 340.189 197.303 340.412 197.76C340.564 198.076 340.834 198.34 341.221 198.551C341.607 198.762 342.164 198.867 342.891 198.867V199.5H334.646V198.867C335.467 198.867 336.076 198.738 336.475 198.48C336.768 198.293 336.973 197.994 337.09 197.584C337.148 197.385 337.178 196.816 337.178 195.879V189.639C337.178 187.764 337.137 186.65 337.055 186.299C336.984 185.936 336.844 185.672 336.633 185.508C336.434 185.344 336.182 185.262 335.877 185.262C335.514 185.262 335.104 185.35 334.646 185.525L334.471 184.893L339.34 182.924H340.078ZM351.451 174.504C351.943 174.504 352.359 174.68 352.699 175.031C353.051 175.371 353.227 175.787 353.227 176.279C353.227 176.771 353.051 177.193 352.699 177.545C352.359 177.896 351.943 178.072 351.451 178.072C350.959 178.072 350.537 177.896 350.186 177.545C349.834 177.193 349.658 176.771 349.658 176.279C349.658 175.787 349.828 175.371 350.168 175.031C350.52 174.68 350.947 174.504 351.451 174.504ZM352.91 182.924V195.861C352.91 196.869 352.98 197.543 353.121 197.883C353.273 198.211 353.49 198.457 353.771 198.621C354.064 198.785 354.592 198.867 355.354 198.867V199.5H347.531V198.867C348.316 198.867 348.844 198.791 349.113 198.639C349.383 198.486 349.594 198.234 349.746 197.883C349.91 197.531 349.992 196.857 349.992 195.861V189.656C349.992 187.91 349.939 186.779 349.834 186.264C349.752 185.889 349.623 185.631 349.447 185.49C349.271 185.338 349.031 185.262 348.727 185.262C348.398 185.262 348 185.35 347.531 185.525L347.285 184.893L352.137 182.924H352.91ZM362.051 178.107V183.398H365.812V184.629H362.051V195.07C362.051 196.113 362.197 196.816 362.49 197.18C362.795 197.543 363.182 197.725 363.65 197.725C364.037 197.725 364.412 197.607 364.775 197.373C365.139 197.127 365.42 196.77 365.619 196.301H366.305C365.895 197.449 365.314 198.316 364.564 198.902C363.814 199.477 363.041 199.764 362.244 199.764C361.705 199.764 361.178 199.617 360.662 199.324C360.146 199.02 359.766 198.592 359.52 198.041C359.273 197.479 359.15 196.617 359.15 195.457V184.629H356.602V184.049C357.246 183.791 357.902 183.357 358.57 182.748C359.25 182.127 359.854 181.395 360.381 180.551C360.65 180.105 361.025 179.291 361.506 178.107H362.051ZM372.07 178.107V183.398H375.832V184.629H372.07V195.07C372.07 196.113 372.217 196.816 372.51 197.18C372.814 197.543 373.201 197.725 373.67 197.725C374.057 197.725 374.432 197.607 374.795 197.373C375.158 197.127 375.439 196.77 375.639 196.301H376.324C375.914 197.449 375.334 198.316 374.584 198.902C373.834 199.477 373.061 199.764 372.264 199.764C371.725 199.764 371.197 199.617 370.682 199.324C370.166 199.02 369.785 198.592 369.539 198.041C369.293 197.479 369.17 196.617 369.17 195.457V184.629H366.621V184.049C367.266 183.791 367.922 183.357 368.59 182.748C369.27 182.127 369.873 181.395 370.4 180.551C370.67 180.105 371.045 179.291 371.525 178.107H372.07ZM380.121 189.463C380.109 191.854 380.689 193.729 381.861 195.088C383.033 196.447 384.41 197.127 385.992 197.127C387.047 197.127 387.961 196.84 388.734 196.266C389.52 195.68 390.176 194.684 390.703 193.277L391.248 193.629C391.002 195.234 390.287 196.699 389.104 198.023C387.92 199.336 386.438 199.992 384.656 199.992C382.723 199.992 381.064 199.242 379.682 197.742C378.311 196.23 377.625 194.203 377.625 191.66C377.625 188.906 378.328 186.762 379.734 185.227C381.152 183.68 382.928 182.906 385.061 182.906C386.865 182.906 388.348 183.504 389.508 184.699C390.668 185.883 391.248 187.471 391.248 189.463H380.121ZM380.121 188.443H387.574C387.516 187.412 387.393 186.686 387.205 186.264C386.912 185.607 386.473 185.092 385.887 184.717C385.312 184.342 384.709 184.154 384.076 184.154C383.104 184.154 382.23 184.535 381.457 185.297C380.695 186.047 380.25 187.096 380.121 188.443ZM398.104 186.334C399.99 184.061 401.789 182.924 403.5 182.924C404.379 182.924 405.135 183.146 405.768 183.592C406.4 184.025 406.904 184.746 407.279 185.754C407.537 186.457 407.666 187.535 407.666 188.988V195.861C407.666 196.881 407.748 197.572 407.912 197.936C408.041 198.229 408.246 198.457 408.527 198.621C408.82 198.785 409.354 198.867 410.127 198.867V199.5H402.164V198.867H402.498C403.248 198.867 403.77 198.756 404.062 198.533C404.367 198.299 404.578 197.959 404.695 197.514C404.742 197.338 404.766 196.787 404.766 195.861V189.27C404.766 187.805 404.572 186.744 404.186 186.088C403.811 185.42 403.172 185.086 402.27 185.086C400.875 185.086 399.486 185.848 398.104 187.371V195.861C398.104 196.951 398.168 197.625 398.297 197.883C398.461 198.223 398.684 198.475 398.965 198.639C399.258 198.791 399.844 198.867 400.723 198.867V199.5H392.76V198.867H393.111C393.932 198.867 394.482 198.662 394.764 198.252C395.057 197.83 395.203 197.033 395.203 195.861V189.885C395.203 187.951 395.156 186.773 395.062 186.352C394.98 185.93 394.846 185.643 394.658 185.49C394.482 185.338 394.242 185.262 393.938 185.262C393.609 185.262 393.217 185.35 392.76 185.525L392.496 184.893L397.348 182.924H398.104V186.334ZM424.822 186.176C426.381 184.008 428.062 182.924 429.867 182.924C431.52 182.924 432.961 183.633 434.191 185.051C435.422 186.457 436.037 188.385 436.037 190.834C436.037 193.693 435.088 195.996 433.189 197.742C431.561 199.242 429.744 199.992 427.74 199.992C426.803 199.992 425.848 199.822 424.875 199.482C423.914 199.143 422.93 198.633 421.922 197.953V181.271C421.922 179.443 421.875 178.318 421.781 177.896C421.699 177.475 421.564 177.188 421.377 177.035C421.189 176.883 420.955 176.807 420.674 176.807C420.346 176.807 419.936 176.9 419.443 177.088L419.197 176.473L424.031 174.504H424.822V186.176ZM424.822 187.301V196.934C425.42 197.52 426.035 197.965 426.668 198.27C427.312 198.562 427.969 198.709 428.637 198.709C429.703 198.709 430.693 198.123 431.607 196.951C432.533 195.779 432.996 194.074 432.996 191.836C432.996 189.773 432.533 188.191 431.607 187.09C430.693 185.977 429.65 185.42 428.479 185.42C427.857 185.42 427.236 185.578 426.615 185.895C426.146 186.129 425.549 186.598 424.822 187.301ZM437.496 183.398H445.002V184.049H444.633C444.105 184.049 443.707 184.166 443.438 184.4C443.18 184.623 443.051 184.904 443.051 185.244C443.051 185.701 443.244 186.334 443.631 187.143L447.551 195.264L451.154 186.369C451.354 185.889 451.453 185.414 451.453 184.945C451.453 184.734 451.412 184.576 451.33 184.471C451.236 184.342 451.09 184.242 450.891 184.172C450.691 184.09 450.34 184.049 449.836 184.049V183.398H455.074V184.049C454.641 184.096 454.307 184.189 454.072 184.33C453.838 184.471 453.58 184.734 453.299 185.121C453.193 185.285 452.994 185.736 452.701 186.475L446.145 202.541C445.512 204.1 444.68 205.277 443.648 206.074C442.629 206.871 441.645 207.27 440.695 207.27C440.004 207.27 439.436 207.07 438.99 206.672C438.545 206.273 438.322 205.816 438.322 205.301C438.322 204.809 438.48 204.41 438.797 204.105C439.125 203.812 439.57 203.666 440.133 203.666C440.52 203.666 441.047 203.795 441.715 204.053C442.184 204.229 442.477 204.316 442.594 204.316C442.945 204.316 443.326 204.135 443.736 203.771C444.158 203.408 444.58 202.705 445.002 201.662L446.145 198.867L440.361 186.721C440.186 186.357 439.904 185.906 439.518 185.367C439.225 184.957 438.984 184.682 438.797 184.541C438.527 184.354 438.094 184.189 437.496 184.049V183.398ZM479.016 199.5L469.805 179.443V195.369C469.805 196.834 469.963 197.748 470.279 198.111C470.713 198.604 471.398 198.85 472.336 198.85H473.18V199.5H464.883V198.85H465.727C466.734 198.85 467.449 198.545 467.871 197.936C468.129 197.561 468.258 196.705 468.258 195.369V179.795C468.258 178.74 468.141 177.979 467.906 177.51C467.742 177.17 467.438 176.889 466.992 176.666C466.559 176.432 465.855 176.314 464.883 176.314V175.664H471.633L480.281 194.314L488.789 175.664H495.539V176.314H494.713C493.693 176.314 492.973 176.619 492.551 177.229C492.293 177.604 492.164 178.459 492.164 179.795V195.369C492.164 196.834 492.328 197.748 492.656 198.111C493.09 198.604 493.775 198.85 494.713 198.85H495.539V199.5H485.414V198.85H486.258C487.277 198.85 487.992 198.545 488.402 197.936C488.66 197.561 488.789 196.705 488.789 195.369V179.443L479.596 199.5H479.016ZM506.561 197.18C504.908 198.457 503.871 199.195 503.449 199.395C502.816 199.688 502.143 199.834 501.428 199.834C500.314 199.834 499.395 199.453 498.668 198.691C497.953 197.93 497.596 196.928 497.596 195.686C497.596 194.9 497.771 194.221 498.123 193.646C498.604 192.85 499.436 192.1 500.619 191.396C501.814 190.693 503.795 189.838 506.561 188.83V188.197C506.561 186.592 506.303 185.49 505.787 184.893C505.283 184.295 504.545 183.996 503.572 183.996C502.834 183.996 502.248 184.195 501.814 184.594C501.369 184.992 501.146 185.449 501.146 185.965L501.182 186.984C501.182 187.523 501.041 187.939 500.76 188.232C500.49 188.525 500.133 188.672 499.688 188.672C499.254 188.672 498.896 188.52 498.615 188.215C498.346 187.91 498.211 187.494 498.211 186.967C498.211 185.959 498.727 185.033 499.758 184.189C500.789 183.346 502.236 182.924 504.1 182.924C505.529 182.924 506.701 183.164 507.615 183.645C508.307 184.008 508.816 184.576 509.145 185.35C509.355 185.854 509.461 186.885 509.461 188.443V193.91C509.461 195.445 509.49 196.389 509.549 196.74C509.607 197.08 509.701 197.309 509.83 197.426C509.971 197.543 510.129 197.602 510.305 197.602C510.492 197.602 510.656 197.561 510.797 197.479C511.043 197.326 511.518 196.898 512.221 196.195V197.18C510.908 198.938 509.654 199.816 508.459 199.816C507.885 199.816 507.428 199.617 507.088 199.219C506.748 198.82 506.572 198.141 506.561 197.18ZM506.561 196.037V189.902C504.791 190.605 503.648 191.104 503.133 191.396C502.207 191.912 501.545 192.451 501.146 193.014C500.748 193.576 500.549 194.191 500.549 194.859C500.549 195.703 500.801 196.406 501.305 196.969C501.809 197.52 502.389 197.795 503.045 197.795C503.936 197.795 505.107 197.209 506.561 196.037ZM518.127 186.334C520.014 184.061 521.812 182.924 523.523 182.924C524.402 182.924 525.158 183.146 525.791 183.592C526.424 184.025 526.928 184.746 527.303 185.754C527.561 186.457 527.689 187.535 527.689 188.988V195.861C527.689 196.881 527.771 197.572 527.936 197.936C528.064 198.229 528.27 198.457 528.551 198.621C528.844 198.785 529.377 198.867 530.15 198.867V199.5H522.188V198.867H522.521C523.271 198.867 523.793 198.756 524.086 198.533C524.391 198.299 524.602 197.959 524.719 197.514C524.766 197.338 524.789 196.787 524.789 195.861V189.27C524.789 187.805 524.596 186.744 524.209 186.088C523.834 185.42 523.195 185.086 522.293 185.086C520.898 185.086 519.51 185.848 518.127 187.371V195.861C518.127 196.951 518.191 197.625 518.32 197.883C518.484 198.223 518.707 198.475 518.988 198.639C519.281 198.791 519.867 198.867 520.746 198.867V199.5H512.783V198.867H513.135C513.955 198.867 514.506 198.662 514.787 198.252C515.08 197.83 515.227 197.033 515.227 195.861V189.885C515.227 187.951 515.18 186.773 515.086 186.352C515.004 185.93 514.869 185.643 514.682 185.49C514.506 185.338 514.266 185.262 513.961 185.262C513.633 185.262 513.24 185.35 512.783 185.525L512.52 184.893L517.371 182.924H518.127V186.334ZM539.309 182.924C541.746 182.924 543.703 183.85 545.18 185.701C546.434 187.283 547.061 189.1 547.061 191.15C547.061 192.592 546.715 194.051 546.023 195.527C545.332 197.004 544.377 198.117 543.158 198.867C541.951 199.617 540.604 199.992 539.115 199.992C536.689 199.992 534.762 199.025 533.332 197.092C532.125 195.463 531.521 193.635 531.521 191.607C531.521 190.131 531.885 188.666 532.611 187.213C533.35 185.748 534.316 184.67 535.512 183.979C536.707 183.275 537.973 182.924 539.309 182.924ZM538.764 184.066C538.143 184.066 537.516 184.254 536.883 184.629C536.262 184.992 535.758 185.637 535.371 186.562C534.984 187.488 534.791 188.678 534.791 190.131C534.791 192.475 535.254 194.496 536.18 196.195C537.117 197.895 538.348 198.744 539.871 198.744C541.008 198.744 541.945 198.275 542.684 197.338C543.422 196.4 543.791 194.789 543.791 192.504C543.791 189.645 543.176 187.395 541.945 185.754C541.113 184.629 540.053 184.066 538.764 184.066ZM553.74 193.629C552.756 193.148 552 192.48 551.473 191.625C550.945 190.758 550.682 189.803 550.682 188.76C550.682 187.166 551.279 185.795 552.475 184.646C553.682 183.498 555.223 182.924 557.098 182.924C558.633 182.924 559.963 183.299 561.088 184.049H564.498C565.002 184.049 565.295 184.066 565.377 184.102C565.459 184.125 565.518 184.172 565.553 184.242C565.623 184.348 565.658 184.535 565.658 184.805C565.658 185.109 565.629 185.32 565.57 185.438C565.535 185.496 565.471 185.543 565.377 185.578C565.295 185.613 565.002 185.631 564.498 185.631H562.406C563.062 186.475 563.391 187.553 563.391 188.865C563.391 190.365 562.816 191.648 561.668 192.715C560.52 193.781 558.979 194.314 557.045 194.314C556.248 194.314 555.434 194.197 554.602 193.963C554.086 194.408 553.734 194.801 553.547 195.141C553.371 195.469 553.283 195.75 553.283 195.984C553.283 196.184 553.377 196.377 553.564 196.564C553.764 196.752 554.145 196.887 554.707 196.969C555.035 197.016 555.855 197.057 557.168 197.092C559.582 197.15 561.146 197.232 561.861 197.338C562.951 197.49 563.818 197.895 564.463 198.551C565.119 199.207 565.447 200.016 565.447 200.977C565.447 202.301 564.826 203.543 563.584 204.703C561.756 206.414 559.371 207.27 556.43 207.27C554.168 207.27 552.258 206.76 550.699 205.74C549.82 205.154 549.381 204.545 549.381 203.912C549.381 203.631 549.445 203.35 549.574 203.068C549.773 202.635 550.184 202.031 550.805 201.258C550.887 201.152 551.484 200.52 552.598 199.359C551.988 198.996 551.555 198.674 551.297 198.393C551.051 198.1 550.928 197.771 550.928 197.408C550.928 196.998 551.092 196.518 551.42 195.967C551.76 195.416 552.533 194.637 553.74 193.629ZM556.799 183.768C555.932 183.768 555.205 184.113 554.619 184.805C554.033 185.496 553.74 186.557 553.74 187.986C553.74 189.838 554.139 191.273 554.936 192.293C555.545 193.066 556.318 193.453 557.256 193.453C558.146 193.453 558.879 193.119 559.453 192.451C560.027 191.783 560.314 190.734 560.314 189.305C560.314 187.441 559.91 185.982 559.102 184.928C558.504 184.154 557.736 183.768 556.799 183.768ZM553.564 199.5C553.014 200.098 552.598 200.654 552.316 201.17C552.035 201.686 551.895 202.16 551.895 202.594C551.895 203.156 552.234 203.648 552.914 204.07C554.086 204.797 555.779 205.16 557.994 205.16C560.104 205.16 561.656 204.785 562.652 204.035C563.66 203.297 564.164 202.506 564.164 201.662C564.164 201.053 563.865 200.619 563.268 200.361C562.658 200.104 561.451 199.951 559.646 199.904C557.01 199.834 554.982 199.699 553.564 199.5ZM572.127 186.334C574.014 184.061 575.812 182.924 577.523 182.924C578.402 182.924 579.158 183.146 579.791 183.592C580.424 184.025 580.928 184.746 581.303 185.754C581.561 186.457 581.689 187.535 581.689 188.988V195.861C581.689 196.881 581.771 197.572 581.936 197.936C582.064 198.229 582.27 198.457 582.551 198.621C582.844 198.785 583.377 198.867 584.15 198.867V199.5H576.188V198.867H576.521C577.271 198.867 577.793 198.756 578.086 198.533C578.391 198.299 578.602 197.959 578.719 197.514C578.766 197.338 578.789 196.787 578.789 195.861V189.27C578.789 187.805 578.596 186.744 578.209 186.088C577.834 185.42 577.195 185.086 576.293 185.086C574.898 185.086 573.51 185.848 572.127 187.371V195.861C572.127 196.951 572.191 197.625 572.32 197.883C572.484 198.223 572.707 198.475 572.988 198.639C573.281 198.791 573.867 198.867 574.746 198.867V199.5H566.783V198.867H567.135C567.955 198.867 568.506 198.662 568.787 198.252C569.08 197.83 569.227 197.033 569.227 195.861V189.885C569.227 187.951 569.18 186.773 569.086 186.352C569.004 185.93 568.869 185.643 568.682 185.49C568.506 185.338 568.266 185.262 567.961 185.262C567.633 185.262 567.24 185.35 566.783 185.525L566.52 184.893L571.371 182.924H572.127V186.334ZM594.557 197.18C592.904 198.457 591.867 199.195 591.445 199.395C590.812 199.688 590.139 199.834 589.424 199.834C588.311 199.834 587.391 199.453 586.664 198.691C585.949 197.93 585.592 196.928 585.592 195.686C585.592 194.9 585.768 194.221 586.119 193.646C586.6 192.85 587.432 192.1 588.615 191.396C589.811 190.693 591.791 189.838 594.557 188.83V188.197C594.557 186.592 594.299 185.49 593.783 184.893C593.279 184.295 592.541 183.996 591.568 183.996C590.83 183.996 590.244 184.195 589.811 184.594C589.365 184.992 589.143 185.449 589.143 185.965L589.178 186.984C589.178 187.523 589.037 187.939 588.756 188.232C588.486 188.525 588.129 188.672 587.684 188.672C587.25 188.672 586.893 188.52 586.611 188.215C586.342 187.91 586.207 187.494 586.207 186.967C586.207 185.959 586.723 185.033 587.754 184.189C588.785 183.346 590.232 182.924 592.096 182.924C593.525 182.924 594.697 183.164 595.611 183.645C596.303 184.008 596.812 184.576 597.141 185.35C597.352 185.854 597.457 186.885 597.457 188.443V193.91C597.457 195.445 597.486 196.389 597.545 196.74C597.604 197.08 597.697 197.309 597.826 197.426C597.967 197.543 598.125 197.602 598.301 197.602C598.488 197.602 598.652 197.561 598.793 197.479C599.039 197.326 599.514 196.898 600.217 196.195V197.18C598.904 198.938 597.65 199.816 596.455 199.816C595.881 199.816 595.424 199.617 595.084 199.219C594.744 198.82 594.568 198.141 594.557 197.18ZM594.557 196.037V189.902C592.787 190.605 591.645 191.104 591.129 191.396C590.203 191.912 589.541 192.451 589.143 193.014C588.744 193.576 588.545 194.191 588.545 194.859C588.545 195.703 588.797 196.406 589.301 196.969C589.805 197.52 590.385 197.795 591.041 197.795C591.932 197.795 593.104 197.209 594.557 196.037ZM625.934 187.336C627.586 187.688 628.822 188.25 629.643 189.023C630.779 190.102 631.348 191.42 631.348 192.979C631.348 194.162 630.973 195.299 630.223 196.389C629.473 197.467 628.441 198.258 627.129 198.762C625.828 199.254 623.836 199.5 621.152 199.5H609.902V198.85H610.799C611.795 198.85 612.51 198.533 612.943 197.9C613.213 197.49 613.348 196.617 613.348 195.281V179.883C613.348 178.406 613.178 177.475 612.838 177.088C612.381 176.572 611.701 176.314 610.799 176.314H609.902V175.664H620.203C622.125 175.664 623.666 175.805 624.826 176.086C626.584 176.508 627.926 177.258 628.852 178.336C629.777 179.402 630.24 180.633 630.24 182.027C630.24 183.223 629.877 184.295 629.15 185.244C628.424 186.182 627.352 186.879 625.934 187.336ZM616.723 186.387C617.156 186.469 617.648 186.533 618.199 186.58C618.762 186.615 619.377 186.633 620.045 186.633C621.756 186.633 623.039 186.451 623.895 186.088C624.762 185.713 625.424 185.145 625.881 184.383C626.338 183.621 626.566 182.789 626.566 181.887C626.566 180.492 625.998 179.303 624.861 178.318C623.725 177.334 622.066 176.842 619.887 176.842C618.715 176.842 617.66 176.971 616.723 177.229V186.387ZM616.723 197.777C618.082 198.094 619.424 198.252 620.748 198.252C622.869 198.252 624.486 197.777 625.6 196.828C626.713 195.867 627.27 194.684 627.27 193.277C627.27 192.352 627.018 191.461 626.514 190.605C626.01 189.75 625.189 189.076 624.053 188.584C622.916 188.092 621.51 187.846 619.834 187.846C619.107 187.846 618.486 187.857 617.971 187.881C617.455 187.904 617.039 187.945 616.723 188.004V197.777ZM637.148 189.463C637.137 191.854 637.717 193.729 638.889 195.088C640.061 196.447 641.438 197.127 643.02 197.127C644.074 197.127 644.988 196.84 645.762 196.266C646.547 195.68 647.203 194.684 647.73 193.277L648.275 193.629C648.029 195.234 647.314 196.699 646.131 198.023C644.947 199.336 643.465 199.992 641.684 199.992C639.75 199.992 638.092 199.242 636.709 197.742C635.338 196.23 634.652 194.203 634.652 191.66C634.652 188.906 635.355 186.762 636.762 185.227C638.18 183.68 639.955 182.906 642.088 182.906C643.893 182.906 645.375 183.504 646.535 184.699C647.695 185.883 648.275 187.471 648.275 189.463H637.148ZM637.148 188.443H644.602C644.543 187.412 644.42 186.686 644.232 186.264C643.939 185.607 643.5 185.092 642.914 184.717C642.34 184.342 641.736 184.154 641.104 184.154C640.131 184.154 639.258 184.535 638.484 185.297C637.723 186.047 637.277 187.096 637.148 188.443ZM661.811 197.689C661.025 198.51 660.258 199.102 659.508 199.465C658.758 199.816 657.949 199.992 657.082 199.992C655.324 199.992 653.789 199.26 652.477 197.795C651.164 196.318 650.508 194.426 650.508 192.117C650.508 189.809 651.234 187.699 652.688 185.789C654.141 183.867 656.01 182.906 658.295 182.906C659.713 182.906 660.885 183.357 661.811 184.26V181.289C661.811 179.449 661.764 178.318 661.67 177.896C661.588 177.475 661.453 177.188 661.266 177.035C661.078 176.883 660.844 176.807 660.562 176.807C660.258 176.807 659.854 176.9 659.35 177.088L659.121 176.473L663.92 174.504H664.711V193.119C664.711 195.006 664.752 196.16 664.834 196.582C664.928 196.992 665.068 197.279 665.256 197.443C665.455 197.607 665.684 197.689 665.941 197.689C666.258 197.689 666.68 197.59 667.207 197.391L667.4 198.006L662.619 199.992H661.811V197.689ZM661.811 196.459V188.162C661.74 187.365 661.529 186.639 661.178 185.982C660.826 185.326 660.357 184.834 659.771 184.506C659.197 184.166 658.635 183.996 658.084 183.996C657.053 183.996 656.133 184.459 655.324 185.385C654.258 186.604 653.725 188.385 653.725 190.729C653.725 193.096 654.24 194.912 655.271 196.178C656.303 197.432 657.451 198.059 658.717 198.059C659.783 198.059 660.814 197.525 661.811 196.459ZM673.166 174.504V186.281C674.467 184.852 675.498 183.938 676.26 183.539C677.021 183.129 677.783 182.924 678.545 182.924C679.459 182.924 680.244 183.176 680.9 183.68C681.557 184.184 682.043 184.975 682.359 186.053C682.582 186.803 682.693 188.174 682.693 190.166V195.861C682.693 196.881 682.775 197.578 682.939 197.953C683.057 198.234 683.256 198.457 683.537 198.621C683.818 198.785 684.334 198.867 685.084 198.867V199.5H677.174V198.867H677.543C678.293 198.867 678.814 198.756 679.107 198.533C679.4 198.299 679.605 197.959 679.723 197.514C679.758 197.326 679.775 196.775 679.775 195.861V190.166C679.775 188.408 679.682 187.254 679.494 186.703C679.318 186.152 679.031 185.742 678.633 185.473C678.234 185.191 677.754 185.051 677.191 185.051C676.617 185.051 676.02 185.203 675.398 185.508C674.777 185.812 674.033 186.428 673.166 187.354V195.861C673.166 196.963 673.225 197.648 673.342 197.918C673.471 198.188 673.699 198.416 674.027 198.604C674.367 198.779 674.947 198.867 675.768 198.867V199.5H667.787V198.867C668.502 198.867 669.064 198.756 669.475 198.533C669.709 198.416 669.896 198.193 670.037 197.865C670.178 197.537 670.248 196.869 670.248 195.861V181.289C670.248 179.449 670.201 178.318 670.107 177.896C670.025 177.475 669.891 177.188 669.703 177.035C669.527 176.883 669.287 176.807 668.982 176.807C668.736 176.807 668.338 176.9 667.787 177.088L667.541 176.473L672.357 174.504H673.166ZM700.553 183.398V193.154C700.553 195.018 700.594 196.16 700.676 196.582C700.77 196.992 700.91 197.279 701.098 197.443C701.297 197.607 701.525 197.689 701.783 197.689C702.146 197.689 702.557 197.59 703.014 197.391L703.26 198.006L698.443 199.992H697.652V196.582C696.27 198.082 695.215 199.025 694.488 199.412C693.762 199.799 692.994 199.992 692.186 199.992C691.283 199.992 690.498 199.734 689.83 199.219C689.174 198.691 688.717 198.018 688.459 197.197C688.201 196.377 688.072 195.217 688.072 193.717V186.527C688.072 185.766 687.99 185.238 687.826 184.945C687.662 184.652 687.416 184.43 687.088 184.277C686.771 184.113 686.191 184.037 685.348 184.049V183.398H690.99V194.174C690.99 195.674 691.248 196.658 691.764 197.127C692.291 197.596 692.924 197.83 693.662 197.83C694.166 197.83 694.734 197.672 695.367 197.355C696.012 197.039 696.773 196.436 697.652 195.545V186.422C697.652 185.508 697.482 184.893 697.143 184.576C696.814 184.248 696.123 184.072 695.068 184.049V183.398H700.553Z" fill="black"/>
</svg>
