<svg width="1005" height="112" viewBox="0 0 1005 112" fill="none" xmlns="http://www.w3.org/2000/svg">
<path d="M18.1191 53.6828H47.6917V23.7131C47.6917 18.3577 47.4883 14.8303 47.0815 13.131C46.7686 11.8437 46.1114 10.7366 45.11 9.80966C43.7644 8.57379 42.3405 7.95586 40.8384 7.95586H38.5852V5.09793H65.8108V7.95586H63.5577C62.0556 7.95586 60.6317 8.54805 59.2861 9.73241C58.2847 10.5563 57.5962 11.8179 57.2207 13.5172C56.8765 15.1651 56.7043 18.5637 56.7043 23.7131V91.2993C56.7043 96.6032 56.9078 100.105 57.3146 101.804C57.6275 103.091 58.269 104.199 59.2391 105.126C60.6161 106.361 62.0556 106.979 63.5577 106.979H65.8108V109.837H38.5852V106.979H40.8384C43.4358 106.979 45.3291 105.718 46.5182 103.194C47.3006 101.547 47.6917 97.5816 47.6917 91.2993V59.3986H18.1191V91.2993C18.1191 96.6032 18.3225 100.105 18.7293 101.804C19.0423 103.091 19.6994 104.199 20.7008 105.126C22.0465 106.361 23.4703 106.979 24.9724 106.979H27.2725V109.837H0V106.979H2.25315C4.88183 106.979 6.79075 105.718 7.97992 103.194C8.73097 101.547 9.10649 97.5816 9.10649 91.2993V23.7131C9.10649 18.3577 8.90308 14.8303 8.49626 13.131C8.18333 11.8437 7.5418 10.7366 6.5717 9.80966C5.19477 8.57379 3.75525 7.95586 2.25315 7.95586H0V5.09793H27.2725V7.95586H24.9724C23.4703 7.95586 22.0465 8.54805 20.7008 9.73241C19.7307 10.5563 19.0579 11.8179 18.6824 13.5172C18.3069 15.1651 18.1191 18.5637 18.1191 23.7131V53.6828Z" fill="#B01616"/>
<path d="M91.8629 36.9986C98.372 36.9986 103.598 41.0667 107.541 49.2028C110.89 56.1545 112.564 64.1361 112.564 73.1476C112.564 79.4814 111.641 85.8924 109.794 92.3807C107.948 98.869 105.397 103.761 102.143 107.057C98.9197 110.352 95.3209 112 91.3466 112C84.8688 112 79.7209 107.752 75.9031 99.2552C72.6798 92.0975 71.0682 84.0644 71.0682 75.1559C71.0682 68.6676 72.0383 62.2308 73.9785 55.8455C75.95 49.4087 78.5318 44.6713 81.7237 41.6331C84.9157 38.5434 88.2954 36.9986 91.8629 36.9986ZM90.4077 42.0193C88.7492 42.0193 87.075 42.8432 85.3851 44.491C83.7265 46.0874 82.3809 48.9195 81.3482 52.9876C80.3155 57.0556 79.7992 62.2823 79.7992 68.6676C79.7992 78.9664 81.0353 87.8492 83.5075 95.3159C86.011 102.783 89.2968 106.516 93.365 106.516C96.4005 106.516 98.904 104.456 100.876 100.337C102.847 96.217 103.833 89.1365 103.833 79.0952C103.833 66.5306 102.19 56.6437 98.904 49.4345C96.6822 44.491 93.8501 42.0193 90.4077 42.0193Z" fill="#B01616"/>
<path d="M116.507 39.0841H134.532V41.9421C132.873 42.148 131.778 42.6372 131.246 43.4097C130.745 44.1821 130.495 45.2892 130.495 46.731C130.495 48.3274 130.761 50.2584 131.293 52.5241L140.493 93.2303L149.741 60.0938L147.3 49.6662C146.549 46.5766 145.563 44.4395 144.343 43.2552C143.654 42.5343 142.371 42.0966 140.493 41.9421V39.0841H160.96V41.9421C158.706 42.0966 157.11 42.766 156.172 43.9503C155.546 44.7743 155.233 46.0874 155.233 47.8897C155.233 48.9195 155.358 49.9752 155.608 51.0566L165.372 91.6855L174.432 52.5241C175.057 49.7434 175.37 47.5292 175.37 45.8814C175.37 44.903 175.057 44.0276 174.432 43.2552C173.837 42.4828 172.648 42.0451 170.864 41.9421V39.0841H184.43V41.9421C181.707 42.6115 179.705 45.6497 178.422 51.0566L164.058 112H162.133L151.384 66.8138L138.851 112H137.114L123.313 52.5241C122.406 48.7651 121.514 46.2418 120.638 44.9545C119.761 43.6156 118.384 42.6115 116.507 41.9421V39.0841Z" fill="#B01616"/>
<path d="M263.243 5.09793L263.947 29.6607H262.164C261.819 25.3352 261.35 22.2455 260.755 20.3917C259.785 17.4051 258.487 15.2166 256.859 13.8262C255.263 12.3844 253.151 11.6634 250.522 11.6634H241.557V91.6855C241.557 98.1223 241.979 102.139 242.824 103.735C244.013 105.898 245.844 106.979 248.316 106.979H250.522V109.837H223.532V106.979H225.785C228.476 106.979 230.385 105.64 231.511 102.963C232.2 101.315 232.544 97.5559 232.544 91.6855V11.6634H224.893C221.92 11.6634 219.808 12.0239 218.556 12.7448C216.929 13.7232 215.536 15.6028 214.378 18.3834C213.22 21.1641 212.532 24.9232 212.313 29.6607H210.529L211.28 5.09793H263.243Z" fill="#B01616"/>
<path d="M283.663 36.9986C290.172 36.9986 295.398 41.0667 299.341 49.2028C302.689 56.1545 304.363 64.1361 304.363 73.1476C304.363 79.4814 303.44 85.8924 301.594 92.3807C299.748 98.869 297.197 103.761 293.943 107.057C290.719 110.352 287.12 112 283.146 112C276.668 112 271.521 107.752 267.703 99.2552C264.479 92.0975 262.868 84.0644 262.868 75.1559C262.868 68.6676 263.838 62.2308 265.778 55.8455C267.75 49.4087 270.331 44.6713 273.523 41.6331C276.715 38.5434 280.095 36.9986 283.663 36.9986ZM282.207 42.0193C280.549 42.0193 278.875 42.8432 277.185 44.491C275.526 46.0874 274.181 48.9195 273.148 52.9876C272.115 57.0556 271.599 62.2823 271.599 68.6676C271.599 78.9664 272.835 87.8492 275.307 95.3159C277.811 102.783 281.096 106.516 285.165 106.516C288.2 106.516 290.704 104.456 292.675 100.337C294.647 96.217 295.632 89.1365 295.632 79.0952C295.632 66.5306 293.989 56.6437 290.704 49.4345C288.482 44.491 285.65 42.0193 282.207 42.0193Z" fill="#B01616"/>
<path d="M396.696 109.837H379.703L358.157 60.8662C356.561 60.9692 355.263 61.0207 354.261 61.0207C353.855 61.0207 353.416 61.0207 352.947 61.0207C352.478 60.9692 351.993 60.9177 351.492 60.8662V91.2993C351.492 97.8906 351.93 101.984 352.806 103.581C353.995 105.846 355.779 106.979 358.157 106.979H360.645V109.837H333.373V106.979H335.767C338.458 106.979 340.383 105.537 341.54 102.654C342.198 101.057 342.526 97.2726 342.526 91.2993V23.6359C342.526 17.0446 342.088 12.9508 341.212 11.3545C339.991 9.08874 338.176 7.95586 335.767 7.95586H333.373V5.09793H356.561C363.321 5.09793 368.297 5.92184 371.489 7.56966C374.712 9.16598 377.434 12.1526 379.656 16.5297C381.909 20.8552 383.036 26.0303 383.036 32.0552C383.036 38.492 381.753 44.0791 379.187 48.8166C376.652 53.554 372.709 56.9012 367.358 58.8579L380.501 88.9048C383.505 95.8051 386.087 100.388 388.246 102.654C390.406 104.92 393.222 106.361 396.696 106.979V109.837ZM351.492 56C352.086 56 352.603 56.0257 353.041 56.0772C353.479 56.0772 353.839 56.0772 354.12 56.0772C360.191 56.0772 364.76 53.9145 367.827 49.589C370.925 45.2634 372.474 39.7536 372.474 33.0593C372.474 26.5195 371.223 21.2156 368.719 17.1476C366.247 13.028 362.961 10.9683 358.862 10.9683C357.046 10.9683 354.59 11.4575 351.492 12.4359V56Z" fill="#B01616"/>
<path d="M436.548 39.0841V81.9531C436.548 90.1407 436.658 95.1614 436.877 97.0152C437.127 98.8175 437.503 100.079 438.003 100.8C438.535 101.521 439.146 101.881 439.834 101.881C440.804 101.881 441.9 101.444 443.12 100.568L443.777 103.272L430.915 112H428.803V97.0152C425.11 103.606 422.294 107.752 420.354 109.451C418.414 111.15 416.364 112 414.205 112C411.795 112 409.698 110.867 407.914 108.601C406.162 106.284 404.942 103.323 404.253 99.7186C403.565 96.114 403.22 91.0161 403.22 84.4248V52.8331C403.22 49.486 403.001 47.1687 402.563 45.8814C402.125 44.594 401.468 43.6156 400.592 42.9462C399.747 42.2253 398.198 41.8906 395.945 41.9421V39.0841H411.013V86.4331C411.013 93.0244 411.701 97.3499 413.078 99.4097C414.486 101.469 416.176 102.499 418.148 102.499C419.493 102.499 421.011 101.804 422.701 100.414C424.422 99.0235 426.456 96.3715 428.803 92.4579V52.3697C428.803 48.3531 428.349 45.6497 427.442 44.2593C426.566 42.8175 424.719 42.0451 421.903 41.9421V39.0841H436.548Z" fill="#B01616"/>
<path d="M457.859 0C459.174 0 460.285 0.772414 461.192 2.31724C462.131 3.81057 462.6 5.63862 462.6 7.80138C462.6 9.96414 462.131 11.8179 461.192 13.3628C460.285 14.9076 459.174 15.68 457.859 15.68C456.545 15.68 455.418 14.9076 454.48 13.3628C453.541 11.8179 453.071 9.96414 453.071 7.80138C453.071 5.63862 453.525 3.81057 454.433 2.31724C455.372 0.772414 456.514 0 457.859 0ZM461.755 36.9986V93.8483C461.755 98.2768 461.943 101.238 462.319 102.731C462.726 104.173 463.305 105.254 464.056 105.975C464.838 106.696 466.246 107.057 468.28 107.057V109.837H447.392V107.057C449.488 107.057 450.897 106.722 451.616 106.052C452.336 105.383 452.899 104.276 453.306 102.731C453.744 101.186 453.963 98.2253 453.963 93.8483V66.5821C453.963 58.9094 453.823 53.9402 453.541 51.6745C453.322 50.0267 452.978 48.8938 452.508 48.2759C452.039 47.6064 451.397 47.2717 450.584 47.2717C449.707 47.2717 448.643 47.6579 447.392 48.4303L446.734 45.6497L459.69 36.9986H461.755Z" fill="#B01616"/>
<path d="M486.212 51.9834C491.25 41.9936 496.053 36.9986 500.622 36.9986C502.969 36.9986 504.988 37.977 506.678 39.9338C508.368 41.8391 509.713 45.006 510.715 49.4345C511.403 52.5241 511.747 57.2616 511.747 63.6469V93.8483C511.747 98.3283 511.966 101.366 512.404 102.963C512.749 104.25 513.296 105.254 514.047 105.975C514.83 106.696 516.254 107.057 518.319 107.057V109.837H497.055V107.057H497.947C499.95 107.057 501.342 106.567 502.124 105.589C502.938 104.559 503.501 103.066 503.814 101.109C503.94 100.337 504.002 97.9163 504.002 93.8483V64.8828C504.002 58.446 503.486 53.7857 502.453 50.9021C501.452 47.9669 499.746 46.4993 497.336 46.4993C493.613 46.4993 489.904 49.8464 486.212 56.5407V93.8483C486.212 98.6372 486.384 101.598 486.728 102.731C487.166 104.224 487.761 105.331 488.512 106.052C489.294 106.722 490.859 107.057 493.206 107.057V109.837H471.942V107.057H472.88C475.071 107.057 476.542 106.155 477.293 104.353C478.075 102.499 478.466 98.9977 478.466 93.8483V67.5862C478.466 59.0897 478.341 53.9145 478.091 52.0607C477.872 50.2069 477.512 48.9453 477.011 48.2759C476.542 47.6064 475.9 47.2717 475.087 47.2717C474.21 47.2717 473.162 47.6579 471.942 48.4303L471.237 45.6497L484.193 36.9986H486.212V51.9834Z" fill="#B01616"/>
<path d="M581.407 74.7697H556.763L552.445 91.2993C551.381 95.3674 550.849 98.4055 550.849 100.414C550.849 102.01 551.303 103.426 552.21 104.662C553.149 105.846 555.152 106.619 558.219 106.979V109.837H538.175V106.979C540.835 106.207 542.556 105.203 543.338 103.967C544.934 101.495 546.702 96.4745 548.643 88.9048L571.033 2.70345H572.676L594.832 89.8317C596.616 96.8349 598.228 101.392 599.667 103.503C601.138 105.563 603.172 106.722 605.769 106.979V109.837H580.656V106.979C583.191 106.773 584.897 106.078 585.773 104.894C586.68 103.709 587.134 102.268 587.134 100.568C587.134 98.3025 586.508 94.7237 585.256 89.8317L581.407 74.7697ZM580.093 69.0538L569.297 26.7255L558.219 69.0538H580.093Z" fill="#B01616"/>
<path d="M645.247 10.8138V51.9834H656.841C659.501 51.9834 661.441 51.0308 662.662 49.1255C663.913 47.1687 664.743 43.3324 665.149 37.6166H666.886V73.0704H665.149C665.118 69.0023 664.79 66.0156 664.164 64.1103C663.569 62.2051 662.724 60.789 661.629 59.8621C660.565 58.8837 658.969 58.3945 656.841 58.3945H645.247V91.2993C645.247 96.6032 645.45 100.105 645.857 101.804C646.17 103.091 646.827 104.199 647.828 105.126C649.205 106.361 650.645 106.979 652.147 106.979H654.447V109.837H627.128V106.979H629.381C632.009 106.979 633.918 105.718 635.107 103.194C635.858 101.547 636.234 97.5816 636.234 91.2993V23.6359C636.234 18.332 636.031 14.8303 635.624 13.131C635.311 11.8437 634.669 10.7366 633.699 9.80966C632.354 8.57379 630.914 7.95586 629.381 7.95586H627.128V5.09793H674.491L675.101 28.1159H673.458C672.644 23.2239 671.69 19.6451 670.595 17.3793C669.531 15.0621 668.201 13.3885 666.605 12.3586C665.04 11.3287 662.599 10.8138 659.282 10.8138H645.247Z" fill="#B01616"/>
<path d="M693.032 0C694.347 0 695.457 0.772414 696.365 2.31724C697.304 3.81057 697.773 5.63862 697.773 7.80138C697.773 9.96414 697.304 11.8179 696.365 13.3628C695.457 14.9076 694.347 15.68 693.032 15.68C691.718 15.68 690.591 14.9076 689.653 13.3628C688.714 11.8179 688.244 9.96414 688.244 7.80138C688.244 5.63862 688.698 3.81057 689.606 2.31724C690.544 0.772414 691.687 0 693.032 0ZM696.928 36.9986V93.8483C696.928 98.2768 697.116 101.238 697.492 102.731C697.898 104.173 698.477 105.254 699.228 105.975C700.011 106.696 701.419 107.057 703.453 107.057V109.837H682.564V107.057C684.661 107.057 686.069 106.722 686.789 106.052C687.509 105.383 688.072 104.276 688.479 102.731C688.917 101.186 689.136 98.2253 689.136 93.8483V66.5821C689.136 58.9094 688.995 53.9402 688.714 51.6745C688.495 50.0267 688.15 48.8938 687.681 48.2759C687.212 47.6064 686.57 47.2717 685.756 47.2717C684.88 47.2717 683.816 47.6579 682.564 48.4303L681.907 45.6497L694.863 36.9986H696.928Z" fill="#B01616"/>
<path d="M721.431 36.9986V52.9103C725.03 42.3025 728.723 36.9986 732.509 36.9986C734.23 36.9986 735.654 37.874 736.781 39.6248C737.907 41.3241 738.471 43.3067 738.471 45.5724C738.471 47.5807 738.064 49.28 737.25 50.6703C736.437 52.0607 735.467 52.7559 734.34 52.7559C733.245 52.7559 732.009 51.8805 730.632 50.1297C729.286 48.3274 728.285 47.4262 727.628 47.4262C727.064 47.4262 726.454 47.9411 725.797 48.971C724.389 51.0823 722.933 54.5582 721.431 59.3986V93.3076C721.431 97.2212 721.729 100.182 722.323 102.19C722.73 103.581 723.45 104.739 724.482 105.666C725.515 106.593 727.002 107.057 728.942 107.057V109.837H706.927V107.057C709.117 107.057 710.744 106.49 711.808 105.357C712.591 104.533 713.138 103.22 713.451 101.418C713.608 100.543 713.686 98.0451 713.686 93.9255V66.5048C713.686 58.2657 713.577 53.3738 713.357 51.829C713.17 50.2326 712.794 49.074 712.231 48.3531C711.699 47.6322 711.026 47.2717 710.212 47.2717C709.242 47.2717 708.147 47.6579 706.927 48.4303L706.457 45.6497L719.46 36.9986H721.431Z" fill="#B01616"/>
<path d="M768.654 36.9986V61.0979H767.105C765.915 53.5283 764.382 48.3789 762.504 45.6497C760.658 42.9205 758.295 41.5559 755.416 41.5559C753.226 41.5559 751.458 42.5085 750.112 44.4138C748.766 46.3191 748.094 48.4303 748.094 50.7476C748.094 53.6313 748.594 56.103 749.596 58.1628C750.566 60.274 752.537 62.514 755.51 64.8828L762.364 70.3669C768.716 75.4648 771.893 82.1848 771.893 90.5269C771.893 96.9637 770.406 102.165 767.433 106.13C764.492 110.043 761.19 112 757.529 112C754.9 112 751.896 111.228 748.516 109.683C747.483 109.168 746.638 108.91 745.981 108.91C745.262 108.91 744.698 109.58 744.291 110.919H742.742V85.6607H744.291C745.168 92.8699 746.842 98.3025 749.314 101.959C751.786 105.615 754.556 107.443 757.623 107.443C759.782 107.443 761.534 106.413 762.88 104.353C764.257 102.242 764.945 99.7186 764.945 96.7835C764.945 93.2304 764.179 90.2437 762.645 87.8234C761.143 85.4032 758.123 82.3393 753.586 78.6317C749.048 74.9241 746.075 71.577 744.667 68.5903C743.259 65.6552 742.555 61.9476 742.555 57.4676C742.555 51.6487 743.759 46.7825 746.169 42.869C748.61 38.9554 751.755 36.9986 755.604 36.9986C757.294 36.9986 759.344 37.5908 761.753 38.7752C763.349 39.5476 764.413 39.9338 764.945 39.9338C765.446 39.9338 765.837 39.7536 766.119 39.3931C766.4 39.0326 766.729 38.2345 767.105 36.9986H768.654Z" fill="#B01616"/>
<path d="M790.81 15.8345V39.0841H800.855V44.491H790.81V90.3724C790.81 94.9554 791.201 98.0451 791.983 99.6414C792.797 101.238 793.829 102.036 795.081 102.036C796.114 102.036 797.115 101.521 798.085 100.491C799.055 99.4097 799.807 97.8391 800.339 95.7793H802.169C801.074 100.826 799.525 104.636 797.522 107.211C795.519 109.734 793.454 110.996 791.326 110.996C789.886 110.996 788.478 110.352 787.101 109.065C785.724 107.726 784.707 105.846 784.05 103.426C783.393 100.954 783.064 97.1697 783.064 92.0717V44.491H776.258V41.9421C777.979 40.8092 779.732 38.9039 781.515 36.2262C783.33 33.497 784.942 30.2786 786.35 26.571C787.07 24.6143 788.071 21.0354 789.354 15.8345H790.81Z" fill="#B01616"/>
<path d="M827.752 109.837V106.979H830.146C832.837 106.979 834.746 105.563 835.873 102.731C836.561 101.032 836.905 97.2212 836.905 91.2993V23.6359C836.905 17.0961 836.467 13.0023 835.591 11.3545C834.371 9.08874 832.555 7.95586 830.146 7.95586H827.752V5.09793H853.663C863.177 5.09793 870.405 6.87448 875.35 10.4276C880.326 13.9807 884.315 19.9025 887.32 28.1931C890.355 36.4837 891.873 46.0616 891.873 56.9269C891.873 71.4998 889.182 83.6782 883.799 93.4621C877.759 104.379 868.559 109.837 856.198 109.837H827.752ZM845.918 102.268C849.892 103.709 853.225 104.43 855.916 104.43C863.176 104.43 869.201 100.234 873.989 91.84C878.776 83.4464 881.17 72.0662 881.17 57.6993C881.17 43.2294 878.776 31.8235 873.989 23.4814C869.201 15.1393 863.051 10.9683 855.541 10.9683C852.724 10.9683 849.517 11.7149 845.918 13.2083V102.268Z" fill="#B01616"/>
<path d="M922.948 99.6414C918.535 105.254 915.766 108.498 914.639 109.374C912.949 110.661 911.15 111.305 909.241 111.305C906.268 111.305 903.811 109.631 901.871 106.284C899.962 102.937 899.008 98.5343 899.008 93.0759C899.008 89.6257 899.477 86.6391 900.416 84.1159C901.699 80.6143 903.921 77.3186 907.082 74.229C910.274 71.1393 915.562 67.3802 922.948 62.9517V60.171C922.948 53.1163 922.259 48.2759 920.882 45.6497C919.537 43.0235 917.565 41.7103 914.968 41.7103C912.996 41.7103 911.432 42.5857 910.274 44.3366C909.085 46.0874 908.49 48.0956 908.49 50.3614L908.584 54.8414C908.584 57.2101 908.208 59.0382 907.457 60.3255C906.737 61.6129 905.783 62.2566 904.594 62.2566C903.436 62.2566 902.482 61.5871 901.73 60.2483C901.011 58.9094 900.651 57.0814 900.651 54.7641C900.651 50.3356 902.028 46.2676 904.782 42.56C907.535 38.8524 911.4 36.9986 916.376 36.9986C920.194 36.9986 923.323 38.0543 925.764 40.1655C927.61 41.7618 928.972 44.2593 929.848 47.6579C930.411 49.8722 930.693 54.4037 930.693 61.2524V85.2745C930.693 92.0202 930.771 96.1655 930.928 97.7103C931.084 99.2037 931.334 100.208 931.679 100.723C932.054 101.238 932.477 101.495 932.946 101.495C933.447 101.495 933.885 101.315 934.26 100.954C934.917 100.285 936.185 98.4055 938.063 95.3159V99.6414C934.558 107.366 931.209 111.228 928.017 111.228C926.484 111.228 925.263 110.352 924.356 108.601C923.448 106.851 922.979 103.864 922.948 99.6414ZM922.948 94.6207V67.6635C918.222 70.7531 915.171 72.9416 913.794 74.229C911.322 76.4947 909.554 78.8635 908.49 81.3352C907.426 83.8069 906.894 86.5103 906.894 89.4455C906.894 93.1531 907.567 96.2428 908.912 98.7145C910.258 101.135 911.807 102.345 913.56 102.345C915.938 102.345 919.067 99.7701 922.948 94.6207Z" fill="#B01616"/>
<path d="M953.788 15.8345V39.0841H963.833V44.491H953.788V90.3724C953.788 94.9554 954.179 98.0451 954.961 99.6414C955.775 101.238 956.808 102.036 958.059 102.036C959.092 102.036 960.093 101.521 961.063 100.491C962.034 99.4097 962.785 97.8391 963.317 95.7793H965.147C964.052 100.826 962.503 104.636 960.5 107.211C958.497 109.734 956.432 110.996 954.304 110.996C952.865 110.996 951.456 110.352 950.079 109.065C948.702 107.726 947.685 105.846 947.028 103.426C946.371 100.954 946.042 97.1697 946.042 92.0717V44.491H939.236V41.9421C940.957 40.8092 942.71 38.9039 944.493 36.2262C946.309 33.497 947.92 30.2786 949.328 26.571C950.048 24.6143 951.049 21.0354 952.333 15.8345H953.788Z" fill="#B01616"/>
<path d="M975.286 65.7324C975.255 76.2372 976.804 84.4763 979.934 90.4497C983.063 96.423 986.74 99.4097 990.965 99.4097C993.781 99.4097 996.222 98.1481 998.287 95.6248C1000.38 93.0501 1002.14 88.6731 1003.54 82.4938L1005 84.0386C1004.34 91.0933 1002.43 97.5301 999.273 103.349C996.113 109.116 992.154 112 987.397 112C982.234 112 977.806 108.704 974.113 102.113C970.452 95.4703 968.621 86.5618 968.621 75.3876C968.621 63.2864 970.499 53.863 974.254 47.1172C978.04 40.32 982.781 36.9214 988.477 36.9214C993.296 36.9214 997.255 39.5476 1000.35 44.8C1003.45 50.0009 1005 56.9784 1005 65.7324H975.286ZM975.286 61.2524H995.189C995.033 56.7209 994.704 53.5283 994.204 51.6745C993.421 48.7908 992.248 46.5251 990.683 44.8772C989.15 43.2294 987.538 42.4055 985.848 42.4055C983.251 42.4055 980.919 44.0791 978.854 47.4262C976.82 50.7218 975.631 55.3306 975.286 61.2524Z" fill="#B01616"/>
</svg>
