<svg width="211" height="124" viewBox="0 0 211 124" fill="none" xmlns="http://www.w3.org/2000/svg">
<g filter="url(#filter0_d_101_111)">
<path d="M46.7877 31.1947L10.4098 22.8985L30.2346 52.2966L7.80569 71.6187L42.0412 73.4486L29.5096 93.7883L70.4804 81.3205L65.1295 97.6466L101.505 87.3761L105.503 105.668L131.771 88.9938L172.851 111.711L161.409 83.7377L201.962 69.7817L172.138 59.8815L190.519 32.5255L160.776 39.7304L139.019 9.25183L92.2774 27.2744L61.7467 2.67859L46.7877 31.1947Z" fill="#91E8A3" fill-opacity="0.72" shape-rendering="crispEdges"/>
<path d="M46.7877 31.1947L10.4098 22.8985L30.2346 52.2966L7.80569 71.6187L42.0412 73.4486L29.5096 93.7883L70.4804 81.3205L65.1295 97.6466L101.505 87.3761L105.503 105.668L131.771 88.9938L172.851 111.711L161.409 83.7377L201.962 69.7817L172.138 59.8815L190.519 32.5255L160.776 39.7304L139.019 9.25183L92.2774 27.2744L61.7467 2.67859L46.7877 31.1947Z" stroke="black" stroke-width="3" shape-rendering="crispEdges"/>
</g>
<path d="M61.8382 58.9917L62.9502 48.7536L58.615 48.2827L58.8003 46.5764L69.1594 47.7016L68.974 49.4079L64.6551 48.9388L63.543 59.1768L61.8382 58.9917Z" fill="#B01616" fill-opacity="0.84"/>
<path d="M69.7702 59.8532L71.0861 47.7382L72.5799 47.9005L72.0554 52.7294C72.4175 52.3198 72.8557 52.0164 73.37 51.819C73.8842 51.6217 74.4391 51.5553 75.0344 51.62C75.738 51.6964 76.3371 51.9284 76.8317 52.3159C77.3383 52.6932 77.7044 53.2049 77.9299 53.8509C78.1567 54.4855 78.2256 55.2124 78.1366 56.0314L77.6288 60.7068L76.1188 60.5428L76.6025 56.0892C76.6977 55.2133 76.5715 54.509 76.2242 53.9764C75.878 53.4323 75.3477 53.1215 74.6333 53.0439C74.1462 52.991 73.6888 53.068 73.2611 53.2747C72.8455 53.4713 72.5006 53.7733 72.2263 54.1809C71.9641 54.5783 71.8046 55.0386 71.7477 55.5619L71.264 60.0155L69.7702 59.8532Z" fill="#B01616" fill-opacity="0.84"/>
<path d="M82.4008 61.415C81.5565 61.3233 80.9136 61.0406 80.4722 60.5668C80.0321 60.0816 79.8516 59.475 79.9306 58.7469C79.9912 58.1895 80.2048 57.7351 80.5716 57.3836C80.9504 57.0219 81.4594 56.7722 82.0986 56.6344C82.7391 56.4853 83.5117 56.4311 84.4163 56.4718C85.0707 56.4968 85.5454 56.4621 85.8404 56.3675C86.1367 56.2616 86.299 56.0778 86.3274 55.8162C86.3793 55.3384 86.2271 54.9248 85.8708 54.5753C85.5157 54.2144 85.0459 54.0023 84.4614 53.9388C83.8552 53.8729 83.334 53.9832 82.8976 54.2696C82.4733 54.5458 82.1756 54.9681 82.0043 55.5365L80.5917 55.3831C80.7487 54.7441 81.0204 54.2096 81.4066 53.7796C81.7928 53.3497 82.2647 53.0384 82.8223 52.8457C83.3799 52.6531 83.9888 52.5926 84.6491 52.6643C85.3419 52.7396 85.9326 52.9476 86.4213 53.2884C86.91 53.6293 87.2666 54.0766 87.4912 54.6304C87.7171 55.1729 87.7929 55.7854 87.7188 56.468L87.2981 60.3413L88.3697 60.4577L88.2177 61.8569L85.894 61.6218L86.0534 60.1544C85.6743 60.6196 85.1548 60.966 84.4948 61.1936C83.8349 61.4212 83.1369 61.495 82.4008 61.415ZM82.7959 60.1976C83.3588 60.2588 83.8871 60.1838 84.381 59.9727C84.8869 59.7514 85.3047 59.4342 85.6343 59.0212C85.964 58.6081 86.1572 58.1399 86.214 57.6166L86.2381 57.3948C86.1308 57.4752 85.9213 57.5388 85.6096 57.5855C85.2978 57.6322 84.9284 57.6554 84.5013 57.655C84.4688 57.6515 84.4357 57.6537 84.402 57.6615C84.3696 57.658 84.3371 57.6545 84.3046 57.6509C83.3434 57.6271 82.6333 57.7111 82.1744 57.903C81.7275 58.0846 81.4806 58.3916 81.4337 58.8239C81.3917 59.2106 81.4888 59.5262 81.7251 59.7706C81.9735 60.0047 82.3304 60.1471 82.7959 60.1976Z" fill="#B01616" fill-opacity="0.84"/>
<path d="M90.3199 62.0853L91.2466 53.5536L92.6267 53.7035L92.4766 55.0856C92.8436 54.6306 93.2963 54.2942 93.8347 54.0764C94.3731 53.8586 94.9562 53.7839 95.5841 53.8521C96.2877 53.9285 96.8867 54.1604 97.3813 54.5479C97.8879 54.9252 98.254 55.4369 98.4796 56.0829C98.7063 56.7176 98.7752 57.4444 98.6863 58.2635L98.1785 62.9389L96.6684 62.7748L97.1522 58.3213C97.2473 57.4454 97.1212 56.7411 96.7738 56.2084C96.4277 55.6644 95.8974 55.3536 95.183 55.276C94.6959 55.2231 94.2385 55.3 93.8108 55.5068C93.3952 55.7033 93.0502 56.0054 92.7759 56.413C92.5137 56.8104 92.3542 57.2707 92.2974 57.794L91.8136 62.2475L90.3199 62.0853Z" fill="#B01616" fill-opacity="0.84"/>
<path d="M101.039 63.2495L102.355 51.1345L103.848 51.2968L103.077 58.3951L104.441 58.5433L107.535 55.3227L109.321 55.5167L105.617 59.3616L108.459 64.0555L106.608 63.8544L104.266 60.009L102.918 59.8626L102.532 63.4118L101.039 63.2495Z" fill="#B01616" fill-opacity="0.84"/>
<path d="M117.736 65.0631L118.21 60.6949L114.195 52.5932L116.208 52.8119L119.298 59.0002L123.612 53.6161L125.544 53.826L119.899 60.8783L119.425 65.2465L117.736 65.0631Z" fill="#B01616" fill-opacity="0.84"/>
<path d="M127.6 66.3072C126.788 66.219 126.073 65.9456 125.454 65.4871C124.836 65.0287 124.369 64.4427 124.052 63.7292C123.747 63.0055 123.64 62.2284 123.73 61.398C123.82 60.5676 124.091 59.8374 124.543 59.2074C125.007 58.5672 125.59 58.0895 126.292 57.7745C127.005 57.4606 127.762 57.3472 128.563 57.4342C129.386 57.5235 130.106 57.7975 130.725 58.256C131.343 58.7144 131.805 59.3055 132.109 60.0292C132.426 60.7427 132.539 61.5147 132.449 62.3451C132.36 63.1641 132.084 63.8937 131.62 64.534C131.168 65.164 130.585 65.6416 129.871 65.9668C129.168 66.2819 128.411 66.3953 127.6 66.3072ZM127.755 64.8738C128.296 64.9326 128.798 64.8547 129.259 64.6401C129.721 64.4255 130.095 64.1036 130.383 63.6744C130.681 63.2465 130.861 62.7481 130.923 62.1793C130.985 61.6105 130.916 61.0851 130.716 60.603C130.528 60.1221 130.231 59.7274 129.826 59.4187C129.422 59.11 128.949 58.9263 128.408 58.8675C127.866 58.8087 127.365 58.8866 126.904 59.1012C126.442 59.3159 126.062 59.6372 125.764 60.0651C125.478 60.4829 125.303 60.9819 125.24 61.562C125.178 62.1308 125.247 62.6562 125.447 63.1383C125.646 63.6204 125.943 64.0152 126.337 64.3226C126.741 64.6313 127.214 64.815 127.755 64.8738Z" fill="#B01616" fill-opacity="0.84"/>
<path d="M137.473 67.3796C136.77 67.3032 136.165 67.0763 135.658 66.699C135.164 66.3115 134.803 65.8005 134.576 65.1658C134.351 64.5198 134.282 63.7872 134.371 62.9682L134.879 58.2928L136.389 58.4568L135.905 62.9104C135.81 63.7863 135.936 64.4963 136.282 65.0403C136.629 65.573 137.16 65.8781 137.875 65.9557C138.362 66.0086 138.813 65.9368 139.229 65.7402C139.656 65.5335 140.001 65.2314 140.263 64.834C140.538 64.4264 140.703 63.961 140.76 63.4377L141.244 58.9842L142.738 59.1464L141.811 67.6781L140.431 67.5282L140.581 66.1461C140.214 66.6011 139.761 66.9375 139.223 67.1553C138.684 67.373 138.101 67.4478 137.473 67.3796Z" fill="#B01616" fill-opacity="0.84"/>
<path d="M149.645 64.6963L150.255 56.51L152.09 56.7093L150.912 64.8338L149.645 64.6963ZM149.885 68.6932C149.581 68.6602 149.333 68.524 149.14 68.2843C148.959 68.0345 148.887 67.7446 148.923 67.4147C148.959 67.0848 149.096 66.8235 149.336 66.6309C149.576 66.4383 149.843 66.3579 150.135 66.3896C150.449 66.4237 150.697 66.56 150.879 66.7985C151.072 67.0381 151.151 67.3229 151.115 67.6528C151.079 67.9827 150.94 68.2496 150.699 68.4536C150.47 68.6474 150.198 68.7273 149.885 68.6932Z" fill="#B01616" fill-opacity="0.84"/>
<defs>
<filter id="filter0_d_101_111" x="0" y="0.365234" width="210.646" height="122.719" filterUnits="userSpaceOnUse" color-interpolation-filters="sRGB">
<feFlood flood-opacity="0" result="BackgroundImageFix"/>
<feColorMatrix in="SourceAlpha" type="matrix" values="0 0 0 0 0 0 0 0 0 0 0 0 0 0 0 0 0 0 127 0" result="hardAlpha"/>
<feOffset dy="4"/>
<feGaussianBlur stdDeviation="2"/>
<feComposite in2="hardAlpha" operator="out"/>
<feColorMatrix type="matrix" values="0 0 0 0 0 0 0 0 0 0 0 0 0 0 0 0 0 0 0.25 0"/>
<feBlend mode="normal" in2="BackgroundImageFix" result="effect1_dropShadow_101_111"/>
<feBlend mode="normal" in="SourceGraphic" in2="effect1_dropShadow_101_111" result="shape"/>
</filter>
</defs>
</svg>
