<svg width="231" height="55" viewBox="0 0 231 55" fill="none" xmlns="http://www.w3.org/2000/svg">
<path d="M0 54.2361L23.2193 0.763888H25.2052L48.4246 54.2361H46.7442L39.1063 36.6667H9.24191L1.60397 54.2361H0ZM9.85295 35.2153H38.4952L24.2123 2.21528L9.85295 35.2153Z" fill="white"/>
<path d="M77.2244 55C73.049 55 69.3827 53.8796 66.2257 51.6389C63.1196 49.3981 60.8792 46.419 59.5043 42.7014V54.2361H57.9768V0H59.5043V27.5764C60.8792 23.8588 63.1196 20.8796 66.2257 18.6389C69.3827 16.3981 73.049 15.2778 77.2244 15.2778C80.7378 15.2778 83.9458 16.169 86.8482 17.9514C89.7506 19.6829 92.0165 22.0764 93.6459 25.1319C95.3263 28.1366 96.1665 31.4722 96.1665 35.1389C96.1665 38.8056 95.3263 42.1667 93.6459 45.2222C92.0165 48.2269 89.7506 50.6204 86.8482 52.4028C83.9458 54.1343 80.7378 55 77.2244 55ZM77.0716 53.4722C80.3305 53.4722 83.2838 52.6829 85.9316 51.1042C88.6304 49.4745 90.7435 47.2593 92.2711 44.4583C93.8496 41.6574 94.6389 38.5509 94.6389 35.1389C94.6389 31.7269 93.8496 28.6204 92.2711 25.8194C90.7435 23.0185 88.6304 20.8287 85.9316 19.25C83.2838 17.6204 80.3305 16.8056 77.0716 16.8056C73.8128 16.8056 70.834 17.6204 68.1352 19.25C65.4874 20.8287 63.3742 23.0185 61.7957 25.8194C60.2681 28.6204 59.5043 31.7269 59.5043 35.1389C59.5043 38.5509 60.2681 41.6574 61.7957 44.4583C63.3742 47.2593 65.4874 49.4745 68.1352 51.1042C70.834 52.6829 73.8128 53.4722 77.0716 53.4722Z" fill="white"/>
<path d="M124.43 55C120.764 55 117.403 54.1343 114.348 52.4028C111.343 50.6204 108.95 48.2269 107.168 45.2222C105.437 42.1667 104.571 38.8056 104.571 35.1389C104.571 31.4722 105.437 28.1366 107.168 25.1319C108.95 22.0764 111.343 19.6829 114.348 17.9514C117.403 16.169 120.764 15.2778 124.43 15.2778C128.096 15.2778 131.431 16.169 134.436 17.9514C137.491 19.6829 139.884 22.0764 141.615 25.1319C143.397 28.1366 144.288 31.4722 144.288 35.1389C144.288 38.8056 143.397 42.1667 141.615 45.2222C139.884 48.2269 137.491 50.6204 134.436 52.4028C131.431 54.1343 128.096 55 124.43 55ZM124.43 53.4722C127.841 53.4722 130.948 52.6829 133.748 51.1042C136.549 49.4745 138.738 47.2593 140.317 44.4583C141.946 41.6574 142.761 38.5509 142.761 35.1389C142.761 31.7269 141.946 28.6204 140.317 25.8194C138.738 23.0185 136.549 20.8287 133.748 19.25C130.948 17.6204 127.841 16.8056 124.43 16.8056C121.018 16.8056 117.912 17.6204 115.112 19.25C112.311 20.8287 110.096 23.0185 108.467 25.8194C106.888 28.6204 106.099 31.7269 106.099 35.1389C106.099 38.5509 106.888 41.6574 108.467 44.4583C110.096 47.2593 112.311 49.4745 115.112 51.1042C117.912 52.6829 121.018 53.4722 124.43 53.4722Z" fill="white"/>
<path d="M172.481 55C168.917 55 165.836 54.2616 163.24 52.7847C160.694 51.2569 158.733 49.0671 157.358 46.2153C156.034 43.3125 155.372 39.875 155.372 35.9028V16.0417H156.9V35.9028C156.9 41.3519 158.275 45.6551 161.025 48.8125C163.825 51.919 167.644 53.4722 172.481 53.4722C175.384 53.4722 178.032 52.7083 180.425 51.1806C182.869 49.6528 184.779 47.5394 186.153 44.8403C187.528 42.1412 188.216 39.162 188.216 35.9028V16.0417H189.743V54.2361H188.216V43.4653C186.943 46.9792 184.906 49.7801 182.105 51.8681C179.305 53.956 176.097 55 172.481 55Z" fill="white"/>
<path d="M223.133 55C218.805 55 215.597 53.9815 213.509 51.9444C211.421 49.8565 210.378 46.8009 210.378 42.7778V17.5694H200.448V16.0417H209.614C209.868 16.0417 210.047 15.9653 210.148 15.8125C210.301 15.6597 210.378 15.4815 210.378 15.2778V6.875H212.058L211.905 16.0417H231V17.5694H211.905V42.7778C211.905 46.4444 212.822 49.1435 214.655 50.875C216.488 52.6065 219.263 53.4722 222.98 53.4722C225.322 53.4722 227.996 52.9884 231 52.0208V53.4722C229.88 53.8796 228.556 54.2361 227.028 54.5417C225.501 54.8472 224.202 55 223.133 55Z" fill="white"/>
</svg>
