<svg width="249" height="49" viewBox="0 0 249 49" fill="none" xmlns="http://www.w3.org/2000/svg">
<path d="M0 48.351L19.9316 2.92053H21.6362L41.5678 48.351H40.1254L33.5689 33.4238H7.93328L1.37685 48.351H0ZM8.4578 32.1907H33.0444L20.7839 4.15364L8.4578 32.1907Z" fill="white"/>
<path d="M49.7674 48.351V15.9007H51.0787V25.2464C52.084 22.2609 53.7013 19.8596 55.9305 18.0424C58.1597 16.1819 60.6948 15.2517 63.5359 15.2517C65.8088 15.2517 67.7539 15.706 69.3712 16.6146C70.9884 17.5232 72.2123 18.8645 73.0428 20.6384C73.917 22.3691 74.354 24.4676 74.354 26.9338V28.2318H73.0428V26.9338C73.0428 23.6022 72.2123 21.0495 70.5513 19.2755C68.9341 17.4583 66.5956 16.5497 63.5359 16.5497C61.263 16.5497 59.165 17.2203 57.2418 18.5616C55.3622 19.9029 53.8543 21.7201 52.7178 24.0132C51.6251 26.2631 51.0787 28.751 51.0787 31.4768V48.351H49.7674Z" fill="white"/>
<path d="M97.0972 49C93.3819 49 90.6282 48.1347 88.8361 46.404C87.044 44.63 86.1479 42.034 86.1479 38.6159V17.1987H77.6246V15.9007H85.4923C85.7108 15.9007 85.8638 15.8358 85.9513 15.706C86.0824 15.5762 86.1479 15.4247 86.1479 15.2517V8.11259H87.5904L87.4592 15.9007H103.85V17.1987H87.4592V38.6159C87.4592 41.7311 88.246 44.0243 89.8195 45.4954C91.3931 46.9664 93.7753 47.702 96.9661 47.702C98.9767 47.702 101.271 47.291 103.85 46.4689V47.702C102.889 48.0481 101.752 48.351 100.441 48.6106C99.1297 48.8702 98.0151 49 97.0972 49Z" fill="white"/>
<path d="M113.667 48.351V15.9007H114.978V48.351H113.667ZM113.995 10.3841L113.339 0H115.306L114.65 10.3841H113.995Z" fill="white"/>
<path d="M142.596 49C139.449 49 136.586 48.2645 134.007 46.7934C131.472 45.3223 129.462 43.3104 127.975 40.7576C126.533 38.1616 125.812 35.2843 125.812 32.1258C125.812 28.9673 126.533 26.1117 127.975 23.5589C129.462 20.9629 131.472 18.9294 134.007 17.4583C136.586 15.9872 139.449 15.2517 142.596 15.2517C145.437 15.2517 147.951 15.7492 150.136 16.7444C152.365 17.7395 154.201 19.1673 155.644 21.0278C157.086 22.8883 158.048 25.0949 158.528 27.6477H157.217C156.474 24.1863 154.813 21.4821 152.234 19.5351C149.655 17.5448 146.443 16.5497 142.596 16.5497C139.711 16.5497 137.089 17.2419 134.729 18.6265C132.368 19.9678 130.511 21.8283 129.156 24.2079C127.801 26.5876 127.123 29.2269 127.123 32.1258C127.123 35.0247 127.801 37.664 129.156 40.0437C130.511 42.4234 132.368 44.3055 134.729 45.6901C137.089 47.0313 139.711 47.702 142.596 47.702C146.443 47.702 149.655 46.7285 152.234 44.7815C154.813 42.7912 156.474 40.0653 157.217 36.604H158.528C158.048 39.1567 157.086 41.3634 155.644 43.2238C154.201 45.0843 152.365 46.5121 150.136 47.5073C147.951 48.5024 145.437 49 142.596 49Z" fill="white"/>
<path d="M169.051 48.351V2.27152H170.362V48.351H169.051Z" fill="white"/>
<path d="M198.046 49C194.942 49 192.101 48.2645 189.522 46.7934C186.944 45.279 184.911 43.2455 183.425 40.6927C181.939 38.0967 181.196 35.2411 181.196 32.1258C181.196 29.0106 181.939 26.1766 183.425 23.6238C184.911 21.0278 186.944 18.9943 189.522 17.5232C192.101 16.0088 194.942 15.2517 198.046 15.2517C201.149 15.2517 203.99 16.0088 206.569 17.5232C209.148 18.9943 211.159 21.0278 212.601 23.6238C214.087 26.1766 214.83 29.0106 214.83 32.1258C214.83 32.2124 214.83 32.3205 214.83 32.4503C214.83 32.5801 214.83 32.6883 214.83 32.7748H182.507C182.594 35.5872 183.337 38.14 184.736 40.4331C186.135 42.683 187.993 44.457 190.309 45.755C192.626 47.053 195.205 47.702 198.046 47.702C201.411 47.702 204.362 46.9232 206.897 45.3656C209.476 43.7647 211.224 41.6662 212.142 39.0702H213.519C212.907 41.0605 211.836 42.8128 210.306 44.3272C208.82 45.7982 207.006 46.9448 204.864 47.7669C202.766 48.589 200.493 49 198.046 49ZM213.519 31.4768C213.432 28.6645 212.688 26.1333 211.29 23.8834C209.935 21.5903 208.077 19.7947 205.717 18.4967C203.4 17.1987 200.843 16.5497 198.046 16.5497C195.205 16.5497 192.626 17.1987 190.309 18.4967C187.993 19.7947 186.135 21.5903 184.736 23.8834C183.337 26.1333 182.594 28.6645 182.507 31.4768H213.519Z" fill="white"/>
<path d="M236.215 49C232.281 49 228.872 48.0698 225.987 46.2093C223.102 44.3488 221.397 41.6013 220.873 37.9669H222.184C222.709 41.2119 224.282 43.6565 226.905 45.3007C229.527 46.9015 232.609 47.702 236.149 47.702C237.81 47.702 239.515 47.464 241.263 46.9881C243.056 46.5121 244.563 45.7117 245.787 44.5868C247.055 43.4618 247.689 42.0124 247.689 40.2384C247.689 38.5943 247.208 37.2962 246.246 36.3444C245.285 35.3925 244.061 34.7002 242.575 34.2675C241.132 33.8349 239.122 33.4022 236.543 32.9695C236.324 32.9263 236.084 32.883 235.822 32.8397C235.559 32.7965 235.319 32.7532 235.1 32.7099C232.172 32.234 229.833 31.7581 228.085 31.2821C226.337 30.8062 224.85 30.0274 223.627 28.9457C222.446 27.864 221.856 26.3497 221.856 24.4027C221.856 22.2826 222.468 20.5519 223.692 19.2106C224.96 17.826 226.555 16.8309 228.478 16.2252C230.402 15.5762 232.456 15.2517 234.641 15.2517C238.313 15.2517 241.438 16.1819 244.017 18.0424C246.64 19.8596 248.17 22.4989 248.607 25.9603H247.295C246.815 22.8018 245.372 20.4437 242.968 18.8861C240.608 17.3285 237.745 16.5497 234.379 16.5497C231.494 16.5497 228.894 17.177 226.577 18.4318C224.304 19.6865 223.168 21.6768 223.168 24.4027C223.168 25.8305 223.583 26.977 224.413 27.8424C225.288 28.7077 226.402 29.3784 227.757 29.8543C229.156 30.287 230.904 30.6764 233.002 31.0225C233.308 31.0658 233.614 31.1307 233.92 31.2172C234.27 31.2605 234.598 31.3038 234.904 31.347C235.035 31.3903 235.166 31.4119 235.297 31.4119C235.428 31.4119 235.581 31.4336 235.756 31.4768C238.685 31.9528 241.023 32.4503 242.771 32.9695C244.52 33.4887 245.984 34.3325 247.164 35.5007C248.388 36.6256 249 38.2049 249 40.2384C249 42.3152 248.322 44.0026 246.968 45.3007C245.613 46.5987 243.952 47.5506 241.985 48.1563C240.061 48.7188 238.138 49 236.215 49Z" fill="white"/>
</svg>
