<svg width="1489" height="144" viewBox="0 0 1489 144" fill="none" xmlns="http://www.w3.org/2000/svg">
<path d="M633.62 100.223L614 54.9128H615.42L634.394 98.7345H634.588L653.562 54.9128H654.918L635.298 100.223H633.62Z" fill="white"/>
<path d="M663.604 100.223V67.8587H664.895V100.223H663.604ZM663.927 62.3567L663.282 52H665.218L664.572 62.3567H663.927Z" fill="white"/>
<path d="M689.822 100.871C685.95 100.871 682.594 99.9428 679.754 98.0872C676.914 96.2316 675.236 93.4914 674.72 89.8666H676.011C676.527 93.103 678.076 95.5412 680.658 97.181C683.239 98.7776 686.273 99.576 689.758 99.576C691.393 99.576 693.071 99.3386 694.792 98.8639C696.556 98.3893 698.04 97.5909 699.245 96.469C700.493 95.347 701.117 93.9014 701.117 92.1321C701.117 90.4923 700.643 89.1977 699.697 88.2484C698.75 87.299 697.545 86.6085 696.082 86.177C694.663 85.7455 692.683 85.314 690.145 84.8824C689.93 84.8393 689.693 84.7961 689.435 84.753C689.177 84.7098 688.94 84.6667 688.725 84.6235C685.842 84.1488 683.54 83.6742 681.819 83.1995C680.098 82.7248 678.635 81.948 677.431 80.8692C676.269 79.7904 675.688 78.2801 675.688 76.3382C675.688 74.2237 676.291 72.4976 677.495 71.1598C678.743 69.779 680.313 68.7864 682.207 68.1823C684.1 67.535 686.122 67.2114 688.273 67.2114C691.887 67.2114 694.964 68.1391 697.502 69.9947C700.084 71.8071 701.59 74.4395 702.02 77.8917H700.729C700.256 74.7415 698.836 72.3897 696.47 70.8362C694.146 69.2827 691.328 68.5059 688.015 68.5059C685.175 68.5059 682.615 69.1317 680.335 70.3831C678.098 71.6345 676.979 73.6196 676.979 76.3382C676.979 77.7622 677.388 78.9058 678.205 79.7688C679.066 80.6319 680.163 81.3008 681.497 81.7754C682.873 82.207 684.595 82.5953 686.66 82.9406C686.961 82.9837 687.262 83.0484 687.563 83.1347C687.908 83.1779 688.23 83.221 688.531 83.2642C688.66 83.3074 688.79 83.3289 688.919 83.3289C689.048 83.3289 689.198 83.3505 689.37 83.3937C692.253 83.8683 694.555 84.3646 696.276 84.8824C697.997 85.4003 699.439 86.2417 700.6 87.4069C701.805 88.5288 702.407 90.1039 702.407 92.1321C702.407 94.2034 701.74 95.8864 700.407 97.181C699.073 98.4756 697.438 99.4249 695.502 100.029C693.608 100.59 691.715 100.871 689.822 100.871Z" fill="white"/>
<path d="M726.324 100.871C723.312 100.871 720.709 100.245 718.515 98.9934C716.364 97.6988 714.707 95.8432 713.545 93.4267C712.427 90.967 711.867 88.0542 711.867 84.6882V67.8587H713.158V84.6882C713.158 89.3056 714.32 92.952 716.643 95.6275C719.01 98.2598 722.237 99.576 726.324 99.576C728.776 99.576 731.014 98.9287 733.036 97.6341C735.101 96.3395 736.715 94.5487 737.876 92.2616C739.038 89.9745 739.619 87.45 739.619 84.6882V67.8587H740.91V100.223H739.619V91.0964C738.543 94.074 736.822 96.4474 734.456 98.2166C732.09 99.9859 729.379 100.871 726.324 100.871Z" fill="white"/>
<path d="M762.218 101C758.862 101 756.302 100.245 754.538 98.7345C752.774 97.2241 751.892 95.196 751.892 92.6499C751.892 90.1902 752.731 88.2699 754.409 86.889C756.13 85.465 758.195 84.4941 760.604 83.9762C763.014 83.4152 765.767 83.0269 768.865 82.8111C771.877 82.6385 774.157 82.3364 775.706 81.9049C777.298 81.4734 778.094 80.7182 778.094 79.6394C778.094 76.3598 776.997 73.6843 774.803 71.6129C772.652 69.5416 769.855 68.5059 766.413 68.5059C763.057 68.5059 760.282 69.4553 758.087 71.354C755.936 73.2528 754.559 75.8851 753.957 79.251H752.666C753.053 76.7913 753.849 74.6552 755.054 72.8428C756.302 71.0304 757.894 69.6495 759.83 68.7001C761.766 67.7076 763.96 67.2114 766.413 67.2114C768.994 67.2114 771.253 67.7508 773.189 68.8296C775.169 69.8653 776.696 71.354 777.772 73.2959C778.847 75.2378 779.385 77.4817 779.385 80.0277V98.9287H784.548V100.223H778.159V90.8375C777.04 93.9014 775.018 96.3611 772.092 98.2166C769.166 100.072 765.875 101 762.218 101ZM762.218 99.7054C765.23 99.7054 767.94 99.0581 770.35 97.7635C772.759 96.469 774.652 94.7213 776.029 92.5205C777.406 90.3197 778.094 87.9031 778.094 85.2708L778.159 82.0343C777.47 82.5953 776.459 83.0269 775.126 83.3289C773.792 83.631 772.028 83.8468 769.833 83.9762C769.704 83.9762 769.554 83.9978 769.382 84.041C769.253 84.041 769.102 84.041 768.93 84.041C763.422 84.4293 759.421 85.314 756.926 86.6948C754.43 88.0326 753.182 90.0176 753.182 92.6499C753.182 94.8939 753.978 96.6416 755.57 97.893C757.205 99.1013 759.421 99.7054 762.218 99.7054Z" fill="white"/>
<path d="M794.258 100.223V54.2655H795.549V100.223H794.258Z" fill="white"/>
<path d="M819.766 100.223L839.386 54.9128H841.064L860.684 100.223H859.264L852.81 85.3355H827.575L821.121 100.223H819.766ZM828.091 84.1057H852.294L840.225 56.1427L828.091 84.1057Z" fill="white"/>
<path d="M868.755 100.223V67.8587H870.046V77.1797C871.035 74.2021 872.627 71.8071 874.822 69.9947C877.016 68.1391 879.511 67.2114 882.308 67.2114C884.546 67.2114 886.46 67.6645 888.052 68.5707C889.644 69.4769 890.849 70.8146 891.666 72.5839C892.527 74.31 892.957 76.4029 892.957 78.8626V80.1572H891.666V78.8626C891.666 75.5399 890.849 72.9938 889.214 71.2246C887.622 69.4122 885.32 68.5059 882.308 68.5059C880.071 68.5059 878.006 69.1748 876.112 70.5126C874.262 71.8503 872.778 73.6627 871.659 75.9498C870.584 78.1937 870.046 80.675 870.046 83.3937V100.223H868.755Z" fill="white"/>
<path d="M915.345 100.871C911.687 100.871 908.977 100.007 907.213 98.2814C905.449 96.5121 904.567 93.9229 904.567 90.5139V69.1532H896.176V67.8587H903.921C904.136 67.8587 904.287 67.7939 904.373 67.6645C904.502 67.535 904.567 67.384 904.567 67.2114V60.0912H905.986L905.857 67.8587H921.992V69.1532H905.857V90.5139C905.857 93.6209 906.632 95.908 908.181 97.3752C909.73 98.8424 912.075 99.576 915.215 99.576C917.195 99.576 919.454 99.166 921.992 98.3461V99.576C921.045 99.9212 919.927 100.223 918.636 100.482C917.345 100.741 916.248 100.871 915.345 100.871Z" fill="white"/>
<path d="M940.415 100.871C936.543 100.871 933.187 99.9428 930.347 98.0872C927.507 96.2316 925.829 93.4914 925.313 89.8666H926.604C927.12 93.103 928.669 95.5412 931.25 97.181C933.832 98.7776 936.865 99.576 940.35 99.576C941.985 99.576 943.663 99.3386 945.384 98.8639C947.148 98.3893 948.633 97.5909 949.838 96.469C951.085 95.347 951.709 93.9014 951.709 92.1321C951.709 90.4923 951.236 89.1977 950.289 88.2484C949.343 87.299 948.138 86.6085 946.675 86.177C945.255 85.7455 943.276 85.314 940.738 84.8824C940.522 84.8393 940.286 84.7961 940.028 84.753C939.77 84.7098 939.533 84.6667 939.318 84.6235C936.435 84.1488 934.133 83.6742 932.412 83.1995C930.691 82.7248 929.228 81.948 928.023 80.8692C926.862 79.7904 926.281 78.2801 926.281 76.3382C926.281 74.2237 926.883 72.4976 928.088 71.1598C929.336 69.779 930.906 68.7864 932.799 68.1823C934.692 67.535 936.715 67.2114 938.866 67.2114C942.48 67.2114 945.556 68.1391 948.095 69.9947C950.677 71.8071 952.182 74.4395 952.613 77.8917H951.322C950.849 74.7415 949.429 72.3897 947.062 70.8362C944.739 69.2827 941.921 68.5059 938.608 68.5059C935.768 68.5059 933.208 69.1317 930.928 70.3831C928.69 71.6345 927.572 73.6196 927.572 76.3382C927.572 77.7622 927.98 78.9058 928.798 79.7688C929.658 80.6319 930.756 81.3008 932.089 81.7754C933.466 82.207 935.187 82.5953 937.252 82.9406C937.554 82.9837 937.855 83.0484 938.156 83.1347C938.5 83.1779 938.823 83.221 939.124 83.2642C939.253 83.3074 939.382 83.3289 939.511 83.3289C939.64 83.3289 939.791 83.3505 939.963 83.3937C942.846 83.8683 945.148 84.3646 946.869 84.8824C948.59 85.4003 950.031 86.2417 951.193 87.4069C952.398 88.5288 953 90.1039 953 92.1321C953 94.2034 952.333 95.8864 950.999 97.181C949.665 98.4756 948.031 99.4249 946.094 100.029C944.201 100.59 942.308 100.871 940.415 100.871Z" fill="white"/>
<path d="M142 100.197V44H143.625V100.197H142Z" fill="white"/>
<path d="M177.407 101C172.532 101 168.307 99.8493 164.733 97.5479C161.158 95.2465 159.045 91.8479 158.396 87.3521H160.02C160.67 91.3662 162.62 94.3901 165.87 96.4239C169.12 98.4042 172.938 99.3944 177.325 99.3944C179.384 99.3944 181.496 99.1 183.663 98.5113C185.883 97.9225 187.752 96.9324 189.268 95.5408C190.839 94.1493 191.625 92.3563 191.625 90.162C191.625 88.1282 191.029 86.5225 189.837 85.3451C188.646 84.1676 187.129 83.3113 185.287 82.7761C183.5 82.2408 181.009 81.7056 177.813 81.1704C177.542 81.1169 177.244 81.0634 176.919 81.0099C176.594 80.9563 176.296 80.9028 176.026 80.8493C172.397 80.2606 169.499 79.6718 167.332 79.0831C165.166 78.4944 163.324 77.531 161.808 76.193C160.345 74.8549 159.614 72.9817 159.614 70.5732C159.614 67.9507 160.372 65.8099 161.889 64.1507C163.46 62.438 165.437 61.207 167.82 60.4577C170.203 59.6549 172.749 59.2535 175.457 59.2535C180.007 59.2535 183.879 60.4042 187.075 62.7056C190.325 64.9535 192.22 68.2183 192.762 72.5H191.137C190.541 68.593 188.754 65.6761 185.775 63.7493C182.85 61.8225 179.302 60.8592 175.132 60.8592C171.557 60.8592 168.334 61.6352 165.464 63.1873C162.647 64.7394 161.239 67.2014 161.239 70.5732C161.239 72.3394 161.754 73.7577 162.783 74.8282C163.866 75.8986 165.247 76.7282 166.926 77.3169C168.659 77.8521 170.826 78.3338 173.426 78.762C173.805 78.8155 174.184 78.8958 174.563 79.0028C174.996 79.0563 175.403 79.1099 175.782 79.1634C175.944 79.2169 176.107 79.2437 176.269 79.2437C176.432 79.2437 176.621 79.2704 176.838 79.3239C180.467 79.9127 183.365 80.5282 185.531 81.1704C187.698 81.8127 189.512 82.8563 190.975 84.3014C192.491 85.693 193.249 87.6465 193.249 90.162C193.249 92.731 192.41 94.8183 190.731 96.4239C189.052 98.0296 186.994 99.207 184.556 99.9563C182.173 100.652 179.79 101 177.407 101Z" fill="white"/>
<path d="M220.25 101C215.376 101 211.151 99.8493 207.576 97.5479C204.002 95.2465 201.889 91.8479 201.239 87.3521H202.864C203.514 91.3662 205.464 94.3901 208.714 96.4239C211.964 98.4042 215.782 99.3944 220.169 99.3944C222.227 99.3944 224.34 99.1 226.506 98.5113C228.727 97.9225 230.596 96.9324 232.112 95.5408C233.683 94.1493 234.468 92.3563 234.468 90.162C234.468 88.1282 233.872 86.5225 232.681 85.3451C231.489 84.1676 229.973 83.3113 228.131 82.7761C226.344 82.2408 223.852 81.7056 220.657 81.1704C220.386 81.1169 220.088 81.0634 219.763 81.0099C219.438 80.9563 219.14 80.9028 218.869 80.8493C215.24 80.2606 212.343 79.6718 210.176 79.0831C208.01 78.4944 206.168 77.531 204.652 76.193C203.189 74.8549 202.458 72.9817 202.458 70.5732C202.458 67.9507 203.216 65.8099 204.733 64.1507C206.304 62.438 208.28 61.207 210.664 60.4577C213.047 59.6549 215.592 59.2535 218.301 59.2535C222.85 59.2535 226.723 60.4042 229.919 62.7056C233.168 64.9535 235.064 68.2183 235.606 72.5H233.981C233.385 68.593 231.598 65.6761 228.619 63.7493C225.694 61.8225 222.146 60.8592 217.976 60.8592C214.401 60.8592 211.178 61.6352 208.308 63.1873C205.491 64.7394 204.083 67.2014 204.083 70.5732C204.083 72.3394 204.597 73.7577 205.626 74.8282C206.71 75.8986 208.091 76.7282 209.77 77.3169C211.503 77.8521 213.67 78.3338 216.27 78.762C216.649 78.8155 217.028 78.8958 217.407 79.0028C217.84 79.0563 218.246 79.1099 218.626 79.1634C218.788 79.2169 218.951 79.2437 219.113 79.2437C219.276 79.2437 219.465 79.2704 219.682 79.3239C223.311 79.9127 226.208 80.5282 228.375 81.1704C230.541 81.8127 232.356 82.8563 233.818 84.3014C235.335 85.693 236.093 87.6465 236.093 90.162C236.093 92.731 235.254 94.8183 233.575 96.4239C231.896 98.0296 229.837 99.207 227.4 99.9563C225.017 100.652 222.634 101 220.25 101Z" fill="white"/>
<path d="M266.201 101C262.409 101 259.132 100.224 256.37 98.6718C253.662 97.0662 251.577 94.7648 250.114 91.7676C248.706 88.7169 248.002 85.1042 248.002 80.9296V60.0563H249.627V80.9296C249.627 86.6563 251.089 91.1789 254.014 94.4972C256.993 97.762 261.055 99.3944 266.201 99.3944C269.288 99.3944 272.104 98.5915 274.65 96.9859C277.25 95.3803 279.281 93.1592 280.743 90.3225C282.206 87.4859 282.937 84.3549 282.937 80.9296V60.0563H284.562V100.197H282.937V88.8775C281.583 92.5704 279.416 95.5141 276.437 97.7085C273.458 99.9028 270.046 101 266.201 101Z" fill="white"/>
<path d="M318.86 101C315.014 101 311.494 100.09 308.298 98.2704C305.102 96.3972 302.584 93.8817 300.742 90.7239C298.901 87.5127 297.98 83.9803 297.98 80.1268C297.98 76.2732 298.901 72.7676 300.742 69.6099C302.584 66.3986 305.102 63.8831 308.298 62.0634C311.494 60.1901 315.014 59.2535 318.86 59.2535C322.705 59.2535 326.226 60.1901 329.421 62.0634C332.617 63.8831 335.109 66.3986 336.896 69.6099C338.738 72.7676 339.658 76.2732 339.658 80.1268C339.658 80.2338 339.658 80.3676 339.658 80.5282C339.658 80.6887 339.658 80.8225 339.658 80.9296H299.605C299.713 84.4085 300.634 87.5662 302.367 90.4028C304.1 93.1859 306.402 95.3803 309.273 96.9859C312.144 98.5915 315.339 99.3944 318.86 99.3944C323.03 99.3944 326.686 98.431 329.828 96.5042C333.023 94.5239 335.19 91.9282 336.327 88.7169H338.033C337.275 91.1789 335.948 93.3465 334.052 95.2197C332.211 97.0394 329.963 98.4577 327.309 99.4746C324.709 100.492 321.893 101 318.86 101ZM338.033 79.3239C337.925 75.8451 337.004 72.7141 335.271 69.931C333.592 67.0944 331.29 64.8732 328.365 63.2676C325.495 61.662 322.326 60.8592 318.86 60.8592C315.339 60.8592 312.144 61.662 309.273 63.2676C306.402 64.8732 304.1 67.0944 302.367 69.931C300.634 72.7141 299.713 75.8451 299.605 79.3239H338.033Z" fill="white"/>
<path d="M366.157 101C361.283 101 357.058 99.8493 353.483 97.5479C349.908 95.2465 347.796 91.8479 347.146 87.3521H348.771C349.421 91.3662 351.371 94.3901 354.621 96.4239C357.87 98.4042 361.689 99.3944 366.076 99.3944C368.134 99.3944 370.247 99.1 372.413 98.5113C374.634 97.9225 376.502 96.9324 378.019 95.5408C379.59 94.1493 380.375 92.3563 380.375 90.162C380.375 88.1282 379.779 86.5225 378.588 85.3451C377.396 84.1676 375.88 83.3113 374.038 82.7761C372.251 82.2408 369.759 81.7056 366.564 81.1704C366.293 81.1169 365.995 81.0634 365.67 81.0099C365.345 80.9563 365.047 80.9028 364.776 80.8493C361.147 80.2606 358.25 79.6718 356.083 79.0831C353.917 78.4944 352.075 77.531 350.558 76.193C349.096 74.8549 348.365 72.9817 348.365 70.5732C348.365 67.9507 349.123 65.8099 350.64 64.1507C352.21 62.438 354.187 61.207 356.57 60.4577C358.954 59.6549 361.499 59.2535 364.207 59.2535C368.757 59.2535 372.63 60.4042 375.825 62.7056C379.075 64.9535 380.971 68.2183 381.513 72.5H379.888C379.292 68.593 377.504 65.6761 374.526 63.7493C371.601 61.8225 368.053 60.8592 363.882 60.8592C360.308 60.8592 357.085 61.6352 354.214 63.1873C351.398 64.7394 349.99 67.2014 349.99 70.5732C349.99 72.3394 350.504 73.7577 351.533 74.8282C352.617 75.8986 353.998 76.7282 355.677 77.3169C357.41 77.8521 359.577 78.3338 362.176 78.762C362.555 78.8155 362.935 78.8958 363.314 79.0028C363.747 79.0563 364.153 79.1099 364.532 79.1634C364.695 79.2169 364.857 79.2437 365.02 79.2437C365.182 79.2437 365.372 79.2704 365.589 79.3239C369.218 79.9127 372.115 80.5282 374.282 81.1704C376.448 81.8127 378.263 82.8563 379.725 84.3014C381.242 85.693 382 87.6465 382 90.162C382 92.731 381.16 94.8183 379.481 96.4239C377.802 98.0296 375.744 99.207 373.307 99.9563C370.924 100.652 368.541 101 366.157 101Z" fill="white"/>
<path d="M1185 98.2361L1208.22 44.7639H1210.21L1233.42 98.2361H1231.74L1224.11 80.6667H1194.24L1186.6 98.2361H1185ZM1194.85 79.2153H1223.5L1209.21 46.2153L1194.85 79.2153Z" fill="white"/>
<path d="M1262.22 99C1258.05 99 1254.38 97.8796 1251.23 95.6389C1248.12 93.3981 1245.88 90.419 1244.5 86.7014V98.2361H1242.98V44H1244.5V71.5764C1245.88 67.8588 1248.12 64.8796 1251.23 62.6389C1254.38 60.3981 1258.05 59.2778 1262.22 59.2778C1265.74 59.2778 1268.95 60.169 1271.85 61.9514C1274.75 63.6829 1277.02 66.0764 1278.65 69.1319C1280.33 72.1366 1281.17 75.4722 1281.17 79.1389C1281.17 82.8056 1280.33 86.1667 1278.65 89.2222C1277.02 92.2269 1274.75 94.6204 1271.85 96.4028C1268.95 98.1343 1265.74 99 1262.22 99ZM1262.07 97.4722C1265.33 97.4722 1268.28 96.6829 1270.93 95.1042C1273.63 93.4745 1275.74 91.2593 1277.27 88.4583C1278.85 85.6574 1279.64 82.5509 1279.64 79.1389C1279.64 75.7269 1278.85 72.6204 1277.27 69.8194C1275.74 67.0185 1273.63 64.8287 1270.93 63.25C1268.28 61.6204 1265.33 60.8056 1262.07 60.8056C1258.81 60.8056 1255.83 61.6204 1253.14 63.25C1250.49 64.8287 1248.37 67.0185 1246.8 69.8194C1245.27 72.6204 1244.5 75.7269 1244.5 79.1389C1244.5 82.5509 1245.27 85.6574 1246.8 88.4583C1248.37 91.2593 1250.49 93.4745 1253.14 95.1042C1255.83 96.6829 1258.81 97.4722 1262.07 97.4722Z" fill="white"/>
<path d="M1309.43 99C1305.76 99 1302.4 98.1343 1299.35 96.4028C1296.34 94.6204 1293.95 92.2269 1292.17 89.2222C1290.44 86.1667 1289.57 82.8056 1289.57 79.1389C1289.57 75.4722 1290.44 72.1366 1292.17 69.1319C1293.95 66.0764 1296.34 63.6829 1299.35 61.9514C1302.4 60.169 1305.76 59.2778 1309.43 59.2778C1313.1 59.2778 1316.43 60.169 1319.44 61.9514C1322.49 63.6829 1324.88 66.0764 1326.62 69.1319C1328.4 72.1366 1329.29 75.4722 1329.29 79.1389C1329.29 82.8056 1328.4 86.1667 1326.62 89.2222C1324.88 92.2269 1322.49 94.6204 1319.44 96.4028C1316.43 98.1343 1313.1 99 1309.43 99ZM1309.43 97.4722C1312.84 97.4722 1315.95 96.6829 1318.75 95.1042C1321.55 93.4745 1323.74 91.2593 1325.32 88.4583C1326.95 85.6574 1327.76 82.5509 1327.76 79.1389C1327.76 75.7269 1326.95 72.6204 1325.32 69.8194C1323.74 67.0185 1321.55 64.8287 1318.75 63.25C1315.95 61.6204 1312.84 60.8056 1309.43 60.8056C1306.02 60.8056 1302.91 61.6204 1300.11 63.25C1297.31 64.8287 1295.1 67.0185 1293.47 69.8194C1291.89 72.6204 1291.1 75.7269 1291.1 79.1389C1291.1 82.5509 1291.89 85.6574 1293.47 88.4583C1295.1 91.2593 1297.31 93.4745 1300.11 95.1042C1302.91 96.6829 1306.02 97.4722 1309.43 97.4722Z" fill="white"/>
<path d="M1357.48 99C1353.92 99 1350.84 98.2616 1348.24 96.7847C1345.69 95.2569 1343.73 93.0671 1342.36 90.2153C1341.03 87.3125 1340.37 83.875 1340.37 79.9028V60.0417H1341.9V79.9028C1341.9 85.3519 1343.27 89.6551 1346.02 92.8125C1348.83 95.919 1352.64 97.4722 1357.48 97.4722C1360.38 97.4722 1363.03 96.7083 1365.42 95.1806C1367.87 93.6528 1369.78 91.5394 1371.15 88.8403C1372.53 86.1412 1373.22 83.162 1373.22 79.9028V60.0417H1374.74V98.2361H1373.22V87.4653C1371.94 90.9792 1369.91 93.7801 1367.11 95.8681C1364.3 97.956 1361.1 99 1357.48 99Z" fill="white"/>
<path d="M1408.13 99C1403.8 99 1400.6 97.9815 1398.51 95.9444C1396.42 93.8565 1395.38 90.8009 1395.38 86.7778V61.5694H1385.45V60.0417H1394.61C1394.87 60.0417 1395.05 59.9653 1395.15 59.8125C1395.3 59.6597 1395.38 59.4815 1395.38 59.2778V50.875H1397.06L1396.91 60.0417H1416V61.5694H1396.91V86.7778C1396.91 90.4444 1397.82 93.1435 1399.65 94.875C1401.49 96.6065 1404.26 97.4722 1407.98 97.4722C1410.32 97.4722 1413 96.9884 1416 96.0208V97.4722C1414.88 97.8796 1413.56 98.2361 1412.03 98.5417C1410.5 98.8472 1409.2 99 1408.13 99Z" fill="white"/>
</svg>
