<svg width="2559" height="633" viewBox="0 0 2559 633" fill="none" xmlns="http://www.w3.org/2000/svg">
<path d="M296 432.507V269.493H300.452V432.507H296Z" fill="#FAE6FC"/>
<path d="M362.735 432.507V269.493H368.077L482.936 425.986V269.493H487.388V432.507H482.268L367.187 276.014V354.26V432.507H362.735Z" fill="#FAE6FC"/>
<path d="M549.679 432.507V269.493H593.085C608.963 269.493 623.061 272.986 635.378 279.973C647.695 286.804 657.266 296.429 664.093 308.849C670.919 321.114 674.332 335.164 674.332 351C674.332 366.836 670.919 380.963 664.093 393.384C657.266 405.648 647.695 415.274 635.378 422.26C623.061 429.091 608.963 432.507 593.085 432.507H549.679ZM593.085 427.849C608.073 427.849 621.354 424.667 632.929 418.301C644.653 411.781 653.705 402.699 660.086 391.055C666.615 379.411 669.88 366.059 669.88 351C669.88 335.941 666.615 322.589 660.086 310.945C653.705 299.301 644.653 290.297 632.929 283.932C621.354 277.411 608.073 274.151 593.085 274.151H554.131V351V427.849H593.085Z" fill="#FAE6FC"/>
<path d="M720.972 432.507V269.493H725.424V432.507H720.972Z" fill="#FAE6FC"/>
<path d="M868.543 436C853.258 436 839.532 432.429 827.363 425.288C815.343 417.991 805.92 407.9 799.094 395.014C792.268 382.128 788.855 367.457 788.855 351C788.855 334.543 792.268 319.872 799.094 306.986C805.92 294.1 815.343 284.087 827.363 276.945C839.532 269.648 853.258 266 868.543 266C881.454 266 893.103 268.562 903.491 273.685C913.878 278.808 922.485 286.105 929.312 295.575C936.138 305.046 940.664 316.146 942.89 328.877H938.215C934.951 311.023 927.086 296.895 914.62 286.493C902.155 275.936 886.796 270.658 868.543 270.658C854 270.658 841.016 274.073 829.589 280.904C818.163 287.58 809.259 297.05 802.878 309.315C796.497 321.425 793.306 335.32 793.306 351C793.306 366.525 796.497 380.42 802.878 392.685C809.259 404.795 818.163 414.265 829.589 421.096C841.016 427.927 854 431.342 868.543 431.342C882.047 431.342 894.216 428.237 905.049 422.027C915.882 415.662 924.34 406.968 930.424 395.945C936.509 384.767 939.551 372.114 939.551 357.986V353.329H872.55V348.671H944.003V432.507H939.551V383.836C934.802 399.982 926.047 412.712 913.285 422.027C900.671 431.342 885.757 436 868.543 436Z" fill="#FAE6FC"/>
<path d="M1075.34 436C1060.2 436 1046.55 432.352 1034.38 425.055C1022.21 417.603 1012.64 407.434 1005.67 394.548C998.692 381.507 995.204 366.991 995.204 351C995.204 335.009 998.692 320.571 1005.67 307.685C1012.64 294.644 1022.21 284.475 1034.38 277.178C1046.55 269.726 1060.2 266 1075.34 266C1090.47 266 1104.13 269.726 1116.3 277.178C1128.46 284.475 1140.5 294.644 1147.47 307.685C1154.45 320.571 1157.93 335.009 1157.93 351C1157.93 366.991 1154.45 381.507 1147.47 394.548C1140.5 407.434 1128.46 417.603 1116.3 425.055C1104.13 432.352 1090.47 436 1075.34 436ZM1075.34 431.342C1089.58 431.342 1102.42 427.849 1113.85 420.863C1125.42 413.877 1134.47 404.329 1141 392.219C1147.68 379.954 1153.48 366.215 1153.48 351C1153.48 335.785 1147.68 322.123 1141 310.014C1134.47 297.749 1125.42 288.123 1113.85 281.137C1102.42 274.151 1089.58 270.658 1075.34 270.658C1061.09 270.658 1048.18 274.151 1036.61 281.137C1025.18 288.123 1016.13 297.749 1009.45 310.014C1002.92 322.123 999.656 335.785 999.656 351C999.656 366.215 1002.92 379.954 1009.45 392.219C1016.13 404.329 1025.18 413.877 1036.61 420.863C1048.18 427.849 1061.09 431.342 1075.34 431.342Z" fill="#FAE6FC"/>
<path d="M1283.89 432.507V269.493H1291.01L1361.35 428.315L1431.47 269.493H1438.37V432.507H1433.91V274.616L1364.02 432.507H1358.23L1288.34 274.616V432.507H1283.89Z" fill="#FAE6FC"/>
<path d="M1472.79 432.507L1540.46 269.493H1546.24L1613.91 432.507H1609.01L1586.75 378.945H1499.72L1477.46 432.507H1472.79ZM1501.5 374.521H1584.97L1543.35 273.918L1501.5 374.521Z" fill="#FAE6FC"/>
<path d="M1712.53 436C1697.25 436 1683.52 432.429 1671.35 425.288C1659.33 417.991 1649.91 407.9 1643.09 395.014C1636.26 382.128 1632.85 367.457 1632.85 351C1632.85 334.543 1636.26 319.872 1643.09 306.986C1649.91 294.1 1659.33 284.087 1671.35 276.945C1683.52 269.648 1697.25 266 1712.53 266C1725.45 266 1737.09 268.562 1747.48 273.685C1757.87 278.808 1766.48 286.105 1773.3 295.575C1780.13 305.046 1784.66 316.146 1786.88 328.877H1782.21C1778.94 311.023 1771.08 296.895 1758.61 286.493C1746.15 275.936 1730.79 270.658 1712.53 270.658C1697.99 270.658 1685.01 274.073 1673.58 280.904C1662.15 287.58 1653.25 297.05 1646.87 309.315C1640.49 321.425 1637.3 335.32 1637.3 351C1637.3 366.525 1640.49 380.42 1646.87 392.685C1653.25 404.795 1662.15 414.265 1673.58 421.096C1685.01 427.927 1697.99 431.342 1712.53 431.342C1726.04 431.342 1738.21 428.237 1749.04 422.027C1759.87 415.662 1768.33 406.968 1774.42 395.945C1780.5 384.767 1783.54 372.114 1783.54 357.986V353.329H1716.54V348.671H1787.99V432.507H1783.54V383.836C1778.79 399.982 1770.04 412.712 1757.28 422.027C1744.66 431.342 1729.75 436 1712.53 436Z" fill="#FAE6FC"/>
<path d="M1809.72 432.507L1877.39 269.493H1883.18L1950.85 432.507H1945.95L1923.69 378.945H1836.66L1814.4 432.507H1809.72ZM1838.44 374.521H1921.91L1880.28 273.918L1838.44 374.521Z" fill="#FAE6FC"/>
<path d="M1965.33 432.507V427.849L2077.52 274.151H1970V269.493H2083.08V274.151L1970.89 427.849H2083.75V432.507H1965.33Z" fill="#FAE6FC"/>
<path d="M2123.83 432.507V269.493H2128.28V432.507H2123.83Z" fill="#FAE6FC"/>
<path d="M2190.57 432.507V269.493H2195.91L2310.77 425.986V269.493H2315.22V432.507H2310.1L2195.02 276.014V432.507H2190.57Z" fill="#FAE6FC"/>
<path d="M2377.51 432.507V269.493H2459.87V274.151H2381.96V348.671H2440.73V353.329H2381.96V427.849H2471V432.507H2377.51Z" fill="#FAE6FC"/>
<path d="M386.385 201.399V181.76L364 151.225H365.817L387.184 180.326L408.479 151.225H410.223L387.838 181.76V201.399H386.385Z" fill="#FAE6FC"/>
<path d="M425.495 202.116C422.006 202.116 418.809 201.303 415.902 199.679C413.043 198.006 410.766 195.76 409.07 192.941C407.422 190.074 406.599 186.92 406.599 183.48C406.599 180.039 407.422 176.909 409.07 174.09C410.766 171.223 413.043 168.977 415.902 167.353C418.809 165.68 422.006 164.844 425.495 164.844C428.984 164.844 432.157 165.68 435.016 167.353C437.923 168.977 440.2 171.223 441.847 174.09C443.543 176.909 444.391 180.039 444.391 183.48C444.391 186.92 443.543 190.074 441.847 192.941C440.2 195.76 437.923 198.006 435.016 199.679C432.157 201.303 428.984 202.116 425.495 202.116ZM425.495 200.682C428.741 200.682 431.697 199.941 434.362 198.46C437.026 196.931 439.11 194.852 440.612 192.224C442.162 189.596 442.938 186.681 442.938 183.48C442.938 180.278 442.162 177.363 440.612 174.735C439.11 172.107 437.026 170.052 434.362 168.571C431.697 167.042 428.741 166.277 425.495 166.277C422.249 166.277 419.293 167.042 416.628 168.571C413.963 170.052 411.856 172.107 410.305 174.735C408.803 177.363 408.052 180.278 408.052 183.48C408.052 186.681 408.803 189.596 410.305 192.224C411.856 194.852 413.963 196.931 416.628 198.46C419.293 199.941 422.249 200.682 425.495 200.682Z" fill="#FAE6FC"/>
<path d="M471.218 202.116C467.826 202.116 464.895 201.423 462.424 200.037C460.001 198.603 458.136 196.549 456.828 193.873C455.568 191.149 454.938 187.924 454.938 184.197V165.561H456.391V184.197C456.391 189.309 457.7 193.347 460.316 196.31C462.981 199.225 466.615 200.682 471.218 200.682C473.979 200.682 476.499 199.965 478.776 198.532C481.102 197.098 482.919 195.115 484.227 192.583C485.535 190.05 486.189 187.255 486.189 184.197V165.561H487.643V201.399H486.189V191.292C484.978 194.59 483.04 197.218 480.375 199.177C477.71 201.136 474.658 202.116 471.218 202.116Z" fill="#FAE6FC"/>
<path d="M503.643 201.399V165.561H505.097V175.882C506.211 172.585 508.004 169.933 510.475 167.926C512.946 165.871 515.756 164.844 518.906 164.844C521.425 164.844 523.581 165.346 525.374 166.349C527.167 167.353 528.523 168.834 529.444 170.793C530.413 172.704 530.897 175.022 530.897 177.746V179.179H529.444V177.746C529.444 174.066 528.523 171.247 526.682 169.288C524.889 167.281 522.297 166.277 518.906 166.277C516.386 166.277 514.06 167.018 511.929 168.499C509.845 169.981 508.174 171.988 506.914 174.52C505.703 177.005 505.097 179.753 505.097 182.763V201.399H503.643Z" fill="#FAE6FC"/>
<path d="M574.423 201.399L552.329 151.225H553.928L575.295 199.75H575.513L596.88 151.225H598.407L576.312 201.399H574.423Z" fill="#FAE6FC"/>
<path d="M609.653 202.259C605.874 202.259 602.991 201.423 601.005 199.75C599.018 198.078 598.025 195.832 598.025 193.013C598.025 190.289 598.97 188.163 600.859 186.634C602.797 185.057 605.123 183.982 607.836 183.408C610.55 182.787 613.651 182.357 617.139 182.118C620.531 181.927 623.099 181.592 624.843 181.114C626.636 180.637 627.532 179.8 627.532 178.606C627.532 174.974 626.297 172.012 623.826 169.718C621.403 167.424 618.254 166.277 614.377 166.277C610.598 166.277 607.473 167.329 605.002 169.431C602.579 171.534 601.029 174.449 600.351 178.176H598.897C599.333 175.452 600.23 173.087 601.586 171.08C602.991 169.073 604.784 167.544 606.964 166.492C609.145 165.393 611.616 164.844 614.377 164.844C617.285 164.844 619.828 165.441 622.009 166.636C624.237 167.783 625.957 169.431 627.169 171.582C628.38 173.732 628.986 176.217 628.986 179.036V199.965H634.8V201.399H627.605V191.006C626.345 194.398 624.068 197.122 620.773 199.177C617.478 201.232 613.772 202.259 609.653 202.259ZM609.653 200.825C613.045 200.825 616.097 200.109 618.811 198.675C621.524 197.242 623.656 195.306 625.206 192.869C626.757 190.432 627.532 187.756 627.532 184.842L627.605 181.258C626.83 181.879 625.691 182.357 624.189 182.691C622.687 183.026 620.7 183.265 618.229 183.408C618.084 183.408 617.914 183.432 617.721 183.48C617.575 183.48 617.406 183.48 617.212 183.48C611.01 183.91 606.504 184.889 603.694 186.419C600.884 187.9 599.479 190.098 599.479 193.013C599.479 195.498 600.375 197.433 602.168 198.818C604.009 200.156 606.504 200.825 609.653 200.825Z" fill="#FAE6FC"/>
<path d="M645.734 201.399V150.509H647.187V201.399H645.734Z" fill="#FAE6FC"/>
<path d="M677.874 202.116C674.434 202.116 671.285 201.303 668.426 199.679C665.568 198.006 663.315 195.76 661.667 192.941C660.02 190.074 659.196 186.92 659.196 183.48C659.196 180.039 660.02 176.909 661.667 174.09C663.315 171.223 665.568 168.977 668.426 167.353C671.285 165.68 674.434 164.844 677.874 164.844C681.315 164.844 684.464 165.68 687.323 167.353C690.181 168.977 692.41 171.223 694.009 174.09C695.656 176.909 696.48 180.039 696.48 183.48C696.48 183.575 696.48 183.695 696.48 183.838C696.48 183.982 696.48 184.101 696.48 184.197H660.65C660.747 187.303 661.57 190.122 663.121 192.654C664.671 195.139 666.731 197.098 669.298 198.532C671.866 199.965 674.725 200.682 677.874 200.682C681.605 200.682 684.876 199.822 687.686 198.102C690.545 196.334 692.483 194.016 693.5 191.149H695.026C694.348 193.347 693.161 195.282 691.465 196.955C689.818 198.58 687.807 199.846 685.433 200.754C683.107 201.662 680.588 202.116 677.874 202.116ZM695.026 182.763C694.929 179.657 694.106 176.862 692.555 174.377C691.053 171.844 688.994 169.861 686.378 168.428C683.81 166.994 680.975 166.277 677.874 166.277C674.725 166.277 671.866 166.994 669.298 168.428C666.731 169.861 664.671 171.844 663.121 174.377C661.57 176.862 660.747 179.657 660.65 182.763H695.026Z" fill="#FAE6FC"/>
<path d="M708.12 201.399V165.561H709.574V175.667C710.785 172.37 712.723 169.742 715.388 167.783C718.053 165.824 721.105 164.844 724.545 164.844C727.937 164.844 730.844 165.561 733.267 166.994C735.738 168.38 737.603 170.435 738.863 173.158C740.171 175.834 740.825 179.036 740.825 182.763V201.399H739.372V182.763C739.372 177.65 738.039 173.636 735.374 170.721C732.758 167.759 729.148 166.277 724.545 166.277C721.784 166.277 719.24 166.994 716.914 168.428C714.637 169.861 712.844 171.844 711.536 174.377C710.228 176.909 709.574 179.705 709.574 182.763V201.399H708.12Z" fill="#FAE6FC"/>
<path d="M770.45 202.116C766.332 202.116 763.28 201.16 761.293 199.249C759.307 197.289 758.313 194.422 758.313 190.647V166.994H748.865V165.561H757.586C757.829 165.561 757.998 165.489 758.095 165.346C758.241 165.202 758.313 165.035 758.313 164.844V156.96H759.912L759.767 165.561H777.936V166.994H759.767V190.647C759.767 194.088 760.639 196.62 762.383 198.245C764.128 199.87 766.768 200.682 770.305 200.682C772.534 200.682 775.078 200.228 777.936 199.32V200.682C776.87 201.064 775.611 201.399 774.157 201.686C772.703 201.972 771.468 202.116 770.45 202.116Z" fill="#FAE6FC"/>
<path d="M788.818 201.399V165.561H790.272V201.399H788.818ZM789.181 159.468L788.455 148H790.635L789.908 159.468H789.181Z" fill="#FAE6FC"/>
<path d="M806.278 201.399V165.561H807.731V175.667C808.943 172.37 810.881 169.742 813.545 167.783C816.21 165.824 819.263 164.844 822.703 164.844C826.094 164.844 829.002 165.561 831.424 166.994C833.895 168.38 835.761 170.435 837.02 173.158C838.329 175.834 838.983 179.036 838.983 182.763V201.399H837.529V182.763C837.529 177.65 836.197 173.636 833.532 170.721C830.915 167.759 827.306 166.277 822.703 166.277C819.941 166.277 817.397 166.994 815.072 168.428C812.794 169.861 811.002 171.844 809.694 174.377C808.385 176.909 807.731 179.705 807.731 182.763V201.399H806.278Z" fill="#FAE6FC"/>
<path d="M868.937 202.116C865.497 202.116 862.348 201.303 859.489 199.679C856.631 198.006 854.377 195.76 852.73 192.941C851.083 190.074 850.259 186.92 850.259 183.48C850.259 180.039 851.083 176.909 852.73 174.09C854.377 171.223 856.631 168.977 859.489 167.353C862.348 165.68 865.497 164.844 868.937 164.844C872.377 164.844 875.527 165.68 878.385 167.353C881.244 168.977 883.473 171.223 885.072 174.09C886.719 176.909 887.543 180.039 887.543 183.48C887.543 183.575 887.543 183.695 887.543 183.838C887.543 183.982 887.543 184.101 887.543 184.197H851.713C851.809 187.303 852.633 190.122 854.184 192.654C855.734 195.139 857.793 197.098 860.361 198.532C862.929 199.965 865.788 200.682 868.937 200.682C872.668 200.682 875.939 199.822 878.749 198.102C881.607 196.334 883.545 194.016 884.563 191.149H886.089C885.411 193.347 884.224 195.282 882.528 196.955C880.881 198.58 878.87 199.846 876.496 200.754C874.17 201.662 871.651 202.116 868.937 202.116ZM886.089 182.763C885.992 179.657 885.169 176.862 883.618 174.377C882.116 171.844 880.057 169.861 877.441 168.428C874.873 166.994 872.038 166.277 868.937 166.277C865.788 166.277 862.929 166.994 860.361 168.428C857.793 169.861 855.734 171.844 854.184 174.377C852.633 176.862 851.809 179.657 851.713 182.763H886.089Z" fill="#FAE6FC"/>
<path d="M897.584 210H896.131C897.1 208.614 897.875 207.205 898.456 205.771C899.086 204.338 899.425 202.976 899.474 201.686C899.425 201.686 899.353 201.686 899.256 201.686C899.207 201.686 899.159 201.686 899.11 201.686C898.626 201.686 898.214 201.518 897.875 201.184C897.536 200.849 897.366 200.443 897.366 199.965C897.366 199.631 897.439 199.344 897.584 199.105C897.778 198.819 897.996 198.603 898.238 198.46C898.529 198.269 898.844 198.173 899.183 198.173C899.716 198.173 900.152 198.365 900.491 198.747C900.83 199.129 901 199.631 901 200.252C901 201.733 900.637 203.477 899.91 205.484C899.183 207.491 898.408 208.997 897.584 210Z" fill="#FAE6FC"/>
</svg>
