<svg width="2354" height="781" viewBox="0 0 2354 781" fill="none" xmlns="http://www.w3.org/2000/svg">
<path d="M221.157 247.065V225.709L197 192.507H198.961L222.02 224.151L245.001 192.507H246.883L222.726 225.709V247.065H221.157Z" fill="#FAE6FC"/>
<path d="M263.365 247.844C259.6 247.844 256.149 246.961 253.011 245.194C249.926 243.376 247.469 240.934 245.639 237.868C243.861 234.75 242.972 231.321 242.972 227.58C242.972 223.839 243.861 220.435 245.639 217.37C247.469 214.252 249.926 211.81 253.011 210.044C256.149 208.225 259.6 207.316 263.365 207.316C267.129 207.316 270.554 208.225 273.639 210.044C276.777 211.81 279.234 214.252 281.012 217.37C282.842 220.435 283.757 223.839 283.757 227.58C283.757 231.321 282.842 234.75 281.012 237.868C279.234 240.934 276.777 243.376 273.639 245.194C270.554 246.961 267.129 247.844 263.365 247.844ZM263.365 246.285C266.868 246.285 270.057 245.48 272.933 243.869C275.809 242.207 278.058 239.946 279.679 237.089C281.352 234.231 282.188 231.061 282.188 227.58C282.188 224.099 281.352 220.929 279.679 218.071C278.058 215.214 275.809 212.979 272.933 211.369C270.057 209.706 266.868 208.875 263.365 208.875C259.861 208.875 256.672 209.706 253.796 211.369C250.92 212.979 248.645 215.214 246.972 218.071C245.351 220.929 244.541 224.099 244.541 227.58C244.541 231.061 245.351 234.231 246.972 237.089C248.645 239.946 250.92 242.207 253.796 243.869C256.672 245.48 259.861 246.285 263.365 246.285Z" fill="#FAE6FC"/>
<path d="M312.708 247.844C309.048 247.844 305.884 247.091 303.218 245.584C300.603 244.025 298.59 241.791 297.178 238.881C295.819 235.919 295.139 232.412 295.139 228.359V208.095H296.708V228.359C296.708 233.919 298.119 238.31 300.943 241.531C303.819 244.701 307.74 246.285 312.708 246.285C315.688 246.285 318.407 245.506 320.865 243.947C323.375 242.388 325.336 240.232 326.747 237.478C328.159 234.724 328.865 231.685 328.865 228.359V208.095H330.434V247.065H328.865V236.075C327.558 239.661 325.466 242.518 322.59 244.649C319.715 246.779 316.42 247.844 312.708 247.844Z" fill="#FAE6FC"/>
<path d="M347.701 247.065V208.095H349.27V219.318C350.472 215.733 352.407 212.849 355.074 210.667C357.741 208.433 360.773 207.316 364.172 207.316C366.891 207.316 369.218 207.861 371.153 208.952C373.087 210.044 374.551 211.654 375.545 213.785C376.591 215.863 377.113 218.383 377.113 221.345V222.904H375.545V221.345C375.545 217.344 374.551 214.278 372.564 212.148C370.63 209.966 367.832 208.875 364.172 208.875C361.453 208.875 358.943 209.68 356.642 211.291C354.394 212.901 352.59 215.084 351.231 217.838C349.923 220.539 349.27 223.527 349.27 226.801V247.065H347.701Z" fill="#FAE6FC"/>
<path d="M424.085 247.065L400.242 192.507H401.967L425.027 245.272H425.262L448.321 192.507H449.968L426.125 247.065H424.085Z" fill="#FAE6FC"/>
<path d="M462.106 248C458.027 248 454.916 247.091 452.772 245.272C450.628 243.454 449.556 241.011 449.556 237.946C449.556 234.984 450.576 232.672 452.615 231.009C454.707 229.295 457.217 228.125 460.145 227.502C463.073 226.827 466.42 226.359 470.184 226.099C473.844 225.891 476.616 225.528 478.498 225.008C480.433 224.488 481.4 223.579 481.4 222.28C481.4 218.331 480.067 215.11 477.4 212.616C474.786 210.122 471.387 208.875 467.204 208.875C463.125 208.875 459.753 210.018 457.086 212.304C454.472 214.59 452.798 217.76 452.066 221.812H450.498C450.968 218.851 451.936 216.279 453.4 214.096C454.916 211.914 456.851 210.251 459.204 209.108C461.557 207.913 464.223 207.316 467.204 207.316C470.341 207.316 473.086 207.965 475.439 209.264C477.845 210.511 479.701 212.304 481.008 214.642C482.315 216.98 482.969 219.682 482.969 222.748V245.506H489.243V247.065H481.479V235.764C480.119 239.453 477.662 242.414 474.106 244.649C470.55 246.883 466.55 248 462.106 248ZM462.106 246.441C465.766 246.441 469.06 245.662 471.988 244.103C474.916 242.544 477.217 240.44 478.89 237.79C480.564 235.14 481.4 232.23 481.4 229.061L481.479 225.164C480.642 225.839 479.413 226.359 477.792 226.723C476.171 227.086 474.027 227.346 471.361 227.502C471.204 227.502 471.021 227.528 470.812 227.58C470.655 227.58 470.472 227.58 470.263 227.58C463.57 228.048 458.707 229.113 455.674 230.775C452.641 232.386 451.125 234.776 451.125 237.946C451.125 240.648 452.092 242.752 454.027 244.259C456.014 245.714 458.707 246.441 462.106 246.441Z" fill="#FAE6FC"/>
<path d="M501.043 247.065V191.728H502.612V247.065H501.043Z" fill="#FAE6FC"/>
<path d="M535.729 247.844C532.016 247.844 528.618 246.961 525.533 245.194C522.448 243.376 520.016 240.934 518.238 237.868C516.461 234.75 515.572 231.321 515.572 227.58C515.572 223.839 516.461 220.435 518.238 217.37C520.016 214.252 522.448 211.81 525.533 210.044C528.618 208.225 532.016 207.316 535.729 207.316C539.441 207.316 542.84 208.225 545.925 210.044C549.01 211.81 551.415 214.252 553.141 217.37C554.919 220.435 555.808 223.839 555.808 227.58C555.808 227.684 555.808 227.814 555.808 227.97C555.808 228.125 555.808 228.255 555.808 228.359H517.14C517.245 231.737 518.134 234.802 519.807 237.556C521.48 240.258 523.703 242.388 526.474 243.947C529.245 245.506 532.33 246.285 535.729 246.285C539.755 246.285 543.285 245.35 546.317 243.48C549.402 241.557 551.494 239.037 552.592 235.919H554.239C553.507 238.31 552.226 240.414 550.396 242.232C548.618 243.999 546.448 245.376 543.886 246.363C541.376 247.351 538.657 247.844 535.729 247.844ZM554.239 226.801C554.134 223.423 553.246 220.384 551.572 217.682C549.951 214.928 547.729 212.771 544.906 211.213C542.134 209.654 539.075 208.875 535.729 208.875C532.33 208.875 529.245 209.654 526.474 211.213C523.703 212.771 521.48 214.928 519.807 217.682C518.134 220.384 517.245 223.423 517.14 226.801H554.239Z" fill="#FAE6FC"/>
<path d="M568.37 247.065V208.095H569.938V219.085C571.246 215.499 573.337 212.642 576.213 210.511C579.089 208.381 582.383 207.316 586.096 207.316C589.756 207.316 592.893 208.095 595.508 209.654C598.174 211.161 600.187 213.395 601.547 216.357C602.959 219.266 603.665 222.748 603.665 226.801V247.065H602.096V226.801C602.096 221.241 600.658 216.876 597.782 213.707C594.958 210.485 591.063 208.875 586.096 208.875C583.115 208.875 580.37 209.654 577.86 211.213C575.403 212.771 573.468 214.928 572.056 217.682C570.644 220.435 569.938 223.475 569.938 226.801V247.065H568.37Z" fill="#FAE6FC"/>
<path d="M635.636 247.844C631.191 247.844 627.897 246.805 625.753 244.727C623.609 242.596 622.537 239.479 622.537 235.374V209.654H612.341V208.095H621.753C622.015 208.095 622.198 208.017 622.302 207.861C622.459 207.705 622.537 207.524 622.537 207.316V198.742H624.263L624.106 208.095H643.714V209.654H624.106V235.374C624.106 239.115 625.047 241.869 626.93 243.635C628.812 245.402 631.662 246.285 635.479 246.285C637.884 246.285 640.629 245.792 643.714 244.804V246.285C642.564 246.701 641.204 247.065 639.636 247.376C638.067 247.688 636.734 247.844 635.636 247.844Z" fill="#FAE6FC"/>
<path d="M655.458 247.065V208.095H657.026V247.065H655.458ZM655.85 201.47L655.066 189H657.419L656.634 201.47H655.85Z" fill="#FAE6FC"/>
<path d="M674.3 247.065V208.095H675.869V219.085C677.176 215.499 679.267 212.642 682.143 210.511C685.019 208.381 688.313 207.316 692.026 207.316C695.686 207.316 698.823 208.095 701.438 209.654C704.104 211.161 706.117 213.395 707.477 216.357C708.889 219.266 709.595 222.748 709.595 226.801V247.065H708.026V226.801C708.026 221.241 706.588 216.876 703.712 213.707C700.889 210.485 696.993 208.875 692.026 208.875C689.045 208.875 686.3 209.654 683.79 211.213C681.333 212.771 679.398 214.928 677.986 217.682C676.574 220.435 675.869 223.475 675.869 226.801V247.065H674.3Z" fill="#FAE6FC"/>
<path d="M741.921 247.844C738.209 247.844 734.81 246.961 731.725 245.194C728.64 243.376 726.209 240.934 724.431 237.868C722.653 234.75 721.764 231.321 721.764 227.58C721.764 223.839 722.653 220.435 724.431 217.37C726.209 214.252 728.64 211.81 731.725 210.044C734.81 208.225 738.209 207.316 741.921 207.316C745.634 207.316 749.032 208.225 752.118 210.044C755.203 211.81 757.608 214.252 759.333 217.37C761.111 220.435 762 223.839 762 227.58C762 227.684 762 227.814 762 227.97C762 228.125 762 228.255 762 228.359H723.333C723.437 231.737 724.326 234.802 725.999 237.556C727.673 240.258 729.895 242.388 732.666 243.947C735.437 245.506 738.522 246.285 741.921 246.285C745.947 246.285 749.477 245.35 752.51 243.48C755.595 241.557 757.686 239.037 758.784 235.919H760.431C759.699 238.31 758.418 240.414 756.588 242.232C754.81 243.999 752.64 245.376 750.078 246.363C747.568 247.351 744.849 247.844 741.921 247.844ZM760.431 226.801C760.327 223.423 759.438 220.384 757.765 217.682C756.144 214.928 753.921 212.771 751.098 211.213C748.327 209.654 745.268 208.875 741.921 208.875C738.522 208.875 735.437 209.654 732.666 211.213C729.895 212.771 727.673 214.928 725.999 217.682C724.326 220.384 723.437 223.423 723.333 226.801H760.431Z" fill="#FAE6FC"/>
<path d="M128 461.938V319.062H132.049V461.938H128Z" fill="#FAE6FC"/>
<path d="M188.699 461.938V319.062H193.558L298.029 456.223V319.062H302.079V461.938H297.422L192.749 324.777V461.938H188.699Z" fill="#FAE6FC"/>
<path d="M358.737 461.938V319.062H398.217C412.659 319.062 425.482 322.123 436.685 328.247C447.888 334.234 456.594 342.67 462.803 353.556C469.012 364.306 472.116 376.621 472.116 390.5C472.116 404.379 469.012 416.762 462.803 427.648C456.594 438.398 447.888 446.834 436.685 452.958C425.482 458.945 412.659 461.938 398.217 461.938H358.737ZM398.217 457.856C411.85 457.856 423.93 455.067 434.458 449.488C445.121 443.773 453.354 435.812 459.158 425.607C465.097 415.401 468.067 403.699 468.067 390.5C468.067 377.301 465.097 365.599 459.158 355.393C453.354 345.188 445.121 337.295 434.458 331.716C423.93 326.001 411.85 323.144 398.217 323.144H362.786V457.856H398.217Z" fill="#FAE6FC"/>
<path d="M514.538 461.938V319.062H518.588V461.938H514.538Z" fill="#FAE6FC"/>
<path d="M633.952 465C620.185 465 607.767 461.802 596.699 455.407C585.631 448.875 576.925 439.963 570.581 428.669C564.237 417.238 561.065 404.516 561.065 390.5C561.065 376.484 564.237 363.83 570.581 352.536C576.925 341.105 585.631 332.193 596.699 325.797C607.767 319.266 620.185 316 633.952 316C647.72 316 660.137 319.266 671.205 325.797C682.273 332.193 690.979 341.105 697.323 352.536C703.667 363.83 706.839 376.484 706.839 390.5C706.839 404.516 703.667 417.238 697.323 428.669C690.979 439.963 682.273 448.875 671.205 455.407C660.137 461.802 647.72 465 633.952 465ZM633.952 460.918C646.91 460.918 658.585 457.856 668.978 451.733C679.506 445.61 687.74 437.241 693.679 426.627C699.753 415.878 702.79 403.835 702.79 390.5C702.79 377.165 699.753 365.19 693.679 354.577C687.74 343.827 679.506 335.39 668.978 329.267C658.585 323.144 646.91 320.082 633.952 320.082C620.994 320.082 609.252 323.144 598.724 329.267C588.33 335.39 580.097 343.827 574.023 354.577C568.084 365.19 565.115 377.165 565.115 390.5C565.115 403.835 568.084 415.878 574.023 426.627C580.097 437.241 588.33 445.61 598.724 451.733C609.252 457.856 620.994 460.918 633.952 460.918Z" fill="#FAE6FC"/>
<path d="M807.737 465C793.834 465 781.349 461.87 770.281 455.611C759.348 449.216 750.777 440.371 744.568 429.077C738.359 417.783 735.255 404.924 735.255 390.5C735.255 376.076 738.359 363.217 744.568 351.923C750.777 340.629 759.348 331.853 770.281 325.593C781.349 319.198 793.834 316 807.737 316C819.479 316 830.075 318.245 839.523 322.736C848.972 327.226 856.8 333.621 863.009 341.922C869.218 350.222 873.335 359.952 875.359 371.11H871.108C868.138 355.461 860.984 343.079 849.646 333.962C838.309 324.709 824.339 320.082 807.737 320.082C794.509 320.082 782.699 323.076 772.306 329.063C761.912 334.914 753.814 343.215 748.01 353.964C742.206 364.578 739.304 376.757 739.304 390.5C739.304 404.107 742.206 416.286 748.01 427.036C753.814 437.649 761.912 445.95 772.306 451.937C782.699 457.924 794.509 460.918 807.737 460.918C820.019 460.918 831.087 458.196 840.941 452.753C850.794 447.174 858.487 439.554 864.021 429.893C869.555 420.096 872.322 409.006 872.322 396.623V392.541H811.381V388.459H876.372V461.938H872.322V419.279C868.003 433.431 860.04 444.589 848.432 452.753C836.959 460.918 823.394 465 807.737 465Z" fill="#FAE6FC"/>
<path d="M980.156 465C966.389 465 953.971 461.802 942.903 455.407C931.835 448.875 923.129 439.963 916.785 428.669C910.441 417.238 907.269 404.516 907.269 390.5C907.269 376.484 910.441 363.83 916.785 352.536C923.129 341.105 931.835 332.193 942.903 325.797C953.971 319.266 966.389 316 980.156 316C993.924 316 1006.34 319.266 1017.41 325.797C1028.48 332.193 1037.18 341.105 1043.53 352.536C1049.87 363.83 1053.04 376.484 1053.04 390.5C1053.04 404.516 1049.87 417.238 1043.53 428.669C1037.18 439.963 1028.48 448.875 1017.41 455.407C1006.34 461.802 993.924 465 980.156 465ZM980.156 460.918C993.114 460.918 1004.79 457.856 1015.18 451.733C1025.71 445.61 1033.94 437.241 1039.88 426.627C1045.96 415.878 1048.99 403.835 1048.99 390.5C1048.99 377.165 1045.96 365.19 1039.88 354.577C1033.94 343.827 1025.71 335.39 1015.18 329.267C1004.79 323.144 993.114 320.082 980.156 320.082C967.198 320.082 955.456 323.144 944.927 329.267C934.534 335.39 926.301 343.827 920.227 354.577C914.288 365.19 911.319 377.165 911.319 390.5C911.319 403.835 914.288 415.878 920.227 426.627C926.301 437.241 934.534 445.61 944.927 451.733C955.456 457.856 967.198 460.918 980.156 460.918Z" fill="#FAE6FC"/>
<path d="M1146.25 461.938V319.062H1152.73L1216.7 458.264L1280.48 319.062H1286.76V461.938H1282.71V323.552L1219.13 461.938H1213.87L1150.3 323.552V461.938H1146.25Z" fill="#FAE6FC"/>
<path d="M1318.06 461.938L1379.61 319.062H1384.88L1446.43 461.938H1441.97L1421.72 414.993H1342.56L1322.32 461.938H1318.06ZM1344.18 411.115H1420.11L1382.24 322.94L1344.18 411.115Z" fill="#FAE6FC"/>
<path d="M1536.13 465C1522.23 465 1509.74 461.87 1498.67 455.611C1487.74 449.216 1479.17 440.371 1472.96 429.077C1466.75 417.783 1463.65 404.924 1463.65 390.5C1463.65 376.076 1466.75 363.217 1472.96 351.923C1479.17 340.629 1487.74 331.853 1498.67 325.593C1509.74 319.198 1522.23 316 1536.13 316C1547.87 316 1558.47 318.245 1567.92 322.736C1577.36 327.226 1585.19 333.621 1591.4 341.922C1597.61 350.222 1601.73 359.952 1603.75 371.11H1599.5C1596.53 355.461 1589.38 343.079 1578.04 333.962C1566.7 324.709 1552.73 320.082 1536.13 320.082C1522.9 320.082 1511.09 323.076 1500.7 329.063C1490.31 334.914 1482.21 343.215 1476.4 353.964C1470.6 364.578 1467.7 376.757 1467.7 390.5C1467.7 404.107 1470.6 416.286 1476.4 427.036C1482.21 437.649 1490.31 445.95 1500.7 451.937C1511.09 457.924 1522.9 460.918 1536.13 460.918C1548.41 460.918 1559.48 458.196 1569.33 452.753C1579.19 447.174 1586.88 439.554 1592.41 429.893C1597.95 420.096 1600.71 409.006 1600.71 396.623V392.541H1539.77V388.459H1604.76V461.938H1600.71V419.279C1596.4 433.431 1588.43 444.589 1576.82 452.753C1565.35 460.918 1551.79 465 1536.13 465Z" fill="#FAE6FC"/>
<path d="M1624.53 461.938L1686.08 319.062H1691.34L1752.89 461.938H1748.43L1728.19 414.993H1649.02L1628.78 461.938H1624.53ZM1650.64 411.115H1726.57L1688.71 322.94L1650.64 411.115Z" fill="#FAE6FC"/>
<path d="M1766.06 461.938V457.856L1868.1 323.144H1770.31V319.062H1873.16V323.144L1771.12 457.856H1873.77V461.938H1766.06Z" fill="#FAE6FC"/>
<path d="M1910.23 461.938V319.062H1914.28V461.938H1910.23Z" fill="#FAE6FC"/>
<path d="M1970.93 461.938V319.062H1975.79L2080.26 456.223V319.062H2084.31V461.938H2079.65L1974.98 324.777V461.938H1970.93Z" fill="#FAE6FC"/>
<path d="M2140.97 461.938V319.062H2215.88V323.144H2145.01V388.459H2198.46V392.541H2145.01V457.856H2226V461.938H2140.97Z" fill="#FAE6FC"/>
</svg>
