<svg width="2559" height="633" viewBox="0 0 2559 633" fill="none" xmlns="http://www.w3.org/2000/svg">
<path d="M296 420.77V257.757H300.452V420.77H296Z" fill="#FAE6FC"/>
<path d="M362.735 420.77V257.757H368.077L482.936 414.25V257.757H487.388V420.77H482.268L367.187 264.277V342.524V420.77H362.735Z" fill="#FAE6FC"/>
<path d="M549.679 420.77V257.757H593.085C608.963 257.757 623.061 261.25 635.378 268.236C647.695 275.067 657.266 284.693 664.093 297.113C670.919 309.378 674.332 323.428 674.332 339.264C674.332 355.099 670.919 369.227 664.093 381.647C657.266 393.912 647.695 403.538 635.378 410.524C623.061 417.355 608.963 420.77 593.085 420.77H549.679ZM593.085 416.113C608.073 416.113 621.354 412.93 632.929 406.565C644.653 400.044 653.705 390.962 660.086 379.318C666.615 367.675 669.88 354.323 669.88 339.264C669.88 324.204 666.615 310.853 660.086 299.209C653.705 287.565 644.653 278.56 632.929 272.195C621.354 265.675 608.073 262.414 593.085 262.414H554.131V339.264V416.113H593.085Z" fill="#FAE6FC"/>
<path d="M720.972 420.77V257.757H725.424V420.77H720.972Z" fill="#FAE6FC"/>
<path d="M868.543 424.264C853.258 424.264 839.532 420.693 827.363 413.551C815.343 406.254 805.92 396.163 799.094 383.277C792.268 370.391 788.855 355.72 788.855 339.264C788.855 322.807 792.268 308.136 799.094 295.25C805.92 282.364 815.343 272.35 827.363 265.209C839.532 257.912 853.258 254.264 868.543 254.264C881.454 254.264 893.103 256.825 903.491 261.949C913.878 267.072 922.485 274.369 929.312 283.839C936.138 293.309 940.664 304.41 942.89 317.14H938.215C934.951 299.286 927.086 285.159 914.62 274.757C902.155 264.2 886.796 258.921 868.543 258.921C854 258.921 841.016 262.337 829.589 269.168C818.163 275.844 809.259 285.314 802.878 297.579C796.497 309.688 793.306 323.583 793.306 339.264C793.306 354.789 796.497 368.684 802.878 380.949C809.259 393.058 818.163 402.528 829.589 409.36C841.016 416.191 854 419.606 868.543 419.606C882.047 419.606 894.216 416.501 905.049 410.291C915.882 403.926 924.34 395.232 930.424 384.209C936.509 373.031 939.551 360.378 939.551 346.25V341.592H872.55V336.935H944.003V420.77H939.551V372.099C934.802 388.245 926.047 400.976 913.285 410.291C900.671 419.606 885.757 424.264 868.543 424.264Z" fill="#FAE6FC"/>
<path d="M1075.34 424.264C1060.2 424.264 1046.55 420.615 1034.38 413.318C1022.21 405.866 1012.64 395.697 1005.67 382.812C998.692 369.77 995.204 355.254 995.204 339.264C995.204 323.273 998.692 308.834 1005.67 295.949C1012.64 282.907 1022.21 272.739 1034.38 265.442C1046.55 257.99 1060.2 254.264 1075.34 254.264C1090.47 254.264 1104.13 257.99 1116.3 265.442C1128.46 272.739 1140.5 282.907 1147.47 295.949C1154.45 308.834 1157.93 323.273 1157.93 339.264C1157.93 355.254 1154.45 369.77 1147.47 382.812C1140.5 395.697 1128.46 405.866 1116.3 413.318C1104.13 420.615 1090.47 424.264 1075.34 424.264ZM1075.34 419.606C1089.58 419.606 1102.42 416.113 1113.85 409.127C1125.42 402.14 1134.47 392.592 1141 380.483C1147.68 368.218 1153.48 354.478 1153.48 339.264C1153.48 324.049 1147.68 310.387 1141 298.277C1134.47 286.012 1125.42 276.387 1113.85 269.401C1102.42 262.414 1089.58 258.921 1075.34 258.921C1061.09 258.921 1048.18 262.414 1036.61 269.401C1025.18 276.387 1016.13 286.012 1009.45 298.277C1002.92 310.387 999.656 324.049 999.656 339.264C999.656 354.478 1002.92 368.218 1009.45 380.483C1016.13 392.592 1025.18 402.14 1036.61 409.127C1048.18 416.113 1061.09 419.606 1075.34 419.606Z" fill="#FAE6FC"/>
<path d="M1283.89 420.77V257.757H1291.01L1361.35 416.579L1431.47 257.757H1438.37V420.77H1433.91V262.88L1364.02 420.77H1358.23L1288.34 262.88V420.77H1283.89Z" fill="#FAE6FC"/>
<path d="M1472.79 420.77L1540.46 257.757H1546.24L1613.91 420.77H1609.01L1586.75 367.209H1499.72L1477.46 420.77H1472.79ZM1501.5 362.784H1584.97L1543.35 262.181L1501.5 362.784Z" fill="#FAE6FC"/>
<path d="M1712.53 424.264C1697.25 424.264 1683.52 420.693 1671.35 413.551C1659.33 406.254 1649.91 396.163 1643.09 383.277C1636.26 370.391 1632.85 355.72 1632.85 339.264C1632.85 322.807 1636.26 308.136 1643.09 295.25C1649.91 282.364 1659.33 272.35 1671.35 265.209C1683.52 257.912 1697.25 254.264 1712.53 254.264C1725.45 254.264 1737.09 256.825 1747.48 261.949C1757.87 267.072 1766.48 274.369 1773.3 283.839C1780.13 293.309 1784.66 304.41 1786.88 317.14H1782.21C1778.94 299.286 1771.08 285.159 1758.61 274.757C1746.15 264.2 1730.79 258.921 1712.53 258.921C1697.99 258.921 1685.01 262.337 1673.58 269.168C1662.15 275.844 1653.25 285.314 1646.87 297.579C1640.49 309.688 1637.3 323.583 1637.3 339.264C1637.3 354.789 1640.49 368.684 1646.87 380.949C1653.25 393.058 1662.15 402.528 1673.58 409.36C1685.01 416.191 1697.99 419.606 1712.53 419.606C1726.04 419.606 1738.21 416.501 1749.04 410.291C1759.87 403.926 1768.33 395.232 1774.42 384.209C1780.5 373.031 1783.54 360.378 1783.54 346.25V341.592H1716.54V336.935H1787.99V420.77H1783.54V372.099C1778.79 388.245 1770.04 400.976 1757.28 410.291C1744.66 419.606 1729.75 424.264 1712.53 424.264Z" fill="#FAE6FC"/>
<path d="M1809.72 420.77L1877.39 257.757H1883.18L1950.85 420.77H1945.95L1923.69 367.209H1836.66L1814.4 420.77H1809.72ZM1838.44 362.784H1921.91L1880.28 262.181L1838.44 362.784Z" fill="#FAE6FC"/>
<path d="M1965.33 420.77V416.113L2077.52 262.414H1970V257.757H2083.08V262.414L1970.89 416.113H2083.75V420.77H1965.33Z" fill="#FAE6FC"/>
<path d="M2123.83 420.77V257.757H2128.28V420.77H2123.83Z" fill="#FAE6FC"/>
<path d="M2190.57 420.77V257.757H2195.91L2310.77 414.25V257.757H2315.22V420.77H2310.1L2195.02 264.277V420.77H2190.57Z" fill="#FAE6FC"/>
<path d="M2377.51 420.77V257.757H2459.87V262.414H2381.96V336.935H2440.73V341.592H2381.96V416.113H2471V420.77H2377.51Z" fill="#FAE6FC"/>
<path d="M367.638 179.624V153.65L338 113.266H340.406L368.696 151.754L396.891 113.266H399.2L369.562 153.65V179.624H367.638Z" fill="#FAE6FC"/>
<path d="M419.421 180.572C414.802 180.572 410.568 179.498 406.719 177.349C402.934 175.137 399.919 172.167 397.673 168.438C395.492 164.646 394.402 160.475 394.402 155.925C394.402 151.375 395.492 147.235 397.673 143.506C399.919 139.714 402.934 136.744 406.719 134.595C410.568 132.383 414.802 131.277 419.421 131.277C424.04 131.277 428.241 132.383 432.026 134.595C435.875 136.744 438.891 139.714 441.072 143.506C443.317 147.235 444.44 151.375 444.44 155.925C444.44 160.475 443.317 164.646 441.072 168.438C438.891 172.167 435.875 175.137 432.026 177.349C428.241 179.498 424.04 180.572 419.421 180.572ZM419.421 178.676C423.719 178.676 427.632 177.697 431.16 175.738C434.689 173.715 437.447 170.966 439.436 167.49C441.489 164.014 442.515 160.159 442.515 155.925C442.515 151.691 441.489 147.835 439.436 144.36C437.447 140.884 434.689 138.166 431.16 136.207C427.632 134.185 423.719 133.173 419.421 133.173C415.123 133.173 411.209 134.185 407.681 136.207C404.153 138.166 401.362 140.884 399.309 144.36C397.321 147.835 396.326 151.691 396.326 155.925C396.326 160.159 397.321 164.014 399.309 167.49C401.362 170.966 404.153 173.715 407.681 175.738C411.209 177.697 415.123 178.676 419.421 178.676Z" fill="#FAE6FC"/>
<path d="M479.959 180.572C475.468 180.572 471.587 179.656 468.315 177.823C465.108 175.927 462.638 173.21 460.906 169.671C459.238 166.068 458.404 161.802 458.404 156.873V132.225H460.328V156.873C460.328 163.635 462.06 168.975 465.525 172.894C469.053 176.749 473.864 178.676 479.959 178.676C483.615 178.676 486.951 177.728 489.966 175.832C493.046 173.936 495.451 171.314 497.183 167.964C498.915 164.615 499.781 160.918 499.781 156.873V132.225H501.706V179.624H499.781V166.258C498.178 170.619 495.612 174.094 492.083 176.686C488.555 179.277 484.513 180.572 479.959 180.572Z" fill="#FAE6FC"/>
<path d="M522.891 179.624V132.225H524.815V145.876C526.291 141.516 528.665 138.008 531.936 135.354C535.208 132.636 538.929 131.277 543.099 131.277C546.434 131.277 549.289 131.941 551.663 133.268C554.036 134.595 555.833 136.555 557.051 139.146C558.334 141.674 558.976 144.739 558.976 148.341V150.237H557.051V148.341C557.051 143.475 555.833 139.746 553.395 137.155C551.021 134.501 547.589 133.173 543.099 133.173C539.763 133.173 536.683 134.153 533.861 136.112C531.102 138.071 528.889 140.726 527.221 144.075C525.617 147.361 524.815 150.995 524.815 154.977V179.624H522.891Z" fill="#FAE6FC"/>
<path d="M616.605 179.624L587.352 113.266H589.469L617.759 177.444H618.048L646.339 113.266H648.359L619.106 179.624H616.605Z" fill="#FAE6FC"/>
<path d="M663.251 180.762C658.247 180.762 654.43 179.656 651.8 177.444C649.169 175.232 647.854 172.262 647.854 168.533C647.854 164.931 649.105 162.118 651.607 160.096C654.173 158.01 657.252 156.588 660.845 155.83C664.437 155.008 668.543 154.44 673.162 154.124C677.653 153.871 681.053 153.429 683.362 152.797C685.736 152.165 686.922 151.059 686.922 149.479C686.922 144.676 685.287 140.757 682.015 137.724C678.807 134.69 674.637 133.173 669.505 133.173C664.501 133.173 660.364 134.564 657.092 137.345C653.884 140.125 651.832 143.98 650.934 148.91H649.009C649.586 145.308 650.773 142.179 652.569 139.525C654.43 136.871 656.803 134.848 659.69 133.458C662.577 132.004 665.849 131.277 669.505 131.277C673.354 131.277 676.722 132.067 679.609 133.647C682.56 135.164 684.837 137.345 686.441 140.188C688.045 143.032 688.847 146.319 688.847 150.047V177.728H696.545V179.624H687.019V165.879C685.351 170.366 682.336 173.968 677.973 176.686C673.611 179.403 668.703 180.762 663.251 180.762ZM663.251 178.866C667.741 178.866 671.783 177.918 675.375 176.022C678.968 174.126 681.79 171.566 683.843 168.343C685.896 165.12 686.922 161.581 686.922 157.726L687.019 152.986C685.992 153.808 684.485 154.44 682.496 154.882C680.507 155.324 677.877 155.64 674.605 155.83C674.413 155.83 674.188 155.862 673.932 155.925C673.739 155.925 673.515 155.925 673.258 155.925C665.047 156.494 659.081 157.789 655.36 159.812C651.639 161.771 649.779 164.678 649.779 168.533C649.779 171.819 650.966 174.379 653.339 176.212C655.777 177.981 659.081 178.866 663.251 178.866Z" fill="#FAE6FC"/>
<path d="M711.022 179.624V112.318H712.946V179.624H711.022Z" fill="#FAE6FC"/>
<path d="M753.577 180.572C749.022 180.572 744.852 179.498 741.067 177.349C737.282 175.137 734.299 172.167 732.118 168.438C729.937 164.646 728.846 160.475 728.846 155.925C728.846 151.375 729.937 147.235 732.118 143.506C734.299 139.714 737.282 136.744 741.067 134.595C744.852 132.383 749.022 131.277 753.577 131.277C758.132 131.277 762.301 132.383 766.086 134.595C769.871 136.744 772.822 139.714 774.939 143.506C777.12 147.235 778.211 151.375 778.211 155.925C778.211 156.051 778.211 156.209 778.211 156.399C778.211 156.588 778.211 156.746 778.211 156.873H730.771C730.899 160.981 731.99 164.709 734.043 168.059C736.096 171.345 738.822 173.936 742.222 175.832C745.622 177.728 749.407 178.676 753.577 178.676C758.516 178.676 762.847 177.539 766.567 175.264C770.352 172.925 772.918 169.86 774.266 166.068H776.286C775.388 168.975 773.816 171.535 771.571 173.747C769.39 175.896 766.728 177.57 763.584 178.771C760.505 179.972 757.169 180.572 753.577 180.572ZM776.286 154.977C776.158 150.869 775.067 147.172 773.015 143.886C771.026 140.536 768.299 137.913 764.835 136.017C761.435 134.121 757.682 133.173 753.577 133.173C749.407 133.173 745.622 134.121 742.222 136.017C738.822 137.913 736.096 140.536 734.043 143.886C731.99 147.172 730.899 150.869 730.771 154.977H776.286Z" fill="#FAE6FC"/>
<path d="M793.623 179.624V132.225H795.547V145.592C797.151 141.231 799.717 137.755 803.246 135.164C806.774 132.573 810.815 131.277 815.37 131.277C819.861 131.277 823.71 132.225 826.917 134.121C830.189 135.954 832.659 138.672 834.327 142.274C836.059 145.813 836.925 150.047 836.925 154.977V179.624H835.001V154.977C835.001 148.215 833.236 142.906 829.708 139.051C826.244 135.133 821.465 133.173 815.37 133.173C811.714 133.173 808.346 134.121 805.266 136.017C802.251 137.913 799.878 140.536 798.146 143.886C796.413 147.235 795.547 150.932 795.547 154.977V179.624H793.623Z" fill="#FAE6FC"/>
<path d="M876.149 180.572C870.697 180.572 866.655 179.308 864.025 176.78C861.395 174.189 860.08 170.397 860.08 165.405V134.121H847.57V132.225H859.117C859.438 132.225 859.663 132.131 859.791 131.941C859.983 131.751 860.08 131.53 860.08 131.277V120.85H862.197L862.004 132.225H886.061V134.121H862.004V165.405C862.004 169.955 863.159 173.304 865.468 175.453C867.778 177.602 871.274 178.676 875.957 178.676C878.908 178.676 882.276 178.076 886.061 176.875V178.676C884.65 179.182 882.982 179.624 881.057 180.003C879.132 180.383 877.497 180.572 876.149 180.572Z" fill="#FAE6FC"/>
<path d="M900.469 179.624V132.225H902.393V179.624H900.469ZM900.95 124.168L899.987 109H902.874L901.912 124.168H900.95Z" fill="#FAE6FC"/>
<path d="M923.586 179.624V132.225H925.51V145.592C927.114 141.231 929.68 137.755 933.208 135.164C936.737 132.573 940.778 131.277 945.333 131.277C949.823 131.277 953.673 132.225 956.88 134.121C960.152 135.954 962.622 138.672 964.289 142.274C966.022 145.813 966.888 150.047 966.888 154.977V179.624H964.963V154.977C964.963 148.215 963.199 142.906 959.671 139.051C956.206 135.133 951.427 133.173 945.333 133.173C941.676 133.173 938.308 134.121 935.229 136.017C932.214 137.913 929.84 140.536 928.108 143.886C926.376 147.235 925.51 150.932 925.51 154.977V179.624H923.586Z" fill="#FAE6FC"/>
<path d="M1006.55 180.572C1001.99 180.572 997.824 179.498 994.039 177.349C990.254 175.137 987.271 172.167 985.09 168.438C982.908 164.646 981.818 160.475 981.818 155.925C981.818 151.375 982.908 147.235 985.09 143.506C987.271 139.714 990.254 136.744 994.039 134.595C997.824 132.383 1001.99 131.277 1006.55 131.277C1011.1 131.277 1015.27 132.383 1019.06 134.595C1022.84 136.744 1025.79 139.714 1027.91 143.506C1030.09 147.235 1031.18 151.375 1031.18 155.925C1031.18 156.051 1031.18 156.209 1031.18 156.399C1031.18 156.588 1031.18 156.746 1031.18 156.873H983.742C983.871 160.981 984.961 164.709 987.014 168.059C989.067 171.345 991.793 173.936 995.193 175.832C998.593 177.728 1002.38 178.676 1006.55 178.676C1011.49 178.676 1015.82 177.539 1019.54 175.264C1023.32 172.925 1025.89 169.86 1027.24 166.068H1029.26C1028.36 168.975 1026.79 171.535 1024.54 173.747C1022.36 175.896 1019.7 177.57 1016.56 178.771C1013.48 179.972 1010.14 180.572 1006.55 180.572ZM1029.26 154.977C1029.13 150.869 1028.04 147.172 1025.99 143.886C1024 140.536 1021.27 137.913 1017.81 136.017C1014.41 134.121 1010.65 133.173 1006.55 133.173C1002.38 133.173 998.593 134.121 995.193 136.017C991.793 137.913 989.067 140.536 987.014 143.886C984.961 147.172 983.871 150.869 983.742 154.977H1029.26Z" fill="#FAE6FC"/>
<path d="M1036.29 190.264H1034.5C1035.69 188.506 1036.65 186.718 1037.37 184.9C1038.14 183.082 1038.56 181.354 1038.62 179.718C1038.56 179.718 1038.47 179.718 1038.35 179.718C1038.29 179.718 1038.23 179.718 1038.17 179.718C1037.57 179.718 1037.07 179.506 1036.65 179.082C1036.23 178.658 1036.02 178.142 1036.02 177.536C1036.02 177.112 1036.11 176.748 1036.29 176.445C1036.53 176.082 1036.8 175.809 1037.1 175.627C1037.46 175.385 1037.84 175.264 1038.26 175.264C1038.92 175.264 1039.46 175.506 1039.87 175.991C1040.29 176.476 1040.5 177.112 1040.5 177.9C1040.5 179.779 1040.05 181.991 1039.16 184.536C1038.26 187.082 1037.31 188.991 1036.29 190.264Z" fill="#FAE6FC"/>
</svg>
