<svg width="240" height="57" viewBox="0 0 240 57" fill="none" xmlns="http://www.w3.org/2000/svg">
<path d="M0 56.1972V0H1.62489V56.1972H0Z" fill="white"/>
<path d="M35.4067 57C30.5321 57 26.3073 55.8493 22.7326 53.5479C19.1578 51.2465 17.0455 47.8479 16.3955 43.3521H18.0204C18.6704 47.3662 20.6202 50.3901 23.87 52.4239C27.1198 54.4042 30.9383 55.3944 35.3255 55.3944C37.3837 55.3944 39.496 55.1 41.6626 54.5113C43.8832 53.9225 45.7519 52.9324 47.2684 51.5408C48.8391 50.1493 49.6245 48.3563 49.6245 46.162C49.6245 44.1282 49.0287 42.5225 47.8371 41.3451C46.6455 40.1676 45.129 39.3113 43.2874 38.7761C41.5001 38.2408 39.0086 37.7056 35.813 37.1704C35.5421 37.1169 35.2442 37.0634 34.9193 37.0099C34.5943 36.9563 34.2964 36.9028 34.0256 36.8493C30.3966 36.2606 27.4989 35.6718 25.3324 35.0831C23.1659 34.4944 21.3243 33.531 19.8078 32.193C18.3454 30.8549 17.6142 28.9817 17.6142 26.5732C17.6142 23.9507 18.3725 21.8099 19.889 20.1507C21.4598 18.438 23.4367 17.207 25.8199 16.4577C28.203 15.6549 30.7487 15.2535 33.4569 15.2535C38.0065 15.2535 41.8792 16.4042 45.0748 18.7056C48.3246 20.9535 50.2203 24.2183 50.7619 28.5H49.137C48.5413 24.593 46.7539 21.6761 43.7749 19.7493C40.8501 17.8225 37.3024 16.8592 33.1319 16.8592C29.5571 16.8592 26.3344 17.6352 23.4638 19.1873C20.6473 20.7394 19.2391 23.2014 19.2391 26.5732C19.2391 28.3394 19.7536 29.7577 20.7827 30.8282C21.866 31.8986 23.2471 32.7282 24.9262 33.3169C26.6594 33.8521 28.8259 34.3338 31.4257 34.762C31.8049 34.8155 32.184 34.8958 32.5632 35.0028C32.9965 35.0563 33.4027 35.1099 33.7818 35.1634C33.9443 35.2169 34.1068 35.2437 34.2693 35.2437C34.4318 35.2437 34.6214 35.2704 34.838 35.3239C38.4669 35.9127 41.3647 36.5282 43.5312 37.1704C45.6977 37.8127 47.5122 38.8563 48.9746 40.3014C50.4911 41.693 51.2494 43.6465 51.2494 46.162C51.2494 48.731 50.4099 50.8183 48.7308 52.4239C47.0518 54.0296 44.9936 55.207 42.5562 55.9563C40.1731 56.6521 37.7899 57 35.4067 57Z" fill="white"/>
<path d="M78.2505 57C73.3758 57 69.1511 55.8493 65.5764 53.5479C62.0016 51.2465 59.8892 47.8479 59.2393 43.3521H60.8642C61.5141 47.3662 63.464 50.3901 66.7138 52.4239C69.9636 54.4042 73.782 55.3944 78.1692 55.3944C80.2274 55.3944 82.3398 55.1 84.5063 54.5113C86.727 53.9225 88.5956 52.9324 90.1122 51.5408C91.6829 50.1493 92.4683 48.3563 92.4683 46.162C92.4683 44.1282 91.8725 42.5225 90.6809 41.3451C89.4893 40.1676 87.9728 39.3113 86.1312 38.7761C84.3438 38.2408 81.8523 37.7056 78.6567 37.1704C78.3859 37.1169 78.088 37.0634 77.763 37.0099C77.4381 36.9563 77.1402 36.9028 76.8693 36.8493C73.2404 36.2606 70.3427 35.6718 68.1762 35.0831C66.0097 34.4944 64.1681 33.531 62.6516 32.193C61.1892 30.8549 60.458 28.9817 60.458 26.5732C60.458 23.9507 61.2162 21.8099 62.7328 20.1507C64.3035 18.438 66.2805 17.207 68.6636 16.4577C71.0468 15.6549 73.5925 15.2535 76.3006 15.2535C80.8503 15.2535 84.723 16.4042 87.9186 18.7056C91.1684 20.9535 93.0641 24.2183 93.6057 28.5H91.9808C91.385 24.593 89.5976 21.6761 86.6187 19.7493C83.6939 17.8225 80.1462 16.8592 75.9757 16.8592C72.4009 16.8592 69.1782 17.6352 66.3076 19.1873C63.4911 20.7394 62.0828 23.2014 62.0828 26.5732C62.0828 28.3394 62.5974 29.7577 63.6265 30.8282C64.7097 31.8986 66.0909 32.7282 67.77 33.3169C69.5032 33.8521 71.6697 34.3338 74.2695 34.762C74.6487 34.8155 75.0278 34.8958 75.4069 35.0028C75.8402 35.0563 76.2465 35.1099 76.6256 35.1634C76.7881 35.2169 76.9506 35.2437 77.1131 35.2437C77.2756 35.2437 77.4651 35.2704 77.6818 35.3239C81.3107 35.9127 84.2084 36.5282 86.3749 37.1704C88.5415 37.8127 90.3559 38.8563 91.8183 40.3014C93.3349 41.693 94.0932 43.6465 94.0932 46.162C94.0932 48.731 93.2536 50.8183 91.5746 52.4239C89.8955 54.0296 87.8373 55.207 85.4 55.9563C83.0168 56.6521 80.6337 57 78.2505 57Z" fill="white"/>
<path d="M124.201 57C120.409 57 117.132 56.2239 114.37 54.6718C111.662 53.0662 109.577 50.7648 108.114 47.7676C106.706 44.7169 106.002 41.1042 106.002 36.9296V16.0563H107.627V36.9296C107.627 42.6563 109.089 47.1789 112.014 50.4972C114.993 53.762 119.055 55.3944 124.201 55.3944C127.288 55.3944 130.104 54.5915 132.65 52.9859C135.25 51.3803 137.281 49.1592 138.743 46.3225C140.206 43.4859 140.937 40.3549 140.937 36.9296V16.0563H142.562V56.1972H140.937V44.8775C139.583 48.5704 137.416 51.5141 134.437 53.7085C131.458 55.9028 128.046 57 124.201 57Z" fill="white"/>
<path d="M176.86 57C173.014 57 169.494 56.0901 166.298 54.2704C163.102 52.3972 160.584 49.8817 158.742 46.7239C156.901 43.5127 155.98 39.9803 155.98 36.1268C155.98 32.2732 156.901 28.7676 158.742 25.6099C160.584 22.3986 163.102 19.8831 166.298 18.0634C169.494 16.1901 173.014 15.2535 176.86 15.2535C180.705 15.2535 184.226 16.1901 187.421 18.0634C190.617 19.8831 193.109 22.3986 194.896 25.6099C196.738 28.7676 197.658 32.2732 197.658 36.1268C197.658 36.2338 197.658 36.3676 197.658 36.5282C197.658 36.6887 197.658 36.8225 197.658 36.9296H157.605C157.713 40.4085 158.634 43.5662 160.367 46.4028C162.1 49.1859 164.402 51.3803 167.273 52.9859C170.144 54.5915 173.339 55.3944 176.86 55.3944C181.03 55.3944 184.686 54.431 187.828 52.5042C191.023 50.5239 193.19 47.9282 194.327 44.7169H196.033C195.275 47.1789 193.948 49.3465 192.052 51.2197C190.211 53.0394 187.963 54.4577 185.309 55.4746C182.709 56.4915 179.893 57 176.86 57ZM196.033 35.3239C195.925 31.8451 195.004 28.7141 193.271 25.931C191.592 23.0944 189.29 20.8732 186.365 19.2676C183.495 17.662 180.326 16.8592 176.86 16.8592C173.339 16.8592 170.144 17.662 167.273 19.2676C164.402 20.8732 162.1 23.0944 160.367 25.931C158.634 28.7141 157.713 31.8451 157.605 35.3239H196.033Z" fill="white"/>
<path d="M224.157 57C219.283 57 215.058 55.8493 211.483 53.5479C207.908 51.2465 205.796 47.8479 205.146 43.3521H206.771C207.421 47.3662 209.371 50.3901 212.621 52.4239C215.87 54.4042 219.689 55.3944 224.076 55.3944C226.134 55.3944 228.247 55.1 230.413 54.5113C232.634 53.9225 234.502 52.9324 236.019 51.5408C237.59 50.1493 238.375 48.3563 238.375 46.162C238.375 44.1282 237.779 42.5225 236.588 41.3451C235.396 40.1676 233.88 39.3113 232.038 38.7761C230.251 38.2408 227.759 37.7056 224.564 37.1704C224.293 37.1169 223.995 37.0634 223.67 37.0099C223.345 36.9563 223.047 36.9028 222.776 36.8493C219.147 36.2606 216.25 35.6718 214.083 35.0831C211.917 34.4944 210.075 33.531 208.558 32.193C207.096 30.8549 206.365 28.9817 206.365 26.5732C206.365 23.9507 207.123 21.8099 208.64 20.1507C210.21 18.438 212.187 17.207 214.57 16.4577C216.954 15.6549 219.499 15.2535 222.207 15.2535C226.757 15.2535 230.63 16.4042 233.825 18.7056C237.075 20.9535 238.971 24.2183 239.513 28.5H237.888C237.292 24.593 235.504 21.6761 232.526 19.7493C229.601 17.8225 226.053 16.8592 221.882 16.8592C218.308 16.8592 215.085 17.6352 212.214 19.1873C209.398 20.7394 207.99 23.2014 207.99 26.5732C207.99 28.3394 208.504 29.7577 209.533 30.8282C210.617 31.8986 211.998 32.7282 213.677 33.3169C215.41 33.8521 217.577 34.3338 220.176 34.762C220.555 34.8155 220.935 34.8958 221.314 35.0028C221.747 35.0563 222.153 35.1099 222.532 35.1634C222.695 35.2169 222.857 35.2437 223.02 35.2437C223.182 35.2437 223.372 35.2704 223.589 35.3239C227.218 35.9127 230.115 36.5282 232.282 37.1704C234.448 37.8127 236.263 38.8563 237.725 40.3014C239.242 41.693 240 43.6465 240 46.162C240 48.731 239.16 50.8183 237.481 52.4239C235.802 54.0296 233.744 55.207 231.307 55.9563C228.924 56.6521 226.541 57 224.157 57Z" fill="white"/>
</svg>
