<svg width="339" height="49" viewBox="0 0 339 49" fill="none" xmlns="http://www.w3.org/2000/svg">
<path d="M19.6198 48.2233L0 2.91281H1.41986L20.3943 46.7345H20.5879L39.5624 2.91281H40.9177L21.2979 48.2233H19.6198Z" fill="white"/>
<path d="M49.6042 48.2233V15.8587H50.895V48.2233H49.6042ZM49.9269 10.3567L49.2816 0H51.2177L50.5723 10.3567H49.9269Z" fill="white"/>
<path d="M75.8222 48.8705C71.9499 48.8705 68.5938 47.9428 65.7541 46.0872C62.9144 44.2316 61.2364 41.4914 60.7201 37.8666H62.0109C62.5272 41.103 64.0761 43.5412 66.6577 45.181C69.2392 46.7776 72.2726 47.576 75.7577 47.576C77.3926 47.576 79.0707 47.3386 80.7917 46.8639C82.5558 46.3893 84.0402 45.5909 85.2449 44.469C86.4926 43.347 87.1165 41.9014 87.1165 40.1321C87.1165 38.4923 86.6432 37.1977 85.6967 36.2484C84.7501 35.299 83.5454 34.6085 82.0825 34.177C80.6626 33.7455 78.6834 33.314 76.1449 32.8824C75.9298 32.8393 75.6931 32.7961 75.435 32.753C75.1768 32.7098 74.9402 32.6667 74.725 32.6235C71.8423 32.1488 69.5404 31.6742 67.8194 31.1995C66.0983 30.7248 64.6354 29.948 63.4307 28.8692C62.269 27.7904 61.6882 26.2801 61.6882 24.3382C61.6882 22.2237 62.2905 20.4976 63.4953 19.1598C64.743 17.779 66.3135 16.7864 68.2066 16.1823C70.0997 15.535 72.122 15.2114 74.2733 15.2114C77.8874 15.2114 80.9638 16.1391 83.5023 17.9947C86.0839 19.8071 87.5898 22.4395 88.0201 25.8917H86.7293C86.256 22.7415 84.8361 20.3897 82.4697 18.8362C80.1463 17.2827 77.3281 16.5059 74.0151 16.5059C71.1754 16.5059 68.6153 17.1317 66.335 18.3831C64.0976 19.6345 62.9789 21.6196 62.9789 24.3382C62.9789 25.7622 63.3877 26.9058 64.2052 27.7688C65.0657 28.6319 66.1629 29.3008 67.4967 29.7754C68.8735 30.207 70.5945 30.5953 72.6598 30.9406C72.961 30.9837 73.2621 31.0484 73.5633 31.1347C73.9075 31.1779 74.2302 31.221 74.5314 31.2642C74.6605 31.3074 74.7896 31.3289 74.9186 31.3289C75.0477 31.3289 75.1983 31.3505 75.3704 31.3937C78.2532 31.8683 80.5551 32.3646 82.2761 32.8824C83.9971 33.4003 85.4385 34.2417 86.6002 35.4069C87.8049 36.5288 88.4073 38.1039 88.4073 40.1321C88.4073 42.2034 87.7404 43.8864 86.4066 45.181C85.0728 46.4756 83.4378 47.4249 81.5016 48.0291C79.6085 48.5901 77.7153 48.8705 75.8222 48.8705Z" fill="white"/>
<path d="M112.324 48.8705C109.312 48.8705 106.709 48.2448 104.515 46.9934C102.364 45.6988 100.707 43.8432 99.5453 41.4267C98.4266 38.967 97.8673 36.0542 97.8673 32.6882V15.8587H99.1581V32.6882C99.1581 37.3056 100.32 40.952 102.643 43.6275C105.01 46.2598 108.237 47.576 112.324 47.576C114.776 47.576 117.014 46.9287 119.036 45.6341C121.101 44.3395 122.715 42.5487 123.876 40.2616C125.038 37.9745 125.619 35.45 125.619 32.6882V15.8587H126.91V48.2233H125.619V39.0964C124.543 42.074 122.822 44.4474 120.456 46.2166C118.09 47.9859 115.379 48.8705 112.324 48.8705Z" fill="white"/>
<path d="M148.218 49C144.862 49 142.302 48.2448 140.538 46.7345C138.774 45.2241 137.892 43.196 137.892 40.6499C137.892 38.1902 138.731 36.2699 140.409 34.889C142.13 33.465 144.195 32.4941 146.604 31.9762C149.014 31.4152 151.767 31.0269 154.865 30.8111C157.877 30.6385 160.157 30.3364 161.706 29.9049C163.298 29.4734 164.094 28.7182 164.094 27.6394C164.094 24.3598 162.997 21.6843 160.803 19.6129C158.652 17.5416 155.855 16.5059 152.413 16.5059C149.057 16.5059 146.282 17.4553 144.087 19.354C141.936 21.2528 140.559 23.8851 139.957 27.251H138.666C139.053 24.7913 139.849 22.6552 141.054 20.8428C142.302 19.0304 143.894 17.6495 145.83 16.7001C147.766 15.7076 149.96 15.2114 152.413 15.2114C154.994 15.2114 157.253 15.7508 159.189 16.8296C161.169 17.8653 162.696 19.354 163.772 21.2959C164.847 23.2378 165.385 25.4817 165.385 28.0277V46.9287H170.548V48.2233H164.159V38.8375C163.04 41.9014 161.018 44.3611 158.092 46.2166C155.166 48.0722 151.875 49 148.218 49ZM148.218 47.7054C151.23 47.7054 153.94 47.0581 156.35 45.7635C158.759 44.469 160.652 42.7213 162.029 40.5205C163.406 38.3197 164.094 35.9031 164.094 33.2708L164.159 30.0343C163.47 30.5953 162.459 31.0269 161.126 31.3289C159.792 31.631 158.028 31.8468 155.833 31.9762C155.704 31.9762 155.554 31.9978 155.382 32.041C155.253 32.041 155.102 32.041 154.93 32.041C149.422 32.4293 145.421 33.314 142.926 34.6948C140.43 36.0326 139.182 38.0176 139.182 40.6499C139.182 42.8939 139.978 44.6416 141.57 45.893C143.205 47.1013 145.421 47.7054 148.218 47.7054Z" fill="white"/>
<path d="M180.258 48.2233V2.26552H181.549V48.2233H180.258Z" fill="white"/>
<path d="M205.766 48.2233L225.386 2.91281H227.064L246.684 48.2233H245.264L238.81 33.3355H213.575L207.121 48.2233H205.766ZM214.091 32.1057H238.294L226.225 4.14267L214.091 32.1057Z" fill="white"/>
<path d="M254.755 48.2233V15.8587H256.046V25.1797C257.035 22.2021 258.627 19.8071 260.822 17.9947C263.016 16.1391 265.511 15.2114 268.308 15.2114C270.546 15.2114 272.46 15.6645 274.052 16.5707C275.644 17.4769 276.849 18.8146 277.666 20.5839C278.527 22.31 278.957 24.4029 278.957 26.8626V28.1572H277.666V26.8626C277.666 23.5399 276.849 20.9938 275.214 19.2246C273.622 17.4122 271.32 16.5059 268.308 16.5059C266.071 16.5059 264.006 17.1748 262.112 18.5126C260.262 19.8503 258.778 21.6627 257.659 23.9498C256.584 26.1937 256.046 28.675 256.046 31.3937V48.2233H254.755Z" fill="white"/>
<path d="M301.345 48.8705C297.687 48.8705 294.977 48.0075 293.213 46.2814C291.449 44.5121 290.567 41.9229 290.567 38.5139V17.1532H282.176V15.8587H289.921C290.136 15.8587 290.287 15.7939 290.373 15.6645C290.502 15.535 290.567 15.384 290.567 15.2114V8.09115H291.986L291.857 15.8587H307.992V17.1532H291.857V38.5139C291.857 41.6209 292.632 43.908 294.181 45.3752C295.73 46.8424 298.075 47.576 301.215 47.576C303.195 47.576 305.454 47.166 307.992 46.3461V47.576C307.045 47.9212 305.927 48.2233 304.636 48.4822C303.345 48.7411 302.248 48.8705 301.345 48.8705Z" fill="white"/>
<path d="M326.415 48.8705C322.543 48.8705 319.187 47.9428 316.347 46.0872C313.507 44.2316 311.829 41.4914 311.313 37.8666H312.604C313.12 41.103 314.669 43.5412 317.25 45.181C319.832 46.7776 322.865 47.576 326.35 47.576C327.985 47.576 329.663 47.3386 331.384 46.8639C333.148 46.3893 334.633 45.5909 335.838 44.469C337.085 43.347 337.709 41.9014 337.709 40.1321C337.709 38.4923 337.236 37.1977 336.289 36.2484C335.343 35.299 334.138 34.6085 332.675 34.177C331.255 33.7455 329.276 33.314 326.738 32.8824C326.522 32.8393 326.286 32.7961 326.028 32.753C325.77 32.7098 325.533 32.6667 325.318 32.6235C322.435 32.1488 320.133 31.6742 318.412 31.1995C316.691 30.7248 315.228 29.948 314.023 28.8692C312.862 27.7904 312.281 26.2801 312.281 24.3382C312.281 22.2237 312.883 20.4976 314.088 19.1598C315.336 17.779 316.906 16.7864 318.799 16.1823C320.692 15.535 322.715 15.2114 324.866 15.2114C328.48 15.2114 331.556 16.1391 334.095 17.9947C336.677 19.8071 338.182 22.4395 338.613 25.8917H337.322C336.849 22.7415 335.429 20.3897 333.062 18.8362C330.739 17.2827 327.921 16.5059 324.608 16.5059C321.768 16.5059 319.208 17.1317 316.928 18.3831C314.69 19.6345 313.572 21.6196 313.572 24.3382C313.572 25.7622 313.98 26.9058 314.798 27.7688C315.658 28.6319 316.756 29.3008 318.089 29.7754C319.466 30.207 321.187 30.5953 323.252 30.9406C323.554 30.9837 323.855 31.0484 324.156 31.1347C324.5 31.1779 324.823 31.221 325.124 31.2642C325.253 31.3074 325.382 31.3289 325.511 31.3289C325.64 31.3289 325.791 31.3505 325.963 31.3937C328.846 31.8683 331.148 32.3646 332.869 32.8824C334.59 33.4003 336.031 34.2417 337.193 35.4069C338.398 36.5288 339 38.1039 339 40.1321C339 42.2034 338.333 43.8864 336.999 45.181C335.665 46.4756 334.031 47.4249 332.094 48.0291C330.201 48.5901 328.308 48.8705 326.415 48.8705Z" fill="white"/>
</svg>
